<svg width="137" height="56" viewBox="0 0 137 56" fill="none" xmlns="http://www.w3.org/2000/svg">
<g clip-path="url(#clip0_823_16122)">
<path d="M6.06691 14.2908C5.359 13.5727 5.01961 12.7922 5.05673 11.9632C5.25457 7.59728 15.6453 3.12272 28.219 1.98912C30.1432 1.81543 32.053 1.72751 33.895 1.72751C37.3319 1.72751 40.5524 2.03813 43.2094 2.62545L43.253 2.4443C40.4329 1.70922 36.9035 1.32063 33.0479 1.32063C31.2216 1.32063 29.3284 1.40784 27.4207 1.57993C14.9107 2.70767 4.571 7.20639 4.37209 11.6083C4.3181 12.8151 5.00452 13.9068 6.41145 14.853L6.06673 14.2908H6.06691Z" fill="#EDCB04"/>
<path d="M32.2791 0.25099C30.253 0.242863 28.1204 0.333296 25.9182 0.531807C12.3722 1.75368 1.1498 6.61203 0.935257 11.3464C0.829797 13.6712 3.39718 15.5449 7.64062 16.7057L6.85171 15.8726C4.48526 14.7587 3.14831 13.3073 3.22432 11.6173C3.43857 6.88251 14.6616 2.02344 28.2087 0.802423C32.2864 0.434825 36.1196 0.437794 39.484 0.750011C37.3102 0.434328 34.8821 0.260964 32.2793 0.250521L32.2791 0.25099ZM17.0227 6.49048C13.4667 6.49048 10.6095 8.12012 10.6095 10.6011C10.6095 13.0697 13.4667 14.7236 17.0227 14.7236C18.7156 14.7236 20.2685 14.2921 21.4021 13.597L19.9889 12.5905C19.3678 12.9741 18.4206 13.3814 17.2713 13.3814C15.6254 13.3814 14.5693 12.5425 14.5693 10.6012C14.5693 8.63568 15.6253 7.79713 17.2713 7.79713C18.4206 7.79713 19.3678 8.22842 19.9889 8.61187L21.4021 7.60511C20.2685 6.92207 18.7156 6.49068 17.0227 6.49068V6.49048ZM43.3015 6.50242C40.5373 6.50242 38.3476 7.40137 38.3476 9.22293C38.3476 10.6968 39.9473 11.2721 42.09 11.7396C43.5346 12.0512 44.9473 12.2185 44.9473 12.9017C44.9473 13.2734 44.3574 13.4892 43.1617 13.4892C41.8107 13.4892 40.2887 12.8301 39.5745 12.2668L38.1301 13.2014C38.7824 13.8125 40.4751 14.7235 43.1617 14.7235C46.3914 14.7235 48.3641 13.6808 48.3641 12.0511C48.3641 10.5531 46.7024 9.85817 44.4817 9.36658C42.6956 8.97106 41.5775 8.91105 41.5775 8.3479C41.5775 7.98844 42.0745 7.71271 43.3479 7.71271C44.14 7.71271 45.5844 8.02434 46.4073 8.59959L47.8039 7.71302C46.6549 6.8982 45.3042 6.50259 43.3008 6.50259L43.3015 6.50242ZM22.4061 6.74217V14.4718H24.7917V9.64227L27.9204 14.4718H30.3218L33.0713 9.64227V14.4718H36.7683V6.74217H32.6919L30.0219 11.392L27.0354 6.74217H22.4059H22.4061ZM16.2484 15.9926C16.0264 15.9926 15.8288 16.1345 15.8288 16.3916C15.8288 16.815 16.3844 16.7403 16.3844 17.0218C16.3844 17.1266 16.3116 17.2122 16.1663 17.2122C16.0151 17.2122 15.9295 17.1192 15.909 17.011H15.8735C15.8605 17.095 15.8437 17.1617 15.8194 17.2477C15.8736 17.2887 15.9854 17.3279 16.1197 17.3279C16.4161 17.3279 16.6136 17.1564 16.6136 16.9064C16.6136 16.4832 16.047 16.5521 16.047 16.2759C16.047 16.1864 16.127 16.1086 16.2406 16.1086C16.3545 16.1086 16.4275 16.1625 16.4665 16.2687H16.4945C16.5187 16.1865 16.5317 16.1419 16.5539 16.0842C16.4831 16.0282 16.3825 15.9926 16.2484 15.9926ZM43.1011 15.9926C42.8793 15.9926 42.6813 16.1345 42.6813 16.3916C42.6813 16.815 43.2371 16.7403 43.2371 17.0218C43.2371 17.1266 43.1644 17.2122 43.0193 17.2122C42.868 17.2122 42.7821 17.1192 42.7615 17.011H42.7262C42.7133 17.095 42.6964 17.1617 42.6719 17.2477C42.726 17.2887 42.8379 17.3279 42.9724 17.3279C43.2688 17.3279 43.4666 17.1564 43.4666 16.9064C43.4666 16.4832 42.8997 16.5521 42.8997 16.2759C42.8997 16.1864 42.9798 16.1086 43.0936 16.1086C43.2073 16.1086 43.2802 16.1625 43.3192 16.2687H43.3473C43.3714 16.1865 43.3846 16.1419 43.4069 16.0842C43.3361 16.0282 43.2352 15.9926 43.1011 15.9926ZM50.1134 15.9926C49.8916 15.9926 49.6938 16.1345 49.6938 16.3916C49.6938 16.815 50.2494 16.7403 50.2494 17.0218C50.2494 17.1266 50.1765 17.2122 50.0313 17.2122C49.8801 17.2122 49.7943 17.1192 49.7737 17.011H49.7385C49.7254 17.095 49.7087 17.1617 49.6844 17.2477C49.7384 17.2887 49.8505 17.3279 49.9849 17.3279C50.2813 17.3279 50.4789 17.1564 50.4789 16.9064C50.4789 16.4832 49.9119 16.5521 49.9119 16.2759C49.9119 16.1864 49.992 16.1086 50.1056 16.1086C50.2195 16.1086 50.2923 16.1625 50.3315 16.2687H50.3593C50.3836 16.1865 50.3968 16.1419 50.4192 16.0842C50.3483 16.0282 50.2475 15.9926 50.1134 15.9926ZM9.8201 15.9929C9.4285 15.9929 9.08002 16.1905 9.08002 16.7052C9.08002 17.0576 9.3353 17.3279 9.76793 17.3279C9.92083 17.3279 10.0496 17.298 10.1484 17.2458C10.1539 17.1934 10.1688 17.1397 10.1894 17.0873L10.1653 17.0723C10.085 17.1563 9.94692 17.2122 9.82758 17.2122C9.61304 17.2122 9.38553 17.0611 9.38553 16.6769C9.38553 16.2816 9.61149 16.1083 9.81093 16.1083C9.94341 16.1083 10.0382 16.1586 10.1314 16.2743H10.1575C10.1632 16.211 10.1762 16.1454 10.2005 16.0842C10.1148 16.0318 9.95063 15.9929 9.8201 15.9929ZM18.9161 15.9929C18.4834 15.9929 18.1999 16.2928 18.1999 16.6602C18.1999 17.1264 18.5167 17.3279 18.9102 17.3279C19.326 17.3279 19.6226 17.0275 19.6226 16.6583C19.6226 16.209 19.3112 15.9929 18.9161 15.9929ZM26.8142 15.9929C26.4226 15.9929 26.0741 16.1905 26.0741 16.7052C26.0741 17.0576 26.3294 17.3279 26.762 17.3279C26.9149 17.3279 27.0438 17.298 27.1427 17.2458C27.1481 17.1934 27.1633 17.1397 27.1835 17.0873L27.1594 17.0723C27.0791 17.1563 26.9412 17.2122 26.8217 17.2122C26.6073 17.2122 26.3799 17.0611 26.3799 16.6769C26.3799 16.2816 26.6054 16.1083 26.805 16.1083C26.9373 16.1083 27.0323 16.1586 27.1255 16.2743H27.1516C27.1571 16.211 27.1706 16.1454 27.1949 16.0842C27.1089 16.0318 26.9447 15.9929 26.8142 15.9929ZM38.3755 15.9929C37.9837 15.9929 37.6351 16.1905 37.6351 16.7052C37.6351 17.0576 37.8905 17.3279 38.3233 17.3279C38.4761 17.3279 38.6049 17.298 38.7038 17.2458C38.7091 17.1934 38.7242 17.1397 38.7448 17.0873L38.7204 17.0723C38.6401 17.1563 38.5023 17.2122 38.383 17.2122C38.1684 17.2122 37.9409 17.0611 37.9409 16.6769C37.9409 16.2816 38.1664 16.1083 38.3661 16.1083C38.4984 16.1083 38.5936 16.1586 38.6868 16.2743H38.7129C38.7184 16.211 38.7316 16.1454 38.7559 16.0842C38.67 16.0318 38.506 15.9929 38.3755 15.9929ZM48.2449 15.9929C47.8531 15.9929 47.5046 16.1905 47.5046 16.7052C47.5046 17.0576 47.76 17.3279 48.1925 17.3279C48.3454 17.3279 48.474 17.298 48.5729 17.2458C48.5786 17.1934 48.5936 17.1397 48.614 17.0873L48.5899 17.0723C48.5096 17.1563 48.3717 17.2122 48.2521 17.2122C48.0376 17.2122 47.8104 17.0611 47.8104 16.6769C47.8104 16.2816 48.0359 16.1083 48.2355 16.1083C48.3678 16.1083 48.4629 16.1586 48.556 16.2743H48.5821C48.588 16.211 48.6009 16.1454 48.6251 16.0842C48.5393 16.0318 48.3753 15.9929 48.2449 15.9929ZM27.7658 16.0076C27.6054 16.4327 27.3257 17.0966 27.2344 17.3035C27.2699 17.2997 27.2976 17.2943 27.3277 17.2943C27.3573 17.2943 27.3854 17.2998 27.4151 17.3035C27.4506 17.1747 27.492 17.048 27.5424 16.9214C27.6074 16.9194 27.6709 16.9178 27.7358 16.9178C27.8163 16.9178 27.8945 16.9194 27.9748 16.9214C28.0213 17.048 28.0643 17.1767 28.1035 17.3035C28.1556 17.2997 28.2096 17.2943 28.262 17.2943C28.3142 17.2943 28.3663 17.2998 28.426 17.3035C28.2842 16.9996 28.0661 16.4327 27.9079 16.0076C27.8836 16.0113 27.861 16.017 27.8368 16.017C27.8125 16.017 27.79 16.0113 27.7658 16.0076ZM39.3268 16.0076C39.1663 16.4327 38.887 17.0966 38.7957 17.3035C38.8309 17.2997 38.8589 17.2943 38.8889 17.2943C38.9186 17.2943 38.9464 17.2998 38.9761 17.3035C39.0118 17.1747 39.0528 17.048 39.1029 16.9214C39.1683 16.9194 39.2319 16.9178 39.2969 16.9178C39.3773 16.9178 39.4554 16.9194 39.5355 16.9214C39.5822 17.048 39.6253 17.1767 39.6645 17.3035C39.7164 17.2997 39.7705 17.2943 39.8227 17.2943C39.8749 17.2943 39.9273 17.2998 39.987 17.3035C39.8453 16.9996 39.627 16.4327 39.4686 16.0076C39.4443 16.0113 39.4219 16.017 39.3976 16.017C39.3734 16.017 39.351 16.0113 39.3268 16.0076ZM10.3927 16.017C10.4039 16.1811 10.4077 16.3247 10.4077 16.5337V16.7871C10.4077 16.9961 10.4039 17.1396 10.3927 17.3035C10.4337 17.2999 10.484 17.2943 10.7878 17.2943C10.9596 17.2943 11.0473 17.3019 11.1144 17.3035C11.1107 17.2813 11.1069 17.2625 11.1069 17.2233C11.1069 17.184 11.1107 17.1654 11.1144 17.1395C10.9708 17.1564 10.8271 17.1636 10.6874 17.1636C10.6836 17.0892 10.6818 17.0091 10.6818 16.9308C10.6818 16.8505 10.6837 16.7701 10.6837 16.6922C10.8255 16.6922 10.9652 16.6974 11.1069 16.7088C11.1014 16.6696 11.0978 16.6529 11.0978 16.6325C11.0978 16.608 11.0995 16.5914 11.1069 16.5484C10.9652 16.5559 10.8461 16.5594 10.6837 16.5631C10.6837 16.4271 10.6837 16.2931 10.6929 16.1569C10.7488 16.1569 10.9727 16.1698 11.1144 16.1791C11.1107 16.1512 11.1069 16.1346 11.1069 16.0955C11.1069 16.0618 11.1107 16.0396 11.1144 16.017C11.0642 16.0227 10.9076 16.0262 10.7248 16.0262C10.6147 16.0262 10.5028 16.019 10.3927 16.017ZM11.3645 16.017C11.3662 16.1065 11.3736 16.2202 11.3736 16.388C11.3736 16.7684 11.3458 17.2497 11.3364 17.3035C11.3645 17.2982 11.3943 17.2943 11.4222 17.2943C11.4502 17.2943 11.48 17.2982 11.5099 17.3035C11.5042 17.2346 11.4988 17.1304 11.4988 16.832C11.4988 16.6922 11.4986 16.5372 11.5024 16.3975C11.7895 16.6995 12.062 17.0014 12.3174 17.3035C12.3398 17.2982 12.364 17.2943 12.3901 17.2943C12.4162 17.2943 12.4403 17.2982 12.4664 17.3035C12.4664 16.8076 12.4665 16.5596 12.4964 16.017C12.4683 16.0227 12.4403 16.0262 12.4123 16.0262C12.3844 16.0262 12.3565 16.0227 12.3285 16.017C12.3416 16.101 12.3415 16.608 12.3415 16.9047C12.0673 16.6079 11.8009 16.3136 11.5323 16.017C11.5043 16.0227 11.4763 16.0262 11.4483 16.0262C11.4204 16.0262 11.3923 16.0227 11.3645 16.017ZM12.6812 16.017C12.6867 16.0451 12.6906 16.0709 12.6906 16.0991C12.6906 16.1269 12.6867 16.1531 12.6812 16.181C12.7931 16.1679 12.9496 16.1569 13.0222 16.1569C13.0279 16.1832 13.0281 16.2503 13.0281 16.3211V16.7871C13.0281 16.9961 13.0243 17.1395 13.0131 17.3035C13.0541 17.2999 13.1043 17.2943 13.166 17.2943C13.2276 17.2943 13.2778 17.2999 13.3189 17.3035C13.3077 17.1395 13.3039 16.9961 13.3039 16.7871V16.3211C13.3039 16.2503 13.304 16.1831 13.3078 16.1569C13.3824 16.1569 13.539 16.1679 13.6397 16.181C13.6341 16.1531 13.6302 16.1269 13.6302 16.0991C13.6302 16.0709 13.6341 16.0451 13.6397 16.017C13.4812 16.0225 13.3972 16.0262 13.166 16.0262C12.9347 16.0262 12.851 16.0225 12.6812 16.017ZM13.8131 16.017C13.8243 16.1811 13.8281 16.3247 13.8281 16.5337V16.7871C13.8281 16.9961 13.8243 17.1396 13.8131 17.3035C13.8541 17.2999 13.9046 17.2943 14.2085 17.2943C14.3801 17.2943 14.4677 17.3019 14.5349 17.3035C14.5309 17.2813 14.5274 17.2625 14.5274 17.2233C14.5274 17.184 14.5309 17.1654 14.5349 17.1395C14.391 17.1564 14.2476 17.1636 14.1078 17.1636C14.1041 17.0892 14.1022 17.0091 14.1022 16.9308C14.1022 16.8505 14.1042 16.7701 14.1042 16.6922C14.2459 16.6922 14.3856 16.6974 14.5274 16.7088C14.5217 16.6696 14.5182 16.6529 14.5182 16.6325C14.5182 16.608 14.5201 16.5914 14.5274 16.5484C14.3856 16.5559 14.2663 16.5594 14.1042 16.5631C14.1042 16.4271 14.1041 16.2931 14.1133 16.1569C14.1693 16.1569 14.3929 16.1698 14.5348 16.1791C14.5309 16.1512 14.5274 16.1346 14.5274 16.0955C14.5274 16.0618 14.5309 16.0396 14.5348 16.017C14.4844 16.0227 14.328 16.0262 14.1452 16.0262C14.0351 16.0262 13.9232 16.019 13.8131 16.017ZM14.7627 16.017C14.7737 16.1811 14.7774 16.3247 14.7774 16.5337V16.7871C14.7774 16.9961 14.7737 17.1396 14.7627 17.3035C14.8035 17.2999 14.8539 17.2943 14.9153 17.2943C14.9769 17.2943 15.0273 17.2999 15.0682 17.3035C15.057 17.1396 15.0532 16.9961 15.0532 16.7871V16.7107H15.0701L15.404 17.3035C15.4599 17.2999 15.5176 17.2943 15.5735 17.2943C15.6295 17.2943 15.6855 17.2999 15.7414 17.3035C15.6052 17.0928 15.4637 16.8803 15.3443 16.6697C15.529 16.623 15.6332 16.5074 15.6332 16.3264C15.6332 16.2165 15.5865 16.1344 15.5119 16.0803C15.4467 16.0338 15.3779 16.017 15.1895 16.017C15.0627 16.017 14.9826 16.0262 14.9153 16.0262C14.8539 16.0262 14.8035 16.0207 14.7627 16.017ZM17.3361 16.017C17.3473 16.1811 17.3511 16.3247 17.3511 16.5337V16.7871C17.3511 16.9961 17.3473 17.1396 17.3361 17.3035C17.3772 17.2999 17.4276 17.2943 17.489 17.2943C17.5505 17.2943 17.6009 17.2999 17.6419 17.3035C17.6308 17.1396 17.6272 16.9961 17.6272 16.7871V16.6922C17.769 16.6922 17.9087 16.6974 18.0504 16.7088C18.0447 16.6696 18.041 16.6529 18.041 16.6325C18.041 16.608 18.0431 16.5914 18.0504 16.5484C17.9087 16.5559 17.7896 16.5594 17.6272 16.5631C17.6272 16.4271 17.6272 16.2931 17.6364 16.1569C17.6923 16.1569 17.916 16.1698 18.0579 16.1791C18.054 16.1512 18.0504 16.1346 18.0504 16.0955C18.0504 16.0618 18.054 16.0396 18.0579 16.017C18.0075 16.0227 17.8508 16.0262 17.668 16.0262C17.5579 16.0262 17.4462 16.019 17.3361 16.017ZM19.8391 16.017C19.8503 16.1811 19.8541 16.3247 19.8541 16.5337V16.7871C19.8541 16.9961 19.8503 17.1396 19.8391 17.3035C19.8801 17.2999 19.9306 17.2943 19.992 17.2943C20.0535 17.2943 20.1038 17.2999 20.1446 17.3035C20.1336 17.1396 20.1299 16.9961 20.1299 16.7871V16.7107H20.1466L20.4807 17.3035C20.5366 17.2999 20.5943 17.2943 20.6503 17.2943C20.7062 17.2943 20.7622 17.2999 20.8181 17.3035C20.6821 17.0928 20.5399 16.8803 20.4208 16.6697C20.6053 16.623 20.7099 16.5074 20.7099 16.3264C20.7099 16.2165 20.6632 16.1344 20.5886 16.0803C20.5233 16.0338 20.4542 16.017 20.2659 16.017C20.1391 16.017 20.059 16.0262 19.992 16.0262C19.9306 16.0262 19.8802 16.0207 19.8391 16.017ZM21.6034 16.017C21.5511 16.4459 21.4896 16.8749 21.4114 17.3035C21.4412 17.2982 21.469 17.2943 21.4988 17.2943C21.5269 17.2943 21.5567 17.2982 21.5865 17.3035C21.6052 17.022 21.6219 16.7386 21.6612 16.4571H21.665C21.8048 16.7386 21.9389 17.022 22.0716 17.3035C22.0828 17.3017 22.0957 17.2999 22.1071 17.2999C22.1181 17.2999 22.131 17.3017 22.1423 17.3035C22.2766 17.0145 22.4146 16.7275 22.5544 16.4385H22.5583C22.5879 16.7275 22.6198 17.0444 22.6329 17.3035C22.6848 17.2982 22.7368 17.2943 22.7872 17.2943C22.8377 17.2943 22.8881 17.2982 22.9382 17.3035C22.8916 17.0405 22.8265 16.4459 22.7781 16.017C22.7519 16.0225 22.7258 16.0262 22.6995 16.0262C22.6736 16.0262 22.6455 16.0225 22.6196 16.017C22.4852 16.3134 22.3323 16.6305 22.185 16.9081C22.0488 16.6454 21.8906 16.3134 21.7544 16.017C21.73 16.0225 21.7039 16.0262 21.6797 16.0262C21.6536 16.0262 21.6294 16.0225 21.6034 16.017ZM23.1383 16.017C23.1497 16.1811 23.1533 16.3247 23.1533 16.5337V16.7871C23.1533 16.9961 23.1497 17.1396 23.1383 17.3035C23.1793 17.2999 23.2296 17.2943 23.5335 17.2943C23.705 17.2943 23.7928 17.3019 23.8601 17.3035C23.8563 17.2813 23.8526 17.2625 23.8526 17.2233C23.8526 17.184 23.8563 17.1654 23.8601 17.1395C23.7164 17.1564 23.5727 17.1636 23.4327 17.1636C23.429 17.0892 23.4275 17.0091 23.4275 16.9308C23.4275 16.8505 23.4291 16.7701 23.4291 16.6922C23.5708 16.6922 23.7109 16.6974 23.8526 16.7088C23.8469 16.6696 23.8431 16.6529 23.8431 16.6325C23.8431 16.608 23.8451 16.5914 23.8526 16.5484C23.7109 16.5559 23.5914 16.5594 23.4291 16.5631C23.4291 16.4271 23.4291 16.2931 23.4386 16.1569C23.4945 16.1569 23.7183 16.1698 23.8601 16.1791C23.8563 16.1512 23.8526 16.1346 23.8526 16.0955C23.8526 16.0618 23.8563 16.0396 23.8601 16.017C23.8096 16.0227 23.6531 16.0262 23.4702 16.0262C23.3603 16.0262 23.2484 16.019 23.1383 16.017ZM24.0876 16.017C24.0988 16.1813 24.1026 16.3244 24.1026 16.5334V16.7871C24.1026 16.9959 24.0988 17.1396 24.0876 17.3035C24.1286 17.2998 24.1792 17.2943 24.2408 17.2943C24.3376 17.2943 24.4642 17.3035 24.6507 17.3035C25.0011 17.3035 25.2958 17.0331 25.2958 16.6228C25.2958 16.1531 25.0033 16.017 24.578 16.017C24.4139 16.017 24.3227 16.0265 24.2408 16.0265C24.1792 16.0265 24.1286 16.0207 24.0876 16.017ZM25.5459 16.017C25.5573 16.1811 25.5609 16.3247 25.5609 16.5337V16.7871C25.5609 16.9961 25.5573 17.1396 25.5459 17.3035C25.5869 17.2999 25.6373 17.2943 25.6991 17.2943C25.7605 17.2943 25.8107 17.2999 25.8517 17.3035C25.8409 17.1396 25.837 16.9961 25.837 16.7871V16.5337C25.837 16.3247 25.8409 16.1811 25.8517 16.017C25.8107 16.0207 25.7605 16.0262 25.6991 16.0262C25.6373 16.0262 25.5869 16.0207 25.5459 16.017ZM28.6029 16.017C28.6139 16.1811 28.6178 16.3247 28.6178 16.5337V16.7871C28.6178 16.9961 28.6139 17.1396 28.6029 17.3035C28.6439 17.2999 28.6941 17.2943 28.7558 17.2943C28.8176 17.2943 28.8677 17.2999 28.9089 17.3035C28.8976 17.1396 28.894 16.9961 28.894 16.7871V16.7107H28.9106L29.2444 17.3035C29.3002 17.2999 29.358 17.2943 29.414 17.2943C29.4699 17.2943 29.5261 17.2999 29.5819 17.3035C29.4458 17.0928 29.3041 16.8803 29.1848 16.6697C29.3693 16.623 29.4739 16.5074 29.4739 16.3264C29.4739 16.2165 29.4272 16.1344 29.3527 16.0803C29.2873 16.0338 29.2185 16.017 29.0302 16.017C28.9032 16.017 28.8229 16.0262 28.7558 16.0262C28.6942 16.0262 28.6439 16.0207 28.6029 16.017ZM29.7259 16.017C29.7369 16.1811 29.7409 16.3247 29.7409 16.5337V16.7871C29.7409 16.9961 29.7369 17.1396 29.7259 17.3035C29.7667 17.2999 29.8172 17.2943 30.121 17.2943C30.2924 17.2943 30.3801 17.3019 30.4471 17.3035C30.4435 17.2813 30.4399 17.2625 30.4399 17.2233C30.4399 17.184 30.4435 17.1654 30.4471 17.1395C30.3036 17.1564 30.1601 17.1636 30.0203 17.1636C30.0167 17.0892 30.0147 17.0091 30.0147 16.9308C30.0147 16.8505 30.0167 16.7701 30.0167 16.6922C30.1582 16.6922 30.2981 16.6974 30.4399 16.7088C30.4342 16.6696 30.4304 16.6529 30.4304 16.6325C30.4304 16.608 30.4322 16.5914 30.4399 16.5484C30.2981 16.5559 30.1788 16.5594 30.0167 16.5631C30.0167 16.4271 30.0166 16.2931 30.0259 16.1569C30.0818 16.1569 30.3055 16.1698 30.4471 16.1791C30.4435 16.1512 30.4399 16.1346 30.4399 16.0955C30.4399 16.0618 30.4435 16.0396 30.4471 16.017C30.397 16.0227 30.2404 16.0262 30.0575 16.0262C29.9475 16.0262 29.8356 16.019 29.7259 16.017ZM33.1646 16.017C33.1124 16.4459 33.0511 16.8749 32.9726 17.3035C33.0024 17.2982 33.0301 17.2943 33.06 17.2943C33.088 17.2943 33.1176 17.2982 33.1477 17.3035C33.1665 17.022 33.1832 16.7386 33.2223 16.4571H33.2262C33.3661 16.7386 33.5002 17.022 33.6327 17.3035C33.6439 17.3017 33.6569 17.2999 33.6682 17.2999C33.6794 17.2999 33.6924 17.3017 33.7038 17.3035C33.8377 17.0145 33.976 16.7275 34.1156 16.4385H34.1192C34.1492 16.7275 34.1809 17.0444 34.1941 17.3035C34.2463 17.2982 34.2982 17.2943 34.3487 17.2943C34.3991 17.2943 34.4494 17.2982 34.4999 17.3035C34.4532 17.0405 34.3878 16.4459 34.3395 16.017C34.3132 16.0225 34.2872 16.0262 34.261 16.0262C34.2348 16.0262 34.2069 16.0225 34.1808 16.017C34.0463 16.3134 33.8936 16.6305 33.7462 16.9081C33.6103 16.6454 33.4518 16.3134 33.3158 16.017C33.2915 16.0225 33.2654 16.0262 33.2409 16.0262C33.215 16.0262 33.1907 16.0225 33.1646 16.017ZM34.6995 16.017C34.7108 16.1811 34.7144 16.3247 34.7144 16.5337V16.7871C34.7144 16.9961 34.7108 17.1396 34.6995 17.3035C34.7405 17.2999 34.791 17.2943 35.0949 17.2943C35.2668 17.2943 35.3541 17.3019 35.4212 17.3035C35.4175 17.2813 35.414 17.2625 35.414 17.2233C35.414 17.184 35.4175 17.1654 35.4212 17.1395C35.2776 17.1564 35.134 17.1636 34.9944 17.1636C34.9905 17.0892 34.9886 17.0091 34.9886 16.9308C34.9886 16.8505 34.9906 16.7701 34.9906 16.6922C35.1323 16.6922 35.2723 16.6974 35.414 16.7088C35.4082 16.6696 35.4046 16.6529 35.4046 16.6325C35.4046 16.608 35.4064 16.5914 35.414 16.5484C35.2723 16.5559 35.1527 16.5594 34.9906 16.5631C34.9906 16.4271 34.9906 16.2931 35 16.1569C35.0558 16.1569 35.2795 16.1698 35.4212 16.1791C35.4175 16.1512 35.414 16.1346 35.414 16.0955C35.414 16.0618 35.4175 16.0396 35.4212 16.017C35.371 16.0227 35.2143 16.0262 35.0314 16.0262C34.9214 16.0262 34.8096 16.019 34.6995 16.017ZM35.6488 16.017C35.6601 16.1813 35.6638 16.3244 35.6638 16.5334V16.7871C35.6638 16.9959 35.6601 17.1396 35.6488 17.3035C35.6898 17.2998 35.7402 17.2943 35.8017 17.2943C35.8986 17.2943 36.0258 17.3035 36.2121 17.3035C36.5627 17.3035 36.8573 17.0331 36.8573 16.6228C36.8573 16.1531 36.5644 16.017 36.1394 16.017C35.9753 16.017 35.8839 16.0265 35.8017 16.0265C35.7402 16.0265 35.6898 16.0207 35.6488 16.017ZM37.1073 16.017C37.1187 16.1811 37.1223 16.3247 37.1223 16.5337V16.7871C37.1223 16.9961 37.1187 17.1396 37.1073 17.3035C37.1484 17.2999 37.1989 17.2943 37.2605 17.2943C37.3218 17.2943 37.3721 17.2999 37.4131 17.3035C37.4018 17.1396 37.3981 16.9961 37.3981 16.7871V16.5337C37.3981 16.3247 37.4018 16.1811 37.4131 16.017C37.3721 16.0207 37.3218 16.0262 37.2605 16.0262C37.1989 16.0262 37.1484 16.0207 37.1073 16.017ZM40.1714 16.017C40.1828 16.1811 40.1864 16.3247 40.1864 16.5337V16.7871C40.1864 16.9961 40.1828 17.1396 40.1714 17.3035C40.2122 17.2999 40.2625 17.2943 40.3243 17.2943C40.3857 17.2943 40.4362 17.2999 40.4772 17.3035C40.466 17.1396 40.4619 16.9961 40.4619 16.7871V16.5337C40.4619 16.3247 40.466 16.1811 40.4772 16.017C40.4362 16.0207 40.3857 16.0262 40.3243 16.0262C40.2625 16.0262 40.2122 16.0207 40.1714 16.017ZM40.7847 16.017C40.796 16.1813 40.7999 16.3244 40.7999 16.5334V16.7871C40.7999 16.9959 40.796 17.1396 40.7847 17.3035C40.8257 17.2998 40.8761 17.2943 40.9376 17.2943C41.0347 17.2943 41.1615 17.3035 41.348 17.3035C41.6986 17.3035 41.9932 17.0331 41.9932 16.6228C41.9932 16.1531 41.7006 16.017 41.2753 16.017C41.1112 16.017 41.0198 16.0265 40.9376 16.0265C40.8761 16.0265 40.8257 16.0207 40.7847 16.017ZM43.6701 16.017C43.6813 16.1811 43.6851 16.3247 43.6851 16.5337V16.7871C43.6851 16.9961 43.6813 17.1396 43.6701 17.3035C43.711 17.2999 43.7614 17.2943 44.0653 17.2943C44.2368 17.2943 44.3245 17.3019 44.3916 17.3035C44.3879 17.2813 44.3844 17.2625 44.3844 17.2233C44.3844 17.184 44.3879 17.1654 44.3916 17.1395C44.2479 17.1564 44.1044 17.1636 43.9648 17.1636C43.9609 17.0892 43.959 17.0091 43.959 16.9308C43.959 16.8505 43.9609 16.7701 43.9609 16.6922C44.1027 16.6922 44.2425 16.6974 44.3844 16.7088C44.3787 16.6696 44.375 16.6529 44.375 16.6325C44.375 16.608 44.3768 16.5914 44.3844 16.5484C44.2425 16.5559 44.1231 16.5594 43.9609 16.5631C43.9609 16.4271 43.961 16.2931 43.9704 16.1569C44.0261 16.1569 44.2499 16.1698 44.3916 16.1791C44.3879 16.1512 44.3844 16.1346 44.3844 16.0955C44.3844 16.0618 44.3879 16.0396 44.3916 16.017C44.3412 16.0227 44.1847 16.0262 44.0017 16.0262C43.8918 16.0262 43.7801 16.019 43.6701 16.017ZM44.6194 16.017C44.6306 16.1811 44.6341 16.3247 44.6341 16.5337V16.7871C44.6341 16.9961 44.6306 17.1396 44.6194 17.3035C44.6606 17.2999 44.7109 17.2943 44.7723 17.2943C44.8341 17.2943 44.884 17.2999 44.9252 17.3035C44.914 17.1396 44.9102 16.9961 44.9102 16.7871V16.7107H44.9272L45.2607 17.3035C45.3167 17.2999 45.3743 17.2943 45.4303 17.2943C45.4862 17.2943 45.5424 17.2999 45.5982 17.3035C45.4621 17.0928 45.3204 16.8803 45.2011 16.6697C45.3856 16.623 45.4902 16.5074 45.4902 16.3264C45.4902 16.2165 45.4435 16.1344 45.3689 16.0803C45.3036 16.0338 45.2346 16.017 45.0465 16.017C44.9195 16.017 44.8395 16.0262 44.7723 16.0262C44.7109 16.0262 44.6606 16.0207 44.6194 16.017ZM45.6134 16.017C45.7347 16.3022 46.0031 16.9847 46.1187 17.3035C46.1448 17.2999 46.173 17.2943 46.2009 17.2943C46.2289 17.2943 46.2548 17.2999 46.2827 17.3035C46.4282 16.8767 46.6703 16.3099 46.7936 16.017C46.7677 16.0227 46.7396 16.0262 46.7117 16.0262C46.6839 16.0262 46.6559 16.0227 46.6296 16.017C46.5326 16.306 46.4058 16.6419 46.2772 16.953C46.1633 16.6419 46.0295 16.295 45.9453 16.017C45.8913 16.0227 45.8351 16.0262 45.7813 16.0262C45.7271 16.0262 45.6711 16.0227 45.6134 16.017ZM46.9765 16.017C46.9879 16.1811 46.9917 16.3247 46.9917 16.5337V16.7871C46.9917 16.9961 46.9879 17.1396 46.9765 17.3035C47.0175 17.2999 47.0679 17.2943 47.1294 17.2943C47.191 17.2943 47.2413 17.2999 47.2823 17.3035C47.2711 17.1396 47.2676 16.9961 47.2676 16.7871V16.5337C47.2676 16.3247 47.2711 16.1811 47.2823 16.017C47.2413 16.0207 47.191 16.0262 47.1294 16.0262C47.0679 16.0262 47.0175 16.0207 46.9765 16.017ZM48.8174 16.017C48.8286 16.1811 48.8321 16.3247 48.8321 16.5337V16.7871C48.8321 16.9961 48.8286 17.1396 48.8174 17.3035C48.8584 17.2999 48.9087 17.2943 49.2125 17.2943C49.3843 17.2943 49.4717 17.3019 49.5389 17.3035C49.5351 17.2813 49.5317 17.2625 49.5317 17.2233C49.5317 17.184 49.5351 17.1654 49.5389 17.1395C49.3952 17.1564 49.2516 17.1636 49.1118 17.1636C49.1082 17.0892 49.1062 17.0091 49.1062 16.9308C49.1062 16.8505 49.1082 16.7701 49.1082 16.6922C49.2497 16.6922 49.3901 16.6974 49.5317 16.7088C49.526 16.6696 49.5222 16.6529 49.5222 16.6325C49.5222 16.608 49.524 16.5914 49.5317 16.5484C49.3901 16.5559 49.2703 16.5594 49.1082 16.5631C49.1082 16.4271 49.1083 16.2931 49.1176 16.1569C49.1736 16.1569 49.3971 16.1698 49.5389 16.1791C49.5351 16.1512 49.5316 16.1346 49.5316 16.0955C49.5316 16.0618 49.5351 16.0396 49.5389 16.017C49.4884 16.0227 49.332 16.0262 49.1493 16.0262C49.0393 16.0262 48.9273 16.019 48.8174 16.017ZM31.6572 16.0262C31.4933 16.0262 31.3145 16.1083 31.3145 16.3245C31.3145 16.4252 31.3702 16.5224 31.4505 16.6305C31.2491 16.733 31.1147 16.8337 31.1147 17.0276C31.1147 17.1731 31.2341 17.3279 31.4691 17.3279C31.6145 17.3279 31.775 17.2717 31.8867 17.1803L31.9763 17.3035C32.0284 17.3019 32.079 17.2943 32.1292 17.2943C32.1983 17.2943 32.267 17.3019 32.3585 17.3035C32.2729 17.2196 32.1609 17.0966 32.081 17.0032C32.1723 16.9027 32.2577 16.802 32.3401 16.6772C32.3066 16.6455 32.2709 16.608 32.2372 16.5689C32.1608 16.7291 32.0791 16.8525 32.0155 16.9288C31.9148 16.8115 31.816 16.6957 31.7208 16.5709C31.8851 16.4702 31.9597 16.3748 31.9597 16.2537C31.9597 16.1047 31.8307 16.0262 31.6572 16.0262ZM18.9098 16.0991C19.1503 16.0991 19.3164 16.2965 19.3164 16.6192C19.3164 17.0257 19.1207 17.2122 18.8968 17.2122C18.6881 17.2122 18.5053 17.0742 18.5053 16.6769C18.5053 16.3561 18.6543 16.0991 18.9098 16.0991ZM31.6872 16.1102C31.7545 16.1102 31.8196 16.1643 31.8196 16.2462C31.8196 16.3618 31.732 16.4569 31.6706 16.5035C31.6091 16.4159 31.5548 16.3211 31.5548 16.2445C31.5548 16.1568 31.6146 16.1102 31.6872 16.1102ZM15.0584 16.1233C15.2616 16.1233 15.3476 16.1473 15.3476 16.3675C15.3476 16.5428 15.2578 16.6342 15.0939 16.6342C15.0808 16.6342 15.0675 16.6325 15.0526 16.6306C15.0526 16.4608 15.0547 16.2929 15.0584 16.1233ZM20.1348 16.1233C20.3382 16.1233 20.424 16.1473 20.424 16.3675C20.424 16.5428 20.3345 16.6342 20.1704 16.6342C20.1572 16.6342 20.1442 16.6325 20.1293 16.6306C20.1293 16.4608 20.1311 16.2929 20.1348 16.1233ZM24.5736 16.1233C24.831 16.1233 25.0004 16.3136 25.0004 16.6194C25.0004 17.0073 24.8236 17.1975 24.5437 17.1975C24.4673 17.1975 24.4171 17.1934 24.3797 17.1917C24.3777 17.1563 24.3777 16.9286 24.3777 16.8281V16.4963C24.3777 16.3954 24.3777 16.1679 24.3797 16.1327C24.4374 16.1269 24.4841 16.1233 24.5736 16.1233ZM28.8986 16.1233C29.1018 16.1233 29.1875 16.1473 29.1875 16.3675C29.1875 16.5428 29.0982 16.6342 28.9339 16.6342C28.9209 16.6342 28.9082 16.6325 28.8931 16.6306C28.8931 16.4608 28.8947 16.2929 28.8986 16.1233ZM36.1349 16.1233C36.3919 16.1233 36.5617 16.3136 36.5617 16.6194C36.5617 17.0073 36.3847 17.1975 36.105 17.1975C36.0284 17.1975 35.9778 17.1934 35.9407 17.1917C35.9388 17.1563 35.9388 16.9286 35.9388 16.8281V16.4963C35.9388 16.3954 35.9388 16.1679 35.9407 16.1327C35.9984 16.1269 36.0453 16.1233 36.1349 16.1233ZM41.2705 16.1233C41.5278 16.1233 41.6978 16.3136 41.6978 16.6194C41.6978 17.0073 41.5205 17.1975 41.2408 17.1975C41.1644 17.1975 41.1141 17.1934 41.0768 17.1917C41.075 17.1563 41.0749 16.9286 41.0749 16.8281V16.4963C41.0749 16.3954 41.075 16.1679 41.0768 16.1327C41.1347 16.1269 41.181 16.1233 41.2705 16.1233ZM44.9148 16.1233C45.118 16.1233 45.2039 16.1473 45.2039 16.3675C45.2039 16.5428 45.1143 16.6342 44.95 16.6342C44.9371 16.6342 44.9243 16.6325 44.9092 16.6306C44.9092 16.4608 44.9109 16.2929 44.9148 16.1233ZM27.7646 16.3675C27.8242 16.5131 27.8765 16.6602 27.9305 16.8112H27.5895C27.6435 16.6602 27.701 16.5131 27.7646 16.3675ZM39.3256 16.3675C39.3851 16.5131 39.4374 16.6602 39.4915 16.8112H39.1505C39.2043 16.6602 39.262 16.5131 39.3256 16.3675ZM31.5041 16.7033C31.6103 16.8412 31.7221 16.9791 31.834 17.1153C31.7855 17.1599 31.7091 17.188 31.6345 17.188C31.4631 17.188 31.3642 17.0519 31.3642 16.9289C31.3642 16.8339 31.4181 16.7686 31.5041 16.7033Z" fill="#1C4E9D"/>
</g>
<path d="M2.95459 51.5039V23.0328H12.5534V51.5039H2.95459ZM31.8979 52.1547C29.6202 52.1547 27.5052 51.8022 25.5529 51.0972C23.6277 50.3651 21.9466 49.3347 20.5095 48.006C19.0995 46.6774 18.0013 45.1047 17.2149 43.2879C16.4286 41.4712 16.0354 39.4647 16.0354 37.2683C16.0354 35.072 16.4286 33.0655 17.2149 31.2487C18.0013 29.432 19.0995 27.8593 20.5095 26.5307C21.9466 25.202 23.6277 24.1852 25.5529 23.4802C27.5052 22.7481 29.6202 22.382 31.8979 22.382C34.6908 22.382 37.1583 22.8701 39.3004 23.8462C41.4696 24.8224 43.2593 26.2324 44.6693 28.0762L38.609 33.4857C37.7684 32.4282 36.8329 31.6148 35.8025 31.0454C34.7993 30.4488 33.6604 30.1506 32.386 30.1506C31.3827 30.1506 30.4744 30.3132 29.6609 30.6386C28.8474 30.964 28.1424 31.4385 27.5459 32.0622C26.9765 32.6858 26.5291 33.4451 26.2037 34.3399C25.8783 35.2076 25.7156 36.1837 25.7156 37.2683C25.7156 38.353 25.8783 39.3427 26.2037 40.2375C26.5291 41.1052 26.9765 41.8508 27.5459 42.4745C28.1424 43.0981 28.8474 43.5727 29.6609 43.898C30.4744 44.2234 31.3827 44.3861 32.386 44.3861C33.6604 44.3861 34.7993 44.1014 35.8025 43.532C36.8329 42.9355 37.7684 42.1084 38.609 41.0509L44.6693 46.4604C43.2593 48.2772 41.4696 49.6872 39.3004 50.6904C37.1583 51.6666 34.6908 52.1547 31.8979 52.1547ZM47.4407 51.5039V23.0328H61.4729C64.6454 23.0328 67.4383 23.6158 69.8516 24.7817C72.2649 25.9206 74.1494 27.5475 75.5051 29.6625C76.8609 31.7775 77.5388 34.2992 77.5388 37.2277C77.5388 40.1832 76.8609 42.7321 75.5051 44.8742C74.1494 46.9892 72.2649 48.6297 69.8516 49.7956C67.4383 50.9345 64.6454 51.5039 61.4729 51.5039H47.4407ZM57.0396 44.0201H61.0662C62.422 44.0201 63.6015 43.7625 64.6048 43.2473C65.6352 42.7321 66.4351 41.9729 67.0045 40.9696C67.5739 39.9392 67.8586 38.6919 67.8586 37.2277C67.8586 35.7906 67.5739 34.5704 67.0045 33.5671C66.4351 32.5638 65.6352 31.8046 64.6048 31.2894C63.6015 30.7742 62.422 30.5166 61.0662 30.5166H57.0396V44.0201ZM96.0034 51.5039V26.368L100.111 30.2726H91.1226V23.0328H105.602V51.5039H96.0034ZM121.992 52.1547C119.47 52.1547 117.233 51.5717 115.281 50.4057C113.356 49.2398 111.838 47.5451 110.726 45.3216C109.641 43.0981 109.099 40.4137 109.099 37.2683C109.099 34.123 109.641 31.4385 110.726 29.2151C111.838 26.9916 113.356 25.2969 115.281 24.1309C117.233 22.965 119.47 22.382 121.992 22.382C124.514 22.382 126.737 22.965 128.663 24.1309C130.615 25.2969 132.133 26.9916 133.218 29.2151C134.33 31.4385 134.886 34.123 134.886 37.2683C134.886 40.4137 134.33 43.0981 133.218 45.3216C132.133 47.5451 130.615 49.2398 128.663 50.4057C126.737 51.5717 124.514 52.1547 121.992 52.1547ZM121.992 44.4675C122.616 44.4675 123.172 44.2505 123.66 43.8167C124.148 43.3829 124.528 42.6372 124.799 41.5797C125.097 40.5222 125.246 39.0851 125.246 37.2683C125.246 35.4245 125.097 33.9874 124.799 32.957C124.528 31.8995 124.148 31.1538 123.66 30.72C123.172 30.2861 122.616 30.0692 121.992 30.0692C121.369 30.0692 120.813 30.2861 120.325 30.72C119.837 31.1538 119.443 31.8995 119.145 32.957C118.874 33.9874 118.738 35.4245 118.738 37.2683C118.738 39.0851 118.874 40.5222 119.145 41.5797C119.443 42.6372 119.837 43.3829 120.325 43.8167C120.813 44.2505 121.369 44.4675 121.992 44.4675Z" fill="#1C4E9D"/>
<defs>
<clipPath id="clip0_823_16122">
<rect width="50.1155" height="17.5041" fill="white" transform="translate(0.63623)"/>
</clipPath>
</defs>
</svg>
