<svg width="107" height="87" viewBox="0 0 107 87" fill="none" xmlns="http://www.w3.org/2000/svg">
<g clip-path="url(#clip0_823_16068)">
<path d="M18.234 68.0126C18.234 67.3916 18.7171 66.8913 19.3554 66.8913H19.5797C20.0627 66.8913 20.3905 67.15 20.6148 67.4778L24.4273 73.4641L28.2744 67.4606C28.516 67.081 28.8265 66.8913 29.275 66.8913H29.4993C30.1376 66.8913 30.6206 67.3916 30.6206 68.0126V78.5706C30.6206 79.1916 30.1376 79.6747 29.4993 79.6747C28.9127 79.6747 28.3952 79.1744 28.3952 78.5706V70.9971L25.3417 75.6378C25.1174 76.0001 24.8241 76.2243 24.4101 76.2243C24.0133 76.2243 23.72 76.0001 23.4958 75.6378L20.4077 71.0316V78.5878C20.4077 79.2089 19.9247 79.6747 19.3036 79.6747C18.6826 79.6747 18.2168 79.2089 18.2168 78.5878V68.0126H18.234ZM34.3642 78.1393C34.278 78.3118 34.2262 78.4843 34.2262 78.6396C34.2262 79.2089 34.6748 79.6574 35.2613 79.6574C35.7271 79.6574 36.1066 79.4159 36.2964 78.9501L37.366 76.5176H43.4903L44.5254 78.8811C44.7152 79.3469 45.0774 79.6574 45.6122 79.6574C46.1988 79.6574 46.6646 79.1916 46.6646 78.5878C46.6646 78.4498 46.6301 78.2773 46.5438 78.122L41.8514 67.6676C41.5926 67.1155 41.1613 66.7705 40.5403 66.7705H40.4368C39.7985 66.7705 39.3672 67.1155 39.1084 67.6676L34.3642 78.1393ZM38.1768 74.5682L40.4023 69.4617L42.6105 74.5682H38.1768ZM50.2184 78.467C50.2184 79.1054 50.7014 79.5884 51.3397 79.5884H58.1541C58.7061 79.5884 59.1547 79.1399 59.1547 78.5706C59.1547 78.0185 58.7061 77.57 58.1541 77.57H52.4438V67.9781C52.4438 67.3743 51.9608 66.874 51.3397 66.874C50.7187 66.874 50.2184 67.3571 50.2184 67.9781V78.467ZM61.8804 78.1393C61.7942 78.3118 61.7424 78.4843 61.7424 78.6396C61.7424 79.2089 62.191 79.6574 62.7775 79.6574C63.2433 79.6574 63.6228 79.4159 63.8126 78.9501L64.8822 76.5176H71.0065L72.0416 78.8811C72.2313 79.3469 72.5936 79.6574 73.1284 79.6574C73.715 79.6574 74.1808 79.1916 74.1808 78.5878C74.1808 78.4498 74.1463 78.2773 74.06 78.122L69.3676 67.6676C69.1088 67.1155 68.6775 66.7705 68.0565 66.7705H67.953C67.3147 66.7705 66.8661 67.1155 66.6246 67.6676L61.8804 78.1393ZM65.693 74.5682L67.9185 69.4617L70.1439 74.5682H65.693ZM77.7346 78.5706C77.7346 79.1916 78.2176 79.6747 78.8559 79.6747C79.4597 79.6747 79.96 79.1916 79.96 78.5706V74.4474H85.3943C85.9463 74.4474 86.3949 73.9989 86.3949 73.4296C86.3949 72.8776 85.9463 72.4118 85.3943 72.4118H79.96V68.9787H86.2051C86.7571 68.9787 87.2229 68.5302 87.2229 67.9609C87.2229 67.4088 86.7744 66.9603 86.2051 66.9603H78.8559C78.2176 66.9603 77.7346 67.4433 77.7346 68.0816V78.5706ZM90.7595 78.5706C90.7595 79.1916 91.2425 79.6747 91.8808 79.6747C92.5019 79.6747 92.9849 79.1916 92.9849 78.5706V74.4474H98.4364C98.9885 74.4474 99.437 73.9989 99.437 73.4296C99.437 72.8776 98.9885 72.4118 98.4364 72.4118H92.9849V68.9787H99.2473C99.7993 68.9787 100.248 68.5302 100.248 67.9609C100.248 67.4088 99.7993 66.9603 99.2473 66.9603H91.8981C91.277 66.9603 90.7767 67.4433 90.7767 68.0816V78.5706H90.7595ZM103.922 78.5706C103.922 79.1916 104.405 79.6747 105.044 79.6747C105.665 79.6747 106.148 79.1916 106.148 78.5706V67.9781C106.148 67.3743 105.665 66.874 105.044 66.874C104.423 66.874 103.922 67.3571 103.922 67.9781V78.5706Z" fill="#003594"/>
<mask id="mask0_823_16068" style="mask-type:luminance" maskUnits="userSpaceOnUse" x="36" y="27" width="5" height="6">
<path d="M38.5562 27.7129C37.3659 27.7129 36.3826 28.679 36.3826 29.8693C36.3653 31.0597 37.3314 32.0603 38.539 32.0603C39.7466 32.0775 40.7299 31.1114 40.7299 29.9038C40.7472 28.7135 39.7811 27.7129 38.5907 27.7129H38.5562Z" fill="white"/>
</mask>
<g mask="url(#mask0_823_16068)">
<path d="M35.624 31.9396L36.5039 26.9712L41.4895 27.851L40.6097 32.8195L35.624 31.9396Z" fill="url(#paint0_linear_823_16068)"/>
</g>
<mask id="mask1_823_16068" style="mask-type:luminance" maskUnits="userSpaceOnUse" x="52" y="0" width="7" height="40">
<path d="M52.6515 39.4963C52.6515 39.479 52.6688 39.4445 52.6688 39.4273C52.5825 38.8925 52.5308 36.529 52.5308 36.4945C52.5308 36.5463 52.5653 39.7896 52.6515 39.4963ZM55.7223 0.507809C55.636 0.507809 55.6533 0.507809 55.5843 0.525061C55.5325 0.542312 55.4635 0.559564 55.4118 0.576815C55.3255 0.594067 55.291 0.611318 55.291 0.611318C55.291 0.611318 55.3428 0.611318 55.4118 0.594067C55.4463 0.594067 55.5153 0.576815 55.567 0.576815C55.636 0.576815 55.705 0.576815 55.7741 0.594067C55.8603 0.594067 55.9293 0.62857 56.0328 0.645821C56.1191 0.680324 56.2226 0.714828 56.3088 0.783834C56.4986 0.904595 56.6539 1.09436 56.8264 1.31863C57.1197 1.78442 57.3094 2.43998 57.4474 3.19905C57.5855 3.95812 57.6372 4.83794 57.6545 5.78678C57.6717 6.73561 57.6545 7.77071 57.6027 8.8748C57.551 9.9789 57.4475 11.1348 57.3439 12.3079C57.2404 13.4982 57.0852 14.7403 56.9299 15.9824C56.7746 17.2418 56.6021 18.5012 56.4124 19.7778C56.2398 21.0371 56.0328 22.3138 55.8431 23.5559C55.636 24.798 55.4463 26.0401 55.222 27.2132C54.9977 28.4035 54.808 29.5421 54.6009 30.629C54.3939 31.7158 54.1869 32.7337 53.9971 33.6825C53.6004 35.5629 53.2553 37.1328 52.9793 38.2369C52.8585 38.7372 52.7378 39.1512 52.6515 39.4273C52.6688 39.5308 52.686 39.5653 52.7033 39.5135C52.824 39.2375 53.0138 38.8235 53.2208 38.2887C53.6349 37.2191 54.1697 35.6837 54.7045 33.8205C54.9805 32.8889 55.2565 31.8711 55.5325 30.7843C55.8086 29.6974 56.0846 28.5588 56.3261 27.3684C56.5676 26.1781 56.8436 24.9705 57.0507 23.7111C57.2749 22.4518 57.482 21.1924 57.6717 19.8985C57.8442 18.6219 57.9995 16.6552 58.1375 15.3786C58.2755 14.1193 58.3618 12.8599 58.448 11.6523C58.5343 10.4447 58.5515 9.27159 58.5343 8.15024C58.5343 7.04614 58.4825 5.97655 58.379 5.01046C58.2928 4.04437 58.1375 3.14729 57.9132 2.37097C57.7062 1.5429 57.2404 1.02536 56.4124 0.611318C56.2916 0.559564 56.1363 0.507809 56.0328 0.490558C55.9638 0.473306 55.8776 0.456055 55.7741 0.456055C55.7741 0.507809 55.7568 0.507809 55.7223 0.507809Z" fill="white"/>
</mask>
<g mask="url(#mask1_823_16068)">
<path d="M46.1821 38.7371L52.686 -0.475586L64.9173 1.56009L58.3962 40.7556L46.1821 38.7371Z" fill="url(#paint1_linear_823_16068)"/>
</g>
<mask id="mask2_823_16068" style="mask-type:luminance" maskUnits="userSpaceOnUse" x="0" y="24" width="23" height="42">
<path d="M15.9225 59.6113C15.9053 59.6285 15.9225 59.6285 15.9225 59.6113C15.9225 59.6113 15.9398 59.594 15.9225 59.6113ZM7.50378 24.6769C7.57278 24.8149 7.65904 25.0219 7.76255 25.298C7.96957 25.8328 8.15933 26.6608 8.19384 27.7132C8.21109 28.7655 8.02132 30.0421 7.62454 31.4568C7.22775 32.8714 6.62395 34.4585 5.89938 36.1837C5.17482 37.8916 4.32949 39.772 3.51867 41.7904C2.70785 43.8261 1.93153 45.9998 1.31048 48.346C0.999948 49.5191 0.758426 50.7267 0.568659 51.9861C0.396144 53.2454 0.309886 54.5566 0.396144 55.9022C0.482402 57.2478 0.741174 58.6624 1.37948 60.0426C1.69001 60.7154 2.10405 61.3882 2.62159 62.0265C3.13914 62.6475 3.76019 63.1996 4.45025 63.6654C4.62277 63.7861 4.79528 63.8896 4.98505 63.9932C5.15757 64.0967 5.34733 64.2002 5.5371 64.2864L5.81313 64.4244L6.12365 64.5625L6.41693 64.6832L6.65845 64.7695C7.43477 65.0627 8.2801 65.2698 9.09092 65.356C10.7471 65.5458 12.4032 65.356 13.9386 64.873C15.474 64.3899 16.8714 63.5619 17.9755 62.4405C18.1135 62.3025 18.2342 62.1472 18.3722 62.0092C18.5103 61.854 18.6655 61.6469 18.7345 61.5434L18.8898 61.3192L19.0278 61.0949C19.1141 60.9396 19.2176 60.8016 19.3038 60.6464C19.6489 60.0426 19.9249 59.4042 20.1491 58.7832C20.5804 57.5238 20.7875 56.2817 20.8737 55.0741C20.96 53.8838 20.9255 52.7279 20.8565 51.6411C20.7012 49.4329 20.3562 47.4317 20.0801 45.603C20.0111 45.1545 19.9421 44.7059 19.8904 44.2747C19.8559 44.0676 19.8386 43.8434 19.8041 43.6363C19.7869 43.4293 19.7524 43.2051 19.7351 42.998C19.6316 42.1527 19.5453 41.3591 19.4591 40.6001C19.3211 39.1337 19.2693 37.8398 19.5281 36.8392C19.6489 36.3562 19.8559 35.9422 20.1319 35.6489C20.4079 35.3729 20.753 35.2176 21.0462 35.1486C21.3395 35.0796 21.5983 35.0796 21.7535 35.0796C21.9088 35.0796 22.0123 35.0968 22.0123 35.0968C22.0123 35.0968 21.9261 35.0623 21.7708 35.0278C21.6155 34.9933 21.3568 34.9416 21.0117 34.9416C20.6839 34.9588 20.2354 35.0278 19.8214 35.3211C19.4073 35.5971 19.0451 36.0629 18.8035 36.5977C18.3032 37.6673 18.079 39.0474 17.9927 40.6001C17.941 41.3764 17.941 42.1872 17.9065 43.0153C17.9065 43.2223 17.8892 43.4466 17.8892 43.6536C17.8892 43.8779 17.8892 44.1021 17.8719 44.3264C17.8719 44.7749 17.8719 45.2407 17.8892 45.7238C17.9237 47.6042 18.0445 49.6054 17.9927 51.6756C17.941 53.7285 17.7339 55.8677 16.9576 57.7654C16.7506 58.2484 16.5263 58.6969 16.2503 59.1282C16.1813 59.2317 16.1123 59.3352 16.0433 59.4388L15.9398 59.594V59.6113L15.9053 59.663L15.8363 59.7493C15.7328 59.8873 15.681 59.9218 15.612 60.008C15.5257 60.0943 15.4567 60.1806 15.3705 60.2496C14.6804 60.8879 13.7661 61.3882 12.7655 61.6987C11.7649 61.992 10.6608 62.0782 9.62571 61.9575C9.10817 61.8885 8.60787 61.7677 8.12483 61.5779L7.90056 61.4917C7.83155 61.4572 7.79705 61.4399 7.72805 61.4227L7.57278 61.3537L7.40027 61.2674C7.27951 61.2157 7.176 61.1467 7.07249 61.0776C6.96898 61.0259 6.84822 60.9569 6.76196 60.8879C5.95114 60.3358 5.33008 59.6113 4.89879 58.6969C4.48476 57.7999 4.22598 56.7475 4.12247 55.6779C4.01897 54.5911 4.05347 53.4525 4.13973 52.3311C4.24324 51.2098 4.433 50.0884 4.64002 48.9843C5.08856 46.7761 5.65786 44.6369 6.27892 42.6013C6.88272 40.5656 7.50378 38.6334 8.03857 36.8047C8.55612 34.9588 8.93565 33.2682 9.10817 31.6983C9.29794 30.1456 9.22893 28.7483 8.98741 27.6614C8.76314 26.5401 8.33185 25.7465 8.00407 25.229C7.91781 25.0909 7.84881 24.9874 7.76255 24.9012C7.69354 24.8149 7.64179 24.7287 7.59003 24.6769C7.48652 24.5561 7.43477 24.5044 7.43477 24.5044C7.43477 24.5044 7.43477 24.5389 7.50378 24.6769Z" fill="white"/>
</mask>
<g mask="url(#mask2_823_16068)">
<path d="M-6.31445 64.4416L0.913938 20.9678L28.6717 25.5739L21.4433 69.0478L-6.31445 64.4416Z" fill="url(#paint2_linear_823_16068)"/>
</g>
<mask id="mask3_823_16068" style="mask-type:luminance" maskUnits="userSpaceOnUse" x="21" y="34" width="24" height="28">
<path d="M21.5812 35.0278C21.6502 35.0451 21.7192 35.0623 21.8055 35.1141C21.8917 35.1486 21.9952 35.1831 22.0988 35.2521C22.53 35.4936 23.0648 35.9767 23.4271 36.753C23.7894 37.5293 23.9792 38.5471 23.9964 39.7375C24.0137 40.324 23.9792 40.9624 23.9274 41.6179C23.8584 42.2907 23.7722 42.9808 23.6686 43.7399C23.4616 45.2407 23.3064 46.8624 23.2719 48.6048C23.2374 50.3472 23.2891 52.1931 23.6341 54.1425C23.8067 55.1086 24.0654 56.1092 24.4622 57.1098C24.8762 58.0931 25.4628 59.1282 26.4461 60.008C26.9464 60.4393 27.533 60.8361 28.2058 61.0949C28.5336 61.2329 28.8959 61.3364 29.2409 61.4054C29.6032 61.4744 29.9482 61.5089 30.345 61.5262C30.9833 61.5434 31.6561 61.5089 32.2944 61.3882C32.9327 61.2847 33.571 61.0949 34.1748 60.8706C35.3824 60.4048 36.452 59.732 37.3664 58.973C38.2979 58.2139 39.057 57.3686 39.7298 56.4887C40.4026 55.6089 40.9719 54.6946 41.455 53.7802C41.9553 52.8659 42.3521 51.9171 42.6971 51.0028C43.3871 49.1396 43.8357 47.2764 44.0772 45.4995C44.3015 43.7226 44.3187 41.9974 44.0772 40.4103C44.0427 40.2033 44.0082 40.0135 43.9737 39.8065C43.9219 39.6167 43.8874 39.3925 43.8357 39.2372C43.7322 38.8404 43.6114 38.4609 43.4389 38.0986C43.0939 37.374 42.6281 36.7185 42.007 36.2354C41.4032 35.7524 40.6787 35.4419 39.9886 35.3384C39.3158 35.2348 38.6947 35.3211 38.1944 35.4591C37.1766 35.7351 36.5728 36.2182 36.176 36.546C35.9862 36.7012 35.8482 36.8392 35.762 36.9255C35.6757 37.0118 35.624 37.0635 35.624 37.0635C35.624 37.0635 35.6757 37.029 35.7965 36.9773C35.9172 36.9255 36.0897 36.8392 36.314 36.7357C36.5383 36.6322 36.8316 36.5287 37.1766 36.4252C37.5216 36.3217 37.9184 36.2354 38.3497 36.2354C38.781 36.2182 39.2468 36.2872 39.6781 36.4425C40.1094 36.615 40.5234 36.891 40.8339 37.2705C41.1617 37.6501 41.386 38.1504 41.524 38.7024C41.593 38.9784 41.6447 39.2717 41.662 39.5822C41.6792 39.772 41.6965 39.91 41.6965 40.0825C41.6965 40.255 41.6965 40.4276 41.6965 40.6001C41.6965 41.9802 41.4722 43.5156 41.1099 45.1027C40.7477 46.6899 40.2129 48.346 39.5228 49.9849C38.8327 51.6238 37.9702 53.2627 36.8661 54.7291C36.314 55.4536 35.7102 56.1437 35.0374 56.7475C34.3646 57.3341 33.6228 57.8344 32.8465 58.1966C32.4497 58.3692 32.0356 58.5072 31.6216 58.6107C31.2076 58.7142 30.7763 58.7832 30.3277 58.7832C30.207 58.7832 30 58.7832 29.8274 58.7487C29.6549 58.7142 29.4824 58.6797 29.3271 58.6279C28.9994 58.5244 28.6888 58.3519 28.3956 58.1276C27.809 57.6618 27.3087 56.9718 26.9119 56.1955C26.5151 55.4191 26.2219 54.5738 25.9976 53.7112C25.5318 51.9861 25.2903 50.2437 25.1523 48.5703C25.0143 46.8969 24.9453 45.2925 24.9453 43.8261C24.928 43.0843 24.9625 42.3597 24.9453 41.6697C24.928 40.9796 24.8762 40.324 24.79 39.703C24.6175 38.4781 24.2897 37.4085 23.7894 36.615C23.2891 35.8214 22.6508 35.3729 22.1678 35.1831C22.047 35.1313 21.9435 35.0968 21.84 35.0796C21.7537 35.0451 21.6675 35.0278 21.5985 35.0106C21.4604 34.9761 21.4087 34.9761 21.4087 34.9761C21.4087 34.9761 21.4604 34.9761 21.5812 35.0278Z" fill="white"/>
</mask>
<g mask="url(#mask3_823_16068)">
<path d="M17.0952 60.8364L22.0119 31.25L48.6483 35.6664L43.7316 65.2528L17.0952 60.8364Z" fill="url(#paint3_linear_823_16068)"/>
</g>
<mask id="mask4_823_16068" style="mask-type:luminance" maskUnits="userSpaceOnUse" x="35" y="0" width="22" height="63">
<path d="M55.6877 0.507648C55.5324 0.524899 55.3599 0.542151 55.0667 0.697415C54.4974 0.973439 53.7038 1.59449 53.0137 2.54333C52.6687 3.00912 52.3409 3.57842 52.0821 4.21673C51.9614 4.54451 51.8406 4.88954 51.7544 5.25182C51.6681 5.59685 51.5818 5.94188 51.4956 6.32141C51.4093 6.6837 51.3058 7.06323 51.2196 7.46002C51.1161 7.8568 51.0298 8.25359 50.9608 8.68487C50.8055 9.5302 50.6503 10.4273 50.4777 11.3589C50.357 12.2904 50.219 13.2565 50.0982 14.2571C49.9775 15.2577 49.9084 16.2928 49.8222 17.3624C49.7359 18.432 49.7014 19.5361 49.6324 20.6574C49.5807 21.7788 49.5807 22.9174 49.5462 24.0905C49.5289 26.4194 49.5462 28.8174 49.6152 31.2499C49.6497 32.4575 49.6842 33.6823 49.7187 34.9072C49.7532 36.1321 49.8049 37.3569 49.8222 38.5818C49.9084 41.0315 49.9257 38.9786 49.9257 41.3765C49.9429 41.9803 49.9084 42.5669 49.8912 43.1707C49.8912 43.7572 49.8739 43.6537 49.8567 44.2403C49.8049 45.4134 49.7359 46.5692 49.6842 47.6906C49.5979 48.8292 49.5117 49.9505 49.3909 51.0201C49.2701 52.0552 49.0804 53.0731 48.8388 54.0219C48.3386 55.9541 47.4932 57.6447 46.3201 58.9041C46.1821 59.0594 46.0268 59.2146 45.8716 59.3526L45.7508 59.4734L45.6991 59.5251L45.6646 59.5596C45.5611 59.6287 45.4748 59.6977 45.3885 59.7667C44.9918 60.0944 44.7157 60.2497 44.3707 60.4567C43.6806 60.8708 42.9561 61.095 42.2315 61.2158C41.5242 61.3193 40.7996 61.3193 40.1613 61.1985C39.9888 61.1813 39.8335 61.1468 39.6783 61.095C39.523 61.0605 39.3678 61.026 39.2297 60.9743C38.9365 60.8708 38.6604 60.7845 38.4017 60.6637C37.3838 60.2152 36.6248 59.7149 36.1417 59.3526C35.6587 58.9731 35.3999 58.7661 35.3999 58.7661C35.3999 58.7661 35.4517 58.8351 35.5379 58.9558C35.6414 59.0766 35.7794 59.2664 35.9865 59.4906C36.1935 59.7149 36.435 60.0082 36.78 60.3015C36.9353 60.4567 37.1251 60.612 37.3321 60.7845C37.5391 60.957 37.7634 61.1123 38.0394 61.2676C38.2809 61.4401 38.5742 61.5781 38.8675 61.7506C39.0227 61.8196 39.1952 61.8886 39.3505 61.9576C39.523 62.0266 39.6783 62.0956 39.8681 62.1474C40.5926 62.4062 41.4379 62.5442 42.3695 62.5269C43.3011 62.5097 44.3017 62.3199 45.2333 61.9231C45.6991 61.7161 46.2511 61.4401 46.6134 61.2158C46.7169 61.1468 46.8204 61.095 46.9239 61.026L46.9584 61.0088L46.9757 60.9915C46.9584 61.0088 47.0447 60.957 47.0447 60.957L47.1309 60.9053L47.2862 60.7845C47.5105 60.6292 47.7175 60.4567 47.9245 60.2842C49.5979 58.8696 50.8228 56.9029 51.5991 54.7465C51.9959 53.6769 52.2892 52.5555 52.5307 51.3824L52.6169 50.9684C52.6514 50.8131 52.6687 50.6924 52.6859 50.5371C52.7204 50.2438 52.7722 49.9678 52.824 49.6918C52.9102 49.1225 52.9965 48.5359 53.0827 47.9494C53.238 46.7763 53.3242 45.5859 53.445 44.3783C53.514 43.1707 53.6175 42.6531 53.652 41.411C53.7383 38.9613 53.721 40.9625 53.6693 38.4783C53.6003 35.9941 53.4795 33.5271 53.3415 31.0946C53.2035 28.6794 53.0827 26.2987 52.9447 24.0042C52.893 22.8484 52.8412 21.727 52.7894 20.6229C52.7549 19.5188 52.7204 18.4492 52.6859 17.3969C52.6687 16.3446 52.6687 15.3267 52.6514 14.3434C52.6687 13.36 52.6687 12.4112 52.6859 11.4796C52.7204 10.5653 52.7722 9.70271 52.8067 8.87464C52.9275 6.25241 52.7722 2.68134 55.2392 0.86993C55.4807 0.697415 55.6532 0.576654 55.8085 0.524899C55.8775 0.507648 56.05 0.507648 56.05 0.507648C56.05 0.507648 55.9465 0.473145 55.8085 0.473145C55.7222 0.507648 55.705 0.507648 55.6877 0.507648Z" fill="white"/>
</mask>
<g mask="url(#mask4_823_16068)">
<path d="M25.3071 60.9226L35.8996 -2.82178L66.0035 2.18117L55.4283 65.9083L25.3071 60.9226Z" fill="url(#paint4_linear_823_16068)"/>
</g>
<mask id="mask5_823_16068" style="mask-type:luminance" maskUnits="userSpaceOnUse" x="8" y="69" width="5" height="5">
<path d="M10.3678 69.0479C9.17741 69.0479 8.19408 70.0139 8.19408 71.2043C8.17682 72.4119 9.14291 73.3952 10.3505 73.3952C11.5581 73.4125 12.5415 72.4464 12.5415 71.2388C12.5415 70.0484 11.5754 69.0651 10.3678 69.0479Z" fill="white"/>
</mask>
<g mask="url(#mask5_823_16068)">
<path d="M7.41748 73.2746L8.29731 68.3062L13.283 69.186L12.4032 74.1717L7.41748 73.2746Z" fill="url(#paint5_linear_823_16068)"/>
</g>
<mask id="mask6_823_16068" style="mask-type:luminance" maskUnits="userSpaceOnUse" x="2" y="69" width="5" height="5">
<path d="M4.79501 69.0479C3.60466 69.0479 2.62132 70.0139 2.62132 71.2043C2.60407 72.4119 3.57016 73.3952 4.77776 73.3952C5.98537 73.4125 6.96871 72.4464 6.96871 71.2388C6.98596 70.0484 6.01987 69.0651 4.79501 69.0479Z" fill="white"/>
</mask>
<g mask="url(#mask6_823_16068)">
<path d="M1.86279 73.2746L2.74262 68.3062L7.72831 69.186L6.84849 74.1717L1.86279 73.2746Z" fill="url(#paint6_linear_823_16068)"/>
</g>
<mask id="mask7_823_16068" style="mask-type:luminance" maskUnits="userSpaceOnUse" x="52" y="35" width="18" height="28">
<path d="M68.2985 35.8905C67.9534 36.0286 67.6257 36.2183 67.3151 36.4598C66.7286 36.9084 66.2455 37.4604 65.8488 38.0297C65.452 38.599 65.1069 39.1856 64.8137 39.8066C64.5204 40.4104 64.2789 41.0142 64.0718 41.6353C63.8476 42.2564 63.6751 42.8774 63.5198 43.4985C63.3645 44.1195 63.2265 44.7233 63.1058 45.3444L62.916 46.2242L62.8125 46.7245C62.778 46.897 62.7607 47.0695 62.7262 47.2421C62.6227 47.8976 62.571 48.5359 62.5192 49.157C62.4157 50.3991 62.3122 51.6067 62.1914 52.797C62.1224 53.4009 62.0362 53.9701 61.9499 54.5567C61.8464 55.1433 61.7429 55.7126 61.5876 56.2646C61.4496 56.8167 61.2771 57.3514 61.0528 57.8517C60.8286 58.3348 60.5698 58.8006 60.2765 59.1629C59.966 59.5251 59.621 59.8012 59.1897 59.9564C58.9999 60.0254 58.7756 60.0772 58.5686 60.1117C58.2581 60.1462 57.9476 60.1289 57.637 60.0599C57.3092 59.9909 57.0505 59.7839 56.7917 59.5769C56.6019 59.4389 56.4122 59.2836 56.2396 59.1111C56.0671 58.9558 55.8946 58.7661 55.7394 58.5936C55.5668 58.4038 55.4116 58.214 55.2736 58.0243C55.1183 57.8345 54.9803 57.6275 54.8423 57.4205C54.7043 57.2134 54.5663 57.0064 54.4455 56.7822C54.3247 56.5579 54.1867 56.3509 54.0832 56.1266C53.8417 55.6781 53.6347 55.2123 53.4449 54.7465C53.2551 54.2807 53.0826 53.7976 52.9101 53.3146C52.7548 52.8316 52.5996 52.3485 52.4616 51.8482C52.3236 51.3479 52.2028 50.8649 52.082 50.3473V51.1236L52.1165 51.9C52.1338 52.1587 52.151 52.4175 52.1855 52.6763C52.2028 52.9351 52.2545 53.1938 52.2718 53.4526L52.3926 54.2289C52.4443 54.4877 52.4961 54.7465 52.5478 55.0052C52.6686 55.5228 52.8066 56.0231 52.9791 56.5234C53.3241 57.5412 53.7727 58.5246 54.411 59.4734C54.5663 59.6977 54.7388 59.9219 54.9285 60.1634C55.1183 60.3877 55.3081 60.5947 55.5323 60.819C55.7566 61.026 55.9809 61.233 56.2396 61.4228C56.3604 61.5263 56.4984 61.6126 56.6537 61.6988C56.7227 61.7333 56.8089 61.7851 56.878 61.8368C57.1022 61.9404 57.3092 62.0094 57.5508 62.0611C58.3271 62.1991 59.1207 62.2164 59.897 62.0266C60.7768 61.8196 61.5704 61.3538 62.1742 60.8018C62.778 60.2497 63.2265 59.6287 63.5888 58.9903C63.9511 58.3693 64.2271 57.731 64.4514 57.0927C64.9172 55.8161 65.1932 54.5394 65.4175 53.2801C65.6417 52.0207 65.7797 50.7614 65.935 49.5365C66.0213 48.9327 66.073 48.3116 66.1593 47.7596C66.1765 47.6216 66.211 47.4836 66.2283 47.3456L66.2628 47.1558L66.3145 46.9315C66.4008 46.6037 66.4526 46.2932 66.5043 45.9827C66.6251 45.3616 66.7113 44.7578 66.7976 44.154L67.0564 42.3599C67.1599 41.7733 67.2289 41.1868 67.3324 40.6002C67.3841 40.3069 67.4359 40.0137 67.5049 39.7376C67.5567 39.4444 67.6257 39.1683 67.6947 38.8751C67.8327 38.3058 68.0052 37.7537 68.2295 37.2362C68.471 36.7014 68.7815 36.2011 69.3681 35.8043C69.3336 35.8043 69.2991 35.8043 69.2646 35.8043C68.9713 35.6663 68.6263 35.7525 68.2985 35.8905Z" fill="white"/>
</mask>
<g mask="url(#mask7_823_16068)">
<path d="M47.7866 61.3879L52.5308 32.8711L73.6639 36.3904L68.937 64.9072L47.7866 61.3879Z" fill="url(#paint7_linear_823_16068)"/>
</g>
<mask id="mask8_823_16068" style="mask-type:luminance" maskUnits="userSpaceOnUse" x="64" y="35" width="12" height="26">
<path d="M69.8172 35.5622C69.5584 35.6312 69.4032 35.6829 69.4032 35.6829C69.4032 35.6829 69.5584 35.6657 69.8172 35.6312C70.0932 35.6312 70.49 35.6312 70.9386 35.8209C71.3871 36.0107 71.8356 36.373 72.2324 36.8905C72.612 37.4081 72.9225 38.0636 73.1985 38.8055C73.4573 39.5473 73.6643 40.3926 73.8196 41.2724C73.9748 42.1695 74.0783 43.1183 74.1474 44.1017C74.2164 45.085 74.2336 46.1029 74.2164 47.1552C74.1991 48.1903 74.1301 49.2426 74.0093 50.295C73.9058 51.3473 73.7506 52.3824 73.5263 53.4003C73.302 54.4008 73.0433 55.4014 72.681 56.2985C72.3187 57.2128 71.8874 58.0582 71.3181 58.731C70.7488 59.4038 70.0242 59.8351 69.2479 59.9041C68.8684 59.9386 68.4889 59.8696 68.1266 59.7833C67.9541 59.7143 67.7815 59.6626 67.609 59.5936C67.4538 59.5245 67.2812 59.4555 67.1432 59.3693C66.5394 59.0588 66.0736 58.6792 65.6768 58.3859C65.4871 58.2307 65.3318 58.0754 65.1766 57.9547C65.0385 57.8339 64.9178 57.7131 64.8143 57.6269C64.6245 57.4544 64.521 57.3509 64.521 57.3509C64.521 57.3509 64.6073 57.4544 64.7625 57.6614C64.9178 57.8684 65.1593 58.1617 65.5043 58.524C65.8666 58.869 66.2807 59.3175 66.8845 59.7143C67.0225 59.8178 67.195 59.9041 67.3675 60.0076C67.54 60.1111 67.7298 60.1801 67.9195 60.2664C68.3163 60.4216 68.7821 60.5251 69.2824 60.5424C69.7827 60.5424 70.3175 60.4216 70.7833 60.1974C71.2491 59.9731 71.6804 59.6453 72.0427 59.2658C72.7672 58.524 73.302 57.6096 73.7333 56.6435C74.1646 55.6775 74.4924 54.6596 74.7339 53.59C74.9754 52.5377 75.1479 51.4508 75.286 50.3812C75.3895 49.2944 75.4412 48.2075 75.4585 47.1379C75.4757 46.0684 75.3895 45.016 75.286 43.9982C75.1824 42.9803 74.9927 42.0142 74.7684 41.0827C74.5441 40.1683 74.2509 39.3058 73.9058 38.5467C73.5608 37.7876 73.1468 37.1148 72.6465 36.5973C72.1634 36.0797 71.5941 35.7174 71.0593 35.5794C70.8178 35.5104 70.6108 35.4932 70.4038 35.4932C70.1622 35.5104 69.9552 35.5449 69.8172 35.5622Z" fill="white"/>
</mask>
<g mask="url(#mask8_823_16068)">
<path d="M60.4668 59.8872L64.8142 33.7339L79.4952 36.1836L75.1651 62.3369L60.4668 59.8872Z" fill="url(#paint8_linear_823_16068)"/>
</g>
<mask id="mask9_823_16068" style="mask-type:luminance" maskUnits="userSpaceOnUse" x="32" y="35" width="11" height="23">
<path d="M37.0732 35.7181C36.6419 35.9251 36.2279 36.1666 35.8484 36.4771C35.7621 36.5461 35.6413 36.6324 35.5723 36.7014C35.4861 36.7877 35.4171 36.8394 35.3136 36.9429C35.141 37.1154 34.9685 37.288 34.796 37.4605C34.1577 38.2023 33.6402 39.0476 33.2434 39.9619C32.8638 40.859 32.6051 41.8251 32.4325 42.7739C32.26 43.7228 32.1738 44.6889 32.122 45.6204C32.0875 46.552 32.0703 47.4836 32.122 48.3807C32.191 49.2778 32.26 50.1403 32.398 50.9512C32.5361 51.762 32.6913 52.5211 32.8983 53.2111C33.0881 53.9012 33.3124 54.5395 33.5194 55.0743C33.6402 55.3331 33.7437 55.5918 33.8472 55.8334C33.9679 56.0576 34.0714 56.2646 34.175 56.4544C34.382 56.8339 34.5545 57.11 34.6752 57.2997C34.796 57.4895 34.865 57.593 34.865 57.593C34.865 57.593 34.8305 57.4895 34.7443 57.2652C34.658 57.0582 34.5545 56.7477 34.4337 56.3509C34.313 55.9541 34.175 55.4711 34.0369 54.919C33.9162 54.3497 33.7609 53.7287 33.6747 53.0386C33.5711 52.3485 33.4676 51.5895 33.4159 50.8132C33.3641 50.0196 33.3124 49.1915 33.2951 48.3117C33.2951 47.4491 33.2951 46.552 33.3641 45.6377C33.4159 44.7234 33.5194 43.809 33.6574 42.912C33.8127 42.0149 34.0369 41.1178 34.3647 40.2897C34.6752 39.4617 35.1065 38.6853 35.6413 38.0125C35.7793 37.84 35.9174 37.6847 36.0554 37.5295C36.1071 37.4605 36.2106 37.3742 36.2796 37.3052C36.3659 37.219 36.4349 37.1672 36.5039 37.0982C36.8144 36.8394 37.1422 36.5979 37.4872 36.3909C38.1773 36.0113 38.9364 35.8388 39.6092 35.9423C40.282 36.0458 40.8685 36.3736 41.2826 36.7532C41.6966 37.1499 42.0071 37.5467 42.2142 37.909C42.4212 38.2713 42.5592 38.5646 42.6627 38.7716C42.749 38.9786 42.8007 39.0821 42.8007 39.0821C42.8007 39.0821 42.7835 38.9614 42.7317 38.7543C42.68 38.5301 42.611 38.2195 42.4384 37.8228C42.2832 37.426 42.0417 36.9602 41.6276 36.4771C41.2136 36.0113 40.6098 35.5111 39.7472 35.3213C39.4884 35.2523 39.1951 35.2178 38.9019 35.2178C38.3153 35.2868 37.6598 35.4248 37.0732 35.7181Z" fill="white"/>
</mask>
<g mask="url(#mask9_823_16068)">
<path d="M28.4644 57.0065L32.3632 33.5444L46.406 35.8906L42.5244 59.3355L28.4644 57.0065Z" fill="url(#paint9_linear_823_16068)"/>
</g>
<path d="M55.0317 1.00811C55.0317 1.00811 55.8426 0.318049 56.5326 0.921853C56.5326 0.921853 55.8253 0.0420249 55.0317 1.00811Z" fill="#2A3E8B"/>
<path d="M17.8208 84.5396C17.8208 83.2975 18.7524 82.2969 20.0635 82.2969C20.7018 82.2969 21.1503 82.4694 21.5126 82.7282C21.6161 82.7972 21.7024 82.9352 21.7024 83.1077C21.7024 83.3665 21.4954 83.5735 21.2366 83.5735C21.1158 83.5735 21.0296 83.5217 20.9606 83.4872C20.7018 83.2975 20.4258 83.1767 20.0808 83.1767C19.3562 83.1767 18.8214 83.7805 18.8214 84.5223C18.8214 85.2641 19.3389 85.8852 20.0808 85.8852C20.4775 85.8852 20.7536 85.7644 21.0123 85.5402C21.0813 85.4712 21.1849 85.4367 21.2884 85.4367C21.5299 85.4367 21.7369 85.6437 21.7369 85.8679C21.7369 86.0232 21.6679 86.1267 21.5816 86.213C21.1848 86.558 20.7363 86.7478 20.0462 86.7478C18.7696 86.765 17.8208 85.7817 17.8208 84.5396ZM22.2889 84.5396C22.2889 85.7644 23.2378 86.765 24.5662 86.765C25.8945 86.765 26.8606 85.7644 26.8606 84.5396C26.8606 83.3147 25.9118 82.3141 24.5834 82.3141C23.255 82.2969 22.2889 83.3147 22.2889 84.5396ZM25.8773 84.5396C25.8773 85.2814 25.3425 85.8852 24.5834 85.8852C23.8243 85.8852 23.2723 85.2641 23.2723 84.5223C23.2723 83.7805 23.8071 83.1767 24.5662 83.1767C25.3252 83.1767 25.8773 83.7978 25.8773 84.5396ZM27.7404 86.2647C27.7404 86.5235 27.9475 86.7305 28.2062 86.7305C28.465 86.7305 28.672 86.5235 28.672 86.2647V83.953L30.5697 86.4372C30.6904 86.6098 30.8285 86.7133 31.07 86.7133H31.1045C31.3633 86.7133 31.5875 86.5063 31.5875 86.2302V82.7972C31.5875 82.5384 31.3805 82.3314 31.1217 82.3314C30.863 82.3314 30.6559 82.5384 30.6559 82.7972V85.0226L28.8273 82.6247C28.7065 82.4694 28.5685 82.3486 28.3442 82.3486H28.2407C27.9647 82.3486 27.7577 82.5556 27.7577 82.8317V86.2647H27.7404ZM32.6226 86.2647C32.6226 86.5235 32.8296 86.7305 33.0884 86.7305C33.3472 86.7305 33.5542 86.5235 33.5542 86.2647V83.953L35.4519 86.4372C35.5899 86.6098 35.7106 86.7133 35.9522 86.7133H35.9867C36.2454 86.7133 36.4525 86.5063 36.4525 86.2302V82.7972C36.4525 82.5384 36.2454 82.3314 35.9867 82.3314C35.7279 82.3314 35.5209 82.5384 35.5209 82.7972V85.0226L33.6922 82.6247C33.5715 82.4694 33.4334 82.3486 33.1919 82.3486H33.0884C32.8296 82.3486 32.6054 82.5556 32.6054 82.8317V86.2647H32.6226ZM37.5221 86.213C37.5221 86.489 37.7291 86.6788 38.0051 86.6788H40.4203C40.6446 86.6788 40.8516 86.489 40.8516 86.2647C40.8516 86.0405 40.6618 85.8334 40.4203 85.8334H38.4709V84.9364H40.127C40.3686 84.9364 40.5411 84.7466 40.5411 84.5223C40.5411 84.2808 40.3513 84.091 40.127 84.091H38.4709V83.2285H40.4031C40.6273 83.2285 40.8171 83.0387 40.8171 82.8144C40.8171 82.5729 40.6273 82.4004 40.4031 82.4004H38.0051C37.7291 82.4004 37.5221 82.6074 37.5221 82.8662V86.213ZM41.4899 84.5396C41.4899 85.7817 42.4387 86.765 43.6981 86.765C44.3882 86.765 44.8367 86.558 45.2335 86.2302C45.3197 86.1612 45.3888 86.0405 45.3888 85.8852C45.3888 85.6437 45.1817 85.4539 44.9402 85.4539C44.8367 85.4539 44.7332 85.5057 44.6642 85.5574C44.3882 85.7644 44.1294 85.9024 43.7326 85.9024C42.9908 85.9024 42.4732 85.2814 42.4732 84.5396C42.4732 83.7978 42.9908 83.194 43.7326 83.194C44.0776 83.194 44.3537 83.2975 44.6124 83.5045C44.6814 83.5562 44.7677 83.5907 44.8885 83.5907C45.1472 83.5907 45.3543 83.3837 45.3543 83.1249C45.3543 82.9524 45.268 82.8317 45.1645 82.7454C44.8022 82.4694 44.3709 82.3141 43.7154 82.3141C42.4042 82.2969 41.4899 83.3147 41.4899 84.5396ZM47.2519 86.2475C47.2519 86.5062 47.4589 86.7133 47.735 86.7133C47.9937 86.7133 48.218 86.5062 48.218 86.2475V83.2457H49.1323C49.3739 83.2457 49.5636 83.0559 49.5636 82.8144C49.5636 82.5729 49.3739 82.3831 49.1323 82.3831H46.3548C46.1133 82.3831 45.9235 82.5729 45.9235 82.8144C45.9235 83.0559 46.1133 83.2457 46.3548 83.2457H47.2692V86.2475H47.2519ZM50.3054 86.2475C50.3054 86.5062 50.5125 86.7133 50.7885 86.7133C51.0473 86.7133 51.2543 86.5062 51.2543 86.2475V82.8144C51.2543 82.5556 51.0473 82.3314 50.7885 82.3314C50.5125 82.3314 50.3054 82.5384 50.3054 82.8144V86.2475ZM52.3584 86.2647C52.3584 86.5235 52.5654 86.7305 52.8242 86.7305C53.0829 86.7305 53.29 86.5235 53.29 86.2647V83.953L55.1876 86.4372C55.3084 86.6098 55.4464 86.7133 55.6707 86.7133H55.7052C55.9639 86.7133 56.171 86.5063 56.171 86.2302V82.7972C56.171 82.5384 55.9639 82.3314 55.7052 82.3314C55.4464 82.3314 55.2394 82.5384 55.2394 82.7972V85.0226L53.4107 82.6247C53.29 82.4694 53.1519 82.3486 52.9104 82.3486H52.8414C52.5826 82.3486 52.3584 82.5556 52.3584 82.8317V86.2647ZM57.068 84.5396C57.068 85.8162 57.9996 86.765 59.3452 86.765C59.9836 86.765 60.5011 86.5408 60.8461 86.3337C61.0704 86.1957 61.1739 86.006 61.1739 85.7299V84.6776C61.1739 84.4188 60.9669 84.1945 60.7081 84.1945H59.6213C59.397 84.1945 59.2072 84.3843 59.2072 84.6086C59.2072 84.8328 59.397 85.0226 59.6213 85.0226H60.2596V85.6437C60.0181 85.8162 59.7075 85.9024 59.3625 85.9024C58.6034 85.9024 58.0514 85.3159 58.0514 84.5396C58.0514 83.7978 58.6034 83.194 59.2935 83.194C59.7075 83.194 59.9836 83.2975 60.2423 83.4872C60.3113 83.539 60.3976 83.5907 60.5356 83.5907C60.7944 83.5907 61.0014 83.3837 61.0014 83.1249C61.0014 82.9352 60.8979 82.8144 60.8116 82.7454C60.4148 82.4694 59.9836 82.3314 59.328 82.3314C58.0169 82.2969 57.068 83.3147 57.068 84.5396ZM63.9859 86.2475C63.9859 86.5062 64.1929 86.7133 64.4689 86.7133C64.7277 86.7133 64.9347 86.5062 64.9347 86.2475V84.9536H66.6944V86.2475C66.6944 86.5062 66.9014 86.7133 67.1602 86.7133C67.419 86.7133 67.6432 86.5062 67.6432 86.2475V82.8144C67.6432 82.5556 67.4362 82.3314 67.1602 82.3314C66.9014 82.3314 66.6944 82.5384 66.6944 82.8144V84.091H64.9347V82.8144C64.9347 82.5556 64.7277 82.3314 64.4689 82.3314C64.1929 82.3314 63.9859 82.5384 63.9859 82.8144V86.2475ZM68.6956 86.213C68.6956 86.489 68.9026 86.6788 69.1786 86.6788H71.5938C71.8354 86.6788 72.0251 86.489 72.0251 86.2647C72.0251 86.0405 71.8354 85.8334 71.5938 85.8334H69.6444V84.9364H71.2833C71.5248 84.9364 71.7146 84.7466 71.7146 84.5223C71.7146 84.2808 71.5248 84.091 71.2833 84.091H69.6444V83.2285H71.5593C71.8009 83.2285 71.9906 83.0387 71.9906 82.8144C71.9906 82.5729 71.8009 82.4004 71.5593 82.4004H69.1614C68.9026 82.4004 68.6783 82.6074 68.6783 82.8662V86.213M72.6117 86.075C72.5772 86.144 72.5599 86.213 72.5599 86.282C72.5599 86.5235 72.7497 86.7305 72.9912 86.7305C73.181 86.7305 73.3535 86.627 73.4225 86.4372L73.733 85.7299H75.6307L75.924 86.4027C76.0102 86.5925 76.1655 86.7305 76.3725 86.7305C76.6313 86.7305 76.821 86.5235 76.821 86.282C76.821 86.213 76.8038 86.1612 76.7693 86.0922L75.2684 82.6937C75.1649 82.4521 74.9751 82.3141 74.7164 82.3141H74.6474C74.3886 82.3141 74.1988 82.4521 74.0953 82.6937L72.6117 86.075ZM74.0781 84.8846L74.6819 83.4527L75.2857 84.8846H74.0781ZM77.5974 86.213C77.5974 86.4717 77.8044 86.6788 78.0632 86.6788H80.2886C80.5301 86.6788 80.7199 86.489 80.7199 86.2475C80.7199 86.006 80.5301 85.8162 80.2886 85.8162H78.5462V82.7972C78.5462 82.5384 78.3392 82.3141 78.0632 82.3141C77.8044 82.3141 77.5974 82.5211 77.5974 82.7972V86.213ZM81.824 86.2475C81.824 86.5062 82.031 86.7133 82.307 86.7133C82.5658 86.7133 82.7901 86.5062 82.7901 86.2475V83.2457H83.7044C83.9459 83.2457 84.1357 83.0559 84.1357 82.8144C84.1357 82.5729 83.9459 82.3831 83.7044 82.3831H80.9269C80.6854 82.3831 80.4956 82.5729 80.4956 82.8144C80.4956 83.0559 80.6854 83.2457 80.9269 83.2457H81.8412V86.2475H81.824ZM84.843 86.2475C84.843 86.5062 85.05 86.7133 85.3088 86.7133C85.5676 86.7133 85.7918 86.5062 85.7918 86.2475V84.9536H87.5343V86.2475C87.5343 86.5062 87.7413 86.7133 88.0173 86.7133C88.2761 86.7133 88.5003 86.5062 88.5003 86.2475V82.8144C88.5003 82.5556 88.2933 82.3314 88.0173 82.3314C87.7585 82.3314 87.5343 82.5384 87.5343 82.8144V84.091H85.7918V82.8144C85.7918 82.5556 85.5848 82.3314 85.3088 82.3314C85.05 82.3314 84.843 82.5384 84.843 82.8144V86.2475ZM89.3457 84.5396C89.3457 85.7817 90.2945 86.765 91.5539 86.765C92.2439 86.765 92.7097 86.558 93.0892 86.2302C93.1755 86.1612 93.2445 86.0405 93.2445 85.8852C93.2445 85.6437 93.0375 85.4539 92.796 85.4539C92.6925 85.4539 92.589 85.5057 92.5199 85.5574C92.2439 85.7644 91.9852 85.9024 91.5884 85.9024C90.8465 85.9024 90.329 85.2814 90.329 84.5396C90.329 83.7978 90.8465 83.194 91.5884 83.194C91.9334 83.194 92.2094 83.2975 92.4682 83.5045C92.5372 83.5562 92.6235 83.5907 92.7442 83.5907C93.003 83.5907 93.21 83.3837 93.21 83.1249C93.21 82.9524 93.1237 82.8317 93.0202 82.7454C92.658 82.4694 92.2267 82.3141 91.5711 82.3141C90.2772 82.2969 89.3457 83.3147 89.3457 84.5396ZM93.8828 86.075C93.8483 86.144 93.8311 86.213 93.8311 86.282C93.8311 86.5235 94.0208 86.7305 94.2624 86.7305C94.4521 86.7305 94.6246 86.627 94.6936 86.4372L94.9869 85.7299H96.8846L97.1779 86.4027C97.2641 86.5925 97.4021 86.7305 97.6264 86.7305C97.8852 86.7305 98.0749 86.5235 98.0749 86.282C98.0749 86.213 98.0577 86.1612 98.0232 86.0922L96.5223 82.6937C96.4188 82.4521 96.229 82.3141 95.9703 82.3141H95.9185C95.6597 82.3141 95.47 82.4521 95.3664 82.6937L93.8828 86.075ZM95.3492 84.8846L95.953 83.4527L96.5568 84.8846H95.3492ZM98.8685 86.2475C98.8685 86.5062 99.0755 86.7133 99.3343 86.7133C99.5931 86.7133 99.8173 86.5062 99.8173 86.2475V85.2986H100.576L101.508 86.4717C101.612 86.6098 101.767 86.7133 101.974 86.7133C102.198 86.7133 102.422 86.5408 102.422 86.282C102.422 86.1267 102.353 86.0405 102.267 85.9197L101.594 85.1089C102.129 84.8846 102.457 84.4706 102.457 83.7978V83.7805C102.457 83.3665 102.336 83.0387 102.077 82.7972C101.801 82.5211 101.37 82.3659 100.818 82.3659H99.317C99.0583 82.3659 98.8513 82.5729 98.8513 82.8317V86.2475H98.8685ZM99.8173 84.4706V83.2285H100.766C101.232 83.2285 101.508 83.4355 101.508 83.8495V83.8668C101.508 84.229 101.249 84.4706 100.783 84.4706H99.8173ZM103.354 86.213C103.354 86.489 103.561 86.6788 103.82 86.6788H106.252C106.476 86.6788 106.683 86.489 106.683 86.2647C106.683 86.0405 106.494 85.8334 106.252 85.8334H104.303V84.9364H105.942C106.183 84.9364 106.373 84.7466 106.373 84.5223C106.373 84.2808 106.183 84.091 105.942 84.091H104.303V83.2285H106.235C106.476 83.2285 106.666 83.0387 106.666 82.8144C106.666 82.5729 106.476 82.4004 106.235 82.4004H103.837C103.578 82.4004 103.371 82.6074 103.371 82.8662V86.213" fill="#1CCFC9"/>
</g>
<defs>
<linearGradient id="paint0_linear_823_16068" x1="30.0137" y1="78.261" x2="39.6756" y2="23.5906" gradientUnits="userSpaceOnUse">
<stop stop-color="#C8D75D"/>
<stop offset="0.1353" stop-color="#B0D272"/>
<stop offset="0.4187" stop-color="#74C5A8"/>
<stop offset="0.5602" stop-color="#54BEC5"/>
<stop offset="0.6109" stop-color="#4DA9BB"/>
<stop offset="0.7364" stop-color="#3F7AA6"/>
<stop offset="0.8476" stop-color="#345896"/>
<stop offset="0.9393" stop-color="#2D448C"/>
<stop offset="1" stop-color="#2B3C89"/>
</linearGradient>
<linearGradient id="paint1_linear_823_16068" x1="45.7666" y1="79.1213" x2="53.9601" y2="29.7701" gradientUnits="userSpaceOnUse">
<stop stop-color="#C8D75D"/>
<stop offset="0.1353" stop-color="#B0D272"/>
<stop offset="0.4187" stop-color="#74C5A8"/>
<stop offset="0.5602" stop-color="#54BEC5"/>
<stop offset="0.6109" stop-color="#4DA9BB"/>
<stop offset="0.7364" stop-color="#3F7AA6"/>
<stop offset="0.8476" stop-color="#345896"/>
<stop offset="0.9393" stop-color="#2D448C"/>
<stop offset="1" stop-color="#2B3C89"/>
</linearGradient>
<linearGradient id="paint2_linear_823_16068" x1="7.19185" y1="69.0528" x2="15.4593" y2="19.2562" gradientUnits="userSpaceOnUse">
<stop stop-color="#C8D75D"/>
<stop offset="0.1353" stop-color="#B0D272"/>
<stop offset="0.4187" stop-color="#74C5A8"/>
<stop offset="0.5602" stop-color="#54BEC5"/>
<stop offset="0.6109" stop-color="#4DA9BB"/>
<stop offset="0.7364" stop-color="#3F7AA6"/>
<stop offset="0.8476" stop-color="#345896"/>
<stop offset="0.9393" stop-color="#2D448C"/>
<stop offset="1" stop-color="#2B3C89"/>
</linearGradient>
<linearGradient id="paint3_linear_823_16068" x1="28.8655" y1="72.4058" x2="37.1849" y2="22.2961" gradientUnits="userSpaceOnUse">
<stop stop-color="#C8D75D"/>
<stop offset="0.1353" stop-color="#B0D272"/>
<stop offset="0.4187" stop-color="#74C5A8"/>
<stop offset="0.5602" stop-color="#54BEC5"/>
<stop offset="0.6109" stop-color="#4DA9BB"/>
<stop offset="0.7364" stop-color="#3F7AA6"/>
<stop offset="0.8476" stop-color="#345896"/>
<stop offset="0.9393" stop-color="#2D448C"/>
<stop offset="1" stop-color="#2B3C89"/>
</linearGradient>
<linearGradient id="paint4_linear_823_16068" x1="38.7889" y1="72.9549" x2="46.4578" y2="26.7636" gradientUnits="userSpaceOnUse">
<stop stop-color="#C8D75D"/>
<stop offset="0.1353" stop-color="#B0D272"/>
<stop offset="0.4187" stop-color="#74C5A8"/>
<stop offset="0.5602" stop-color="#54BEC5"/>
<stop offset="0.6109" stop-color="#4DA9BB"/>
<stop offset="0.7364" stop-color="#3F7AA6"/>
<stop offset="0.8476" stop-color="#345896"/>
<stop offset="0.9393" stop-color="#2D448C"/>
<stop offset="1" stop-color="#2B3C89"/>
</linearGradient>
<linearGradient id="paint5_linear_823_16068" x1="10.2132" y1="72.003" x2="19.8812" y2="17.2977" gradientUnits="userSpaceOnUse">
<stop stop-color="#C8D75D"/>
<stop offset="0.1353" stop-color="#B0D272"/>
<stop offset="0.4187" stop-color="#74C5A8"/>
<stop offset="0.5602" stop-color="#54BEC5"/>
<stop offset="0.6109" stop-color="#4DA9BB"/>
<stop offset="0.7364" stop-color="#3F7AA6"/>
<stop offset="0.8476" stop-color="#345896"/>
<stop offset="0.9393" stop-color="#2D448C"/>
<stop offset="1" stop-color="#2B3C89"/>
</linearGradient>
<linearGradient id="paint6_linear_823_16068" x1="4.85468" y1="70.9109" x2="14.524" y2="16.1992" gradientUnits="userSpaceOnUse">
<stop stop-color="#C8D75D"/>
<stop offset="0.1353" stop-color="#B0D272"/>
<stop offset="0.4187" stop-color="#74C5A8"/>
<stop offset="0.5602" stop-color="#54BEC5"/>
<stop offset="0.6109" stop-color="#4DA9BB"/>
<stop offset="0.7364" stop-color="#3F7AA6"/>
<stop offset="0.8476" stop-color="#345896"/>
<stop offset="0.9393" stop-color="#2D448C"/>
<stop offset="1" stop-color="#2B3C89"/>
</linearGradient>
<linearGradient id="paint7_linear_823_16068" x1="56.1447" y1="76.5363" x2="64.4673" y2="26.4072" gradientUnits="userSpaceOnUse">
<stop stop-color="#C8D75D"/>
<stop offset="0.1353" stop-color="#B0D272"/>
<stop offset="0.4187" stop-color="#74C5A8"/>
<stop offset="0.5602" stop-color="#54BEC5"/>
<stop offset="0.6109" stop-color="#4DA9BB"/>
<stop offset="0.7364" stop-color="#3F7AA6"/>
<stop offset="0.8476" stop-color="#345896"/>
<stop offset="0.9393" stop-color="#2D448C"/>
<stop offset="1" stop-color="#2B3C89"/>
</linearGradient>
<linearGradient id="paint8_linear_823_16068" x1="65.0564" y1="77.7684" x2="73.3365" y2="27.8956" gradientUnits="userSpaceOnUse">
<stop stop-color="#C8D75D"/>
<stop offset="0.1353" stop-color="#B0D272"/>
<stop offset="0.4187" stop-color="#74C5A8"/>
<stop offset="0.5602" stop-color="#54BEC5"/>
<stop offset="0.6109" stop-color="#4DA9BB"/>
<stop offset="0.7364" stop-color="#3F7AA6"/>
<stop offset="0.8476" stop-color="#345896"/>
<stop offset="0.9393" stop-color="#2D448C"/>
<stop offset="1" stop-color="#2B3C89"/>
</linearGradient>
<linearGradient id="paint9_linear_823_16068" x1="33.0354" y1="72.9898" x2="41.3304" y2="23.0269" gradientUnits="userSpaceOnUse">
<stop stop-color="#C8D75D"/>
<stop offset="0.1353" stop-color="#B0D272"/>
<stop offset="0.4187" stop-color="#74C5A8"/>
<stop offset="0.5602" stop-color="#54BEC5"/>
<stop offset="0.6109" stop-color="#4DA9BB"/>
<stop offset="0.7364" stop-color="#3F7AA6"/>
<stop offset="0.8476" stop-color="#345896"/>
<stop offset="0.9393" stop-color="#2D448C"/>
<stop offset="1" stop-color="#2B3C89"/>
</linearGradient>
<clipPath id="clip0_823_16068">
<rect width="106" height="87" fill="white" transform="translate(0.63623)"/>
</clipPath>
</defs>
</svg>
