<svg width="131" height="55" viewBox="0 0 131 55" fill="none" xmlns="http://www.w3.org/2000/svg">
<g clip-path="url(#clip0_823_15818)">
<path d="M58.4777 9.96094C59.1042 9.96094 59.7306 9.96094 60.3761 9.96094C60.3761 10.5856 60.3761 11.2103 60.3761 11.8539C60.7256 11.8494 60.7256 11.8494 61.0822 11.8448C63.2845 11.8177 65.4868 11.7971 67.6893 11.7839C68.8215 11.7768 69.9535 11.7673 71.0856 11.7519C72.1793 11.7372 73.273 11.7291 74.3668 11.7256C74.7829 11.7232 75.1989 11.7183 75.6149 11.711C79.5424 11.6445 79.5424 11.6445 81.1423 12.8291C82.2238 13.8816 82.6715 14.8577 82.7162 16.3667C82.7002 17.2657 82.4878 17.8238 82.0721 18.6146C84.5805 18.6397 87.0889 18.6589 89.5975 18.6707C90.7624 18.6763 91.9273 18.6839 93.0922 18.6962C94.2176 18.708 95.343 18.7144 96.4684 18.7172C96.8966 18.7192 97.3248 18.7231 97.7529 18.729C101.285 18.8179 101.285 18.8179 104.258 17.0607C104.353 16.9098 104.449 16.7588 104.548 16.6033C104.652 16.4395 104.756 16.2756 104.863 16.1068C105.493 14.9788 105.759 13.942 105.938 12.6652C106.475 12.6652 107.012 12.6652 107.565 12.6652C107.809 14.7766 107.072 16.3065 105.938 18.0738C104.792 19.3799 103.311 20.4029 101.555 20.6074C101.247 20.6067 100.938 20.6059 100.621 20.6052C100.265 20.6063 99.9087 20.6074 99.542 20.6085C99.1508 20.6057 98.7597 20.6027 98.3686 20.5997C97.9542 20.5995 97.5398 20.5996 97.1254 20.6001C96.0032 20.6003 94.881 20.5955 93.7588 20.5899C92.585 20.5848 91.4112 20.5843 90.2374 20.5834C88.0159 20.5808 85.7943 20.5742 83.5728 20.566C81.0431 20.557 78.5135 20.5525 75.9838 20.5484C70.7812 20.54 65.5787 20.5255 60.3761 20.5076C60.3761 22.2924 60.3761 24.0772 60.3761 25.9162C57.019 25.9406 53.662 25.9605 50.3048 25.9722C48.7458 25.9778 47.1869 25.9855 45.628 25.9978C44.1228 26.0095 42.6176 26.016 41.1123 26.0188C40.5388 26.0208 39.9654 26.0247 39.3919 26.0305C38.5869 26.0384 37.7822 26.0395 36.9771 26.039C36.7415 26.0428 36.5058 26.0467 36.2631 26.0507C34.2934 26.0375 32.9 25.4785 31.4255 24.1753C31.2241 23.9466 31.0228 23.7179 30.8153 23.4823C30.6251 23.2759 30.4349 23.0696 30.239 22.8569C28.7761 20.7662 28.6641 18.673 28.9169 16.1808C29.5434 13.6751 30.8182 12.0874 33.0209 10.7669C34.0428 10.2319 34.8657 10.1984 36.0017 10.2007C36.3437 10.2007 36.6857 10.2007 37.038 10.2007C37.4113 10.2021 37.7846 10.2035 38.1578 10.205C38.5397 10.2055 38.9216 10.2058 39.3035 10.2061C40.308 10.2071 41.3125 10.2098 42.317 10.2128C43.3423 10.2156 44.3675 10.2168 45.3928 10.2182C47.404 10.2211 49.4153 10.2257 51.4265 10.2314C51.4265 10.8561 51.4265 11.4807 51.4265 12.1244C51.216 12.1253 51.0056 12.1263 50.7888 12.1273C48.8017 12.1376 46.8147 12.153 44.8277 12.1741C43.8063 12.1848 42.7849 12.1935 41.7634 12.1976C40.7768 12.2017 39.7904 12.2111 38.804 12.224C38.4284 12.228 38.0527 12.2301 37.6771 12.2303C34.9592 12.1695 34.9592 12.1695 32.7137 13.4765C31.4317 14.7914 30.7959 16.3532 30.6797 18.1752C30.7431 19.8376 31.468 21.3809 32.6046 22.5918C33.9477 23.7337 34.913 23.7964 36.6181 23.8083C36.8536 23.8109 37.0891 23.8136 37.3318 23.8164C38.1124 23.8249 38.8931 23.8316 39.6738 23.8383C40.2142 23.8439 40.7545 23.8495 41.2949 23.8553C42.7189 23.8703 44.143 23.8836 45.567 23.8967C47.2747 23.9126 48.9824 23.9305 50.69 23.9481C53.2859 23.9746 55.8818 23.9987 58.4777 24.0232C58.4777 19.3826 58.4777 14.7421 58.4777 9.96094Z" fill="#167F8B"/>
<path d="M19.9673 2.38867C21.0257 2.81775 21.6854 3.50648 22.4759 4.31547C22.7178 4.56158 22.9597 4.80769 23.209 5.06125C23.3922 5.25019 23.5753 5.43913 23.7641 5.6338C23.3311 6.61286 22.7203 7.36975 22.0521 8.20286C19.0399 12.0891 18.4578 16.4463 18.9895 21.1918C19.801 25.4103 22.2539 29.0667 25.7472 31.5272C28.892 33.6506 31.7667 34.563 35.5179 34.7734C36.2393 34.84 36.2393 34.84 36.5105 35.1104C36.5339 35.4735 36.5395 35.8378 36.537 36.2016C36.5357 36.5297 36.5357 36.5297 36.5343 36.8645C36.5309 37.2093 36.5309 37.2093 36.5274 37.5611C36.5262 37.7921 36.525 38.023 36.5237 38.261C36.5205 38.8333 36.5157 39.4057 36.5105 39.9781C30.3375 40.3575 24.6439 37.7878 20.0181 33.8259C15.8479 29.8819 13.4982 24.4438 13.1269 18.7738C12.9562 12.2109 15.6118 7.12533 19.9673 2.38867Z" fill="#7EB02F"/>
<path d="M4.50852 16.9922C6.29844 16.9922 8.08836 16.9922 9.93252 16.9922C9.99964 17.6169 10.0668 18.2416 10.1359 18.8852C10.9762 25.7464 13.8116 32.0119 19.3317 36.4369C24.5385 40.4653 29.9864 42.1026 36.5101 42.4124C36.5101 44.1972 36.5101 45.982 36.5101 47.8209C34.7362 47.8209 33.1759 47.798 31.459 47.4998C31.1452 47.4455 31.1452 47.4455 30.8251 47.3901C23.9615 46.1326 18.1429 42.9594 13.1869 38.0855C12.9523 37.8551 12.7178 37.6247 12.4761 37.3873C9.2676 34.0582 7.36363 30.2384 5.86452 25.9163C5.76733 25.651 5.67015 25.3857 5.57001 25.1124C5.25012 24.0559 5.06094 22.9983 4.88142 21.9106C4.84506 21.7061 4.80871 21.5017 4.77125 21.291C4.73699 21.0866 4.70273 20.8821 4.66743 20.6715C4.62148 20.4002 4.62148 20.4002 4.5746 20.1234C4.47612 19.0841 4.50852 18.0362 4.50852 16.9922Z" fill="#7EB02F"/>
<path d="M5.59372 31.8659C6.01217 32.5071 6.01217 32.5071 6.45817 33.3363C7.38572 34.9748 8.43475 36.3902 9.66172 37.8153C9.8484 38.0377 10.0351 38.2601 10.2274 38.4892C16.5069 45.7454 25.6087 49.4269 35.0359 50.1704C35.5225 50.1983 36.0091 50.2262 36.5105 50.2549C36.5105 51.9505 36.5105 53.6461 36.5105 55.393C26.6198 55.6438 17.1095 52.1966 9.66172 45.6577C9.28573 45.3366 9.28573 45.3366 8.90215 45.009C5.45575 41.9955 2.74928 38.235 0.440918 34.2997C0.440918 34.1212 0.440918 33.9427 0.440918 33.7588C1.14559 33.3893 1.85188 33.0237 2.55967 32.6602C2.75981 32.5548 2.95995 32.4493 3.16616 32.3407C3.35931 32.2422 3.55246 32.1437 3.75146 32.0423C3.92899 31.9502 4.10652 31.8582 4.28943 31.7633C4.78012 31.5954 4.78012 31.5954 5.59372 31.8659Z" fill="#7EB02F"/>
<path d="M76.1055 32.1366C78.5219 32.1031 78.5219 32.1031 80.9871 32.069C81.4912 32.0591 81.9953 32.0493 82.5147 32.0391C82.9208 32.036 83.3269 32.0332 83.733 32.0309C84.0413 32.0226 84.0413 32.0226 84.3559 32.0142C85.8841 32.0132 87.0298 32.3751 88.3095 33.2183C89.2714 34.2015 89.4718 34.994 89.5299 36.3282C89.4849 37.6965 89.2003 38.411 88.3095 39.4381C88.3878 39.5943 88.4661 39.7505 88.5468 39.9114C88.6475 40.1121 88.7481 40.3129 88.8519 40.5198C88.9456 40.6809 89.0393 40.8419 89.1358 41.0079C89.6316 42.1465 89.5339 43.362 89.3943 44.5762C88.7602 45.9673 87.8141 46.7104 86.4111 47.2805C85.5931 47.416 84.7987 47.4077 83.9713 47.3861C83.7707 47.385 83.57 47.384 83.3632 47.3828C82.6219 47.3772 81.8808 47.3621 81.1396 47.3481C79.4783 47.3258 77.8171 47.3035 76.1055 47.2805C76.1055 42.283 76.1055 37.2855 76.1055 32.1366Z" fill="#1B818D"/>
<path d="M36.5103 3.74121C36.5103 5.43679 36.5103 7.13237 36.5103 8.87933C36.0572 8.90722 35.6042 8.93511 35.1374 8.96384C32.4471 9.22731 30.6924 10.3876 28.9167 12.3949C27.4775 14.8467 26.9873 17.1389 27.2895 19.9669C27.9007 22.2067 28.9824 24.4791 30.9338 25.8317C31.0844 25.9388 31.2351 26.0458 31.3904 26.156C32.5669 26.8512 33.6084 27.0776 34.9679 27.167C35.7314 27.2172 35.7314 27.2172 36.5103 27.2684C36.5103 28.964 36.5103 30.6595 36.5103 32.4065C33.1038 32.4065 30.2436 31.5556 27.5607 29.4318C27.395 29.3101 27.2293 29.1885 27.0586 29.0631C24.3705 26.9673 22.5537 23.5981 22.1367 20.2373C21.9078 15.7567 22.65 12.0359 25.6623 8.6089C28.5764 5.40511 32.1657 3.74121 36.5103 3.74121Z" fill="#7EB030"/>
<path d="M60.1045 13.7476C62.5916 13.717 65.0786 13.6922 67.5659 13.6775C68.7209 13.6705 69.8758 13.6609 71.0307 13.6456C72.1455 13.6309 73.2603 13.6228 74.3752 13.6193C74.8003 13.6168 75.2253 13.6119 75.6503 13.6046C76.2464 13.5948 76.842 13.5934 77.4382 13.5941C77.7772 13.5911 78.1163 13.5881 78.4656 13.585C79.607 13.7925 79.9995 14.2092 80.7157 15.0997C81.0038 15.8941 81.0038 15.8941 80.9869 16.7223C80.4466 17.7228 80.039 18.2538 79.0885 18.8857C78.2699 18.9507 78.2699 18.9507 77.2535 18.9471C76.9755 18.9472 76.9755 18.9472 76.692 18.9473C76.0801 18.9469 75.4682 18.9427 74.8563 18.9385C74.4318 18.9375 74.0074 18.9367 73.5829 18.9362C72.466 18.9341 71.3492 18.9288 70.2324 18.9228C69.0926 18.9173 67.9528 18.9148 66.813 18.9121C64.5768 18.9063 62.3407 18.8968 60.1045 18.8857C60.1045 17.1901 60.1045 15.4945 60.1045 13.7476Z" fill="#E4E3E0"/>
<path d="M96.7168 32.1366C98.5906 32.1143 100.464 32.0919 102.395 32.069C102.982 32.0591 103.568 32.0493 104.173 32.0391C104.645 32.036 105.117 32.0332 105.589 32.0309C105.828 32.0254 106.068 32.0199 106.314 32.0142C108.714 32.0128 110.568 32.8135 112.329 34.4352C113.969 36.1465 114.206 38.2532 114.157 40.5219C113.928 42.7368 112.701 44.443 111.09 45.9284C109.782 46.8729 108.544 47.316 106.938 47.3112C106.707 47.3112 106.476 47.3111 106.238 47.3111C105.998 47.3097 105.757 47.3083 105.51 47.3069C105.287 47.3066 105.064 47.3064 104.834 47.3061C104.004 47.3047 103.174 47.3009 102.344 47.2974C99.5586 47.289 99.5586 47.289 96.7168 47.2805C96.7168 42.283 96.7168 37.2855 96.7168 32.1366ZM98.344 33.7591C98.344 37.6857 98.344 41.6123 98.344 45.6579C99.899 45.6914 101.454 45.7249 103.056 45.7593C103.541 45.7741 104.026 45.7889 104.526 45.8041C106.978 45.8475 108.898 45.759 110.819 44.0354C112.152 42.4072 112.577 40.907 112.53 38.8381C112.322 36.9697 111.39 35.8051 109.973 34.6317C108.634 33.7603 107.404 33.6851 105.839 33.7063C105.553 33.7071 105.553 33.7071 105.262 33.708C104.555 33.7108 103.848 33.7183 103.141 33.7253C101.558 33.7365 99.9749 33.7476 98.344 33.7591Z" fill="#157E8A"/>
<path d="M38.9512 32.1357C40.8496 32.1357 40.8496 32.1357 41.5412 32.5977C41.7538 32.8139 41.9663 33.0301 42.1854 33.2528C42.4296 33.4965 42.6738 33.7401 42.9253 33.9911C43.1852 34.2599 43.4449 34.5288 43.7046 34.7978C43.9751 35.071 44.246 35.3438 44.5173 35.6163C45.2282 36.3324 45.9333 37.054 46.6372 37.7769C47.4841 38.6442 48.3382 39.5045 49.1911 40.366C50.4841 41.6737 51.7678 42.99 53.0536 44.305C53.1431 40.2891 53.2326 36.2733 53.3248 32.1357C53.8617 32.1357 54.3987 32.1357 54.952 32.1357C54.952 37.1332 54.952 42.1307 54.952 47.2797C53.3248 47.2797 53.3248 47.2797 52.6555 46.8074C52.4375 46.5864 52.2195 46.3654 51.9949 46.1378C51.7452 45.8887 51.4956 45.6397 51.2384 45.3831C50.9711 45.1083 50.704 44.8334 50.4369 44.5585C50.1599 44.2792 49.8825 44.0004 49.6048 43.7218C48.8762 42.9891 48.1526 42.2517 47.43 41.5131C46.5612 40.6273 45.6863 39.7474 44.8124 38.8665C43.4867 37.5289 42.169 36.1839 40.8496 34.84C40.7601 38.9451 40.6706 43.0502 40.5784 47.2797C40.0414 47.2797 39.5044 47.2797 38.9512 47.2797C38.9512 42.2822 38.9512 37.2847 38.9512 32.1357Z" fill="#147E8A"/>
<path d="M36.9296 13.4506C37.1361 13.4513 37.3426 13.452 37.5554 13.4527C37.9441 13.4564 37.9441 13.4564 38.3407 13.4601C39.1685 13.4657 39.9963 13.4713 40.8493 13.477C40.8493 16.5112 40.8493 19.5454 40.8493 22.6716C39.9935 22.6939 39.1377 22.7162 38.2559 22.7392C37.8571 22.754 37.8571 22.754 37.4502 22.769C35.8061 22.7896 34.8706 22.545 33.5269 21.5899C32.5352 20.5743 31.9163 19.5372 31.8901 18.088C32.0214 16.412 32.6932 15.348 33.9337 14.2038C34.9256 13.5362 35.7489 13.4427 36.9296 13.4506Z" fill="#0E7A87"/>
<path d="M115.701 32.1357C116.327 32.1357 116.954 32.1357 117.599 32.1357C117.599 34.5453 117.599 36.9548 117.599 39.4373C121.089 39.4373 124.58 39.4373 128.176 39.4373C128.176 37.0278 128.176 34.6183 128.176 32.1357C128.713 32.1357 129.25 32.1357 129.803 32.1357C129.803 37.1332 129.803 42.1307 129.803 47.2797C129.266 47.2797 128.729 47.2797 128.176 47.2797C128.176 45.2271 128.176 43.1746 128.176 41.0598C124.596 41.0598 121.016 41.0598 117.328 41.0598C117.328 43.1124 117.328 45.1649 117.328 47.2797C116.791 47.2797 116.254 47.2797 115.701 47.2797C115.701 42.2822 115.701 37.2847 115.701 32.1357Z" fill="#137D8A"/>
<path d="M113.26 0.496094C113.797 0.496094 114.334 0.496094 114.887 0.496094C114.887 6.56448 114.887 12.6329 114.887 18.8852C116.587 18.8684 118.288 18.8517 120.04 18.8344C120.572 18.8326 121.105 18.8308 121.653 18.829C122.082 18.8218 122.51 18.8142 122.938 18.8059C123.155 18.807 123.373 18.8081 123.597 18.8092C125.244 18.7683 126.348 18.2924 127.633 17.2626C128.135 16.6957 128.135 16.6957 128.413 16.0795C128.569 15.7673 128.569 15.7673 128.728 15.4488C129.078 14.6195 129.326 13.8117 129.532 12.9358C130.069 12.9358 130.606 12.9358 131.159 12.9358C131.038 15.4323 130.34 17.4279 128.464 19.1556C126.77 20.598 124.967 20.583 122.847 20.5605C122.604 20.56 122.36 20.5594 122.109 20.5589C121.204 20.5561 120.3 20.5485 119.396 20.5415C117.371 20.5304 115.346 20.5192 113.26 20.5077C113.26 13.9039 113.26 7.30005 113.26 0.496094Z" fill="#0C7986"/>
<path d="M66.6129 32.6774C67.1588 33.3054 67.1588 33.3054 67.5929 34.1394C67.7565 34.4446 67.9202 34.7498 68.0888 35.0643C68.258 35.3954 68.4271 35.7265 68.5961 36.0577C68.7736 36.3933 68.9519 36.7285 69.1309 37.0633C69.3989 37.5648 69.6664 38.0666 69.9313 38.5698C70.6467 39.9287 71.4116 41.251 72.2064 42.5649C73.1281 44.103 73.9881 45.6553 74.7489 47.2804C73.8667 47.3756 73.8667 47.3756 72.8505 47.2804C72.2644 46.6433 72.2644 46.6433 71.7784 45.7572C71.6891 45.5991 71.5997 45.4411 71.5077 45.2783C71.3201 44.9446 71.1356 44.6091 70.9542 44.272C70.6913 43.7842 70.4203 43.302 70.1454 42.8208C69.616 41.8886 69.0965 40.9516 68.5791 40.0127C68.2305 39.3823 67.8815 38.7521 67.5325 38.1218C67.3729 37.8333 67.2133 37.5447 67.0489 37.2474C66.55 36.3502 66.0425 35.4588 65.5281 34.5704C64.8998 35.3683 64.3916 36.1873 63.8999 37.075C63.6674 37.4925 63.6674 37.4925 63.4302 37.9185C63.2667 38.2136 63.1032 38.5087 62.9348 38.8127C61.7564 40.9257 60.5717 43.0335 59.3414 45.117C59.2291 45.3076 59.1169 45.4982 59.0013 45.6945C58.242 46.9739 58.242 46.9739 57.9345 47.2804C57.3018 47.2915 56.6688 47.2919 56.0361 47.2804C56.1353 47.0992 56.2345 46.918 56.3367 46.7313C57.0414 45.4433 57.7457 44.1551 58.4483 42.8659C59.7173 40.5392 60.9885 38.214 62.2907 35.9056C62.3876 35.7337 62.4846 35.5617 62.5845 35.3846C62.8408 34.932 63.0996 34.4807 63.3585 34.0295C63.5036 33.7733 63.6487 33.5171 63.7982 33.2531C64.5455 32.1026 65.3793 32.3698 66.6129 32.6774Z" fill="#137D8A"/>
<path d="M78.0034 34.0295C79.1764 33.9984 80.3478 33.9715 81.5209 33.9552C81.9194 33.9484 82.3179 33.9392 82.7164 33.9275C83.2907 33.911 83.8646 33.9034 84.4391 33.8974C84.7842 33.8904 85.1294 33.8833 85.4849 33.876C86.65 34.0692 87.0374 34.4774 87.7666 35.3816C87.9562 35.9394 87.9562 35.9394 87.9531 36.4633C87.9597 36.6362 87.9664 36.8091 87.9732 36.9873C87.7109 37.6955 87.3547 38.1652 86.7566 38.6282C85.2924 39.2663 83.542 39.0299 81.9697 38.9817C81.5852 38.9749 81.2006 38.9687 80.8161 38.9632C79.878 38.9495 78.9415 38.9231 78.0034 38.8972C78.0034 37.2908 78.0034 35.6845 78.0034 34.0295Z" fill="#E4E3E0"/>
<path d="M78.0034 40.7897C79.2199 40.7586 80.435 40.7317 81.6516 40.7155C82.0652 40.7087 82.4787 40.6994 82.8922 40.6877C83.4874 40.6713 84.0821 40.6636 84.6775 40.6577C85.0354 40.6506 85.3933 40.6435 85.762 40.6362C86.6818 40.7897 86.6818 40.7897 87.34 41.4149C87.9057 42.3789 87.9439 42.9348 87.7666 44.0349C87.1774 44.7461 86.6963 45.2446 85.8682 45.6574C85.2775 45.6806 84.686 45.6864 84.0948 45.6838C83.7417 45.683 83.3886 45.6821 83.0249 45.6812C82.6505 45.6789 82.2762 45.6766 81.9019 45.6743C81.5255 45.673 81.1491 45.6717 80.7726 45.6706C79.8496 45.6674 78.9265 45.6626 78.0034 45.6574C78.0034 44.0511 78.0034 42.4447 78.0034 40.7897Z" fill="#E4E3E0"/>
<path d="M39.222 15.0993C39.222 17.0626 39.222 19.0259 39.222 21.0487C35.9531 21.1936 35.9531 21.1936 34.9845 20.5754C34.0393 19.6825 33.8378 19.249 33.6963 17.9557C33.8159 16.8226 34.0721 16.426 34.8828 15.6401C36.21 14.7864 37.699 15.0663 39.222 15.0993Z" fill="#E4E3E0"/>
<path d="M92.1064 32.1357C92.6434 32.1357 93.1804 32.1357 93.7336 32.1357C93.7336 37.1332 93.7336 42.1307 93.7336 47.2797C93.1967 47.2797 92.6597 47.2797 92.1064 47.2797C92.1064 42.2822 92.1064 37.2847 92.1064 32.1357Z" fill="#107B88"/>
<path d="M99.4287 21.8599C99.9657 21.8599 100.503 21.8599 101.056 21.8599C101.056 22.3953 101.056 22.9308 101.056 23.4824C100.519 23.4824 99.982 23.4824 99.4287 23.4824C99.4287 22.947 99.4287 22.4115 99.4287 21.8599Z" fill="#147E8A"/>
<path d="M129.532 9.96094C130.069 9.96094 130.606 9.96094 131.159 9.96094C131.159 10.4964 131.159 11.0318 131.159 11.5835C130.622 11.5835 130.085 11.5835 129.532 11.5835C129.532 11.0481 129.532 10.5126 129.532 9.96094Z" fill="#117C88"/>
<path d="M70.4102 7.79736C70.9471 7.79736 71.4841 7.79736 72.0374 7.79736C72.0374 8.33281 72.0374 8.86826 72.0374 9.41993C71.5004 9.41993 70.9634 9.41993 70.4102 9.41993C70.4102 8.88448 70.4102 8.34904 70.4102 7.79736Z" fill="#147E8A"/>
</g>
<defs>
<clipPath id="clip0_823_15818">
<rect width="131" height="55" fill="white"/>
</clipPath>
</defs>
</svg>
