<svg width="283" height="81" viewBox="0 0 283 81" fill="none" xmlns="http://www.w3.org/2000/svg">
<path d="M40.2765 77.3088C40.0657 77.2667 39.897 77.077 39.897 76.9084C39.897 76.6976 40.1711 76.6133 40.8459 76.6133C41.5207 76.6133 41.7948 76.6976 41.7948 76.9084C41.7948 77.1402 41.0989 77.4985 40.7405 77.4353C40.6772 77.4142 40.4663 77.372 40.2765 77.3088Z" fill="#FDF1E3"/>
<path d="M36.7338 77.1403C36.5651 77.0981 36.059 77.0138 35.6373 76.9295C35.089 76.8452 34.8359 76.6976 34.8359 76.4658C34.8359 76.1918 35.0257 76.1497 36.1223 76.2761C36.8392 76.3393 37.5984 76.4026 37.8092 76.4026C38.0623 76.4026 38.2099 76.5501 38.2099 76.8241C38.2099 77.2456 37.7249 77.3299 36.7338 77.1403Z" fill="#FDF1E3"/>
<path d="M43.6929 76.8452C43.6929 76.529 43.8194 76.4026 44.1779 76.4026C44.4309 76.4026 45.1479 76.3393 45.7594 76.2761C46.6662 76.1497 46.856 76.1918 46.856 76.4658C46.856 76.803 46.5186 76.9084 44.7051 77.1613C43.7772 77.2878 43.6929 77.2667 43.6929 76.8452Z" fill="#FDF1E3"/>
<path d="M32.0525 76.2551C31.3566 76.0865 31.6307 75.5596 32.411 75.5596C33.0014 75.5596 33.149 75.6439 33.149 75.9811C33.149 76.4026 32.8538 76.4659 32.0525 76.2551Z" fill="#FDF1E3"/>
<path d="M30.3655 75.8332C29.6696 75.6646 29.9437 75.1377 30.724 75.1377C31.3144 75.1377 31.462 75.222 31.462 75.5592C31.462 75.9808 31.1668 76.044 30.3655 75.8332Z" fill="#FDF1E3"/>
<path d="M28.7207 55.3261C28.7207 55.0099 28.8683 54.9046 29.3322 54.9046C29.6696 54.9046 30.007 54.7781 30.0492 54.6516C30.1125 54.5041 30.1757 54.6938 30.1757 55.0732C30.1968 55.7055 30.1546 55.7476 29.4588 55.7476C28.8683 55.7476 28.7207 55.6633 28.7207 55.3261Z" fill="#FDF1E3"/>
<path d="M80.5532 51.6166C80.1526 51.2372 80.6586 49.2139 81.1437 49.2139C81.3124 49.2139 81.3967 49.3192 81.3334 49.4246C81.2491 49.5722 82.8095 49.6354 85.8461 49.6354C90.3588 49.6354 90.5064 49.6565 90.5064 50.0569C90.5064 50.4574 90.654 50.4785 93.4586 50.4785C96.2843 50.4785 96.4108 50.4995 96.4108 50.9C96.4108 51.3215 96.3265 51.3215 88.6085 51.2794C82.2402 51.2161 80.8063 51.2583 80.7641 51.4901C80.7219 51.6587 80.6376 51.7009 80.5532 51.6166Z" fill="#FDF1E3"/>
<path d="M43.4819 76.8229C43.4819 76.4857 43.6295 76.4014 44.22 76.4014C45.0635 76.4014 45.2533 76.9072 44.4941 77.118C43.6928 77.3287 43.4819 77.2655 43.4819 76.8229Z" fill="#FCE6CB"/>
<path d="M33.4232 76.5704C32.4532 76.3597 32.1369 75.7695 33.0015 75.7695C34.2246 75.7695 35.047 76.0435 35.047 76.4229C35.047 76.8655 34.7939 76.8866 33.4232 76.5704Z" fill="#FCE6CB"/>
<path d="M31.2092 76.0432C30.5134 75.8746 30.7875 75.3477 31.5677 75.3477C32.1582 75.3477 32.3058 75.432 32.3058 75.7692C32.3058 76.1907 32.0105 76.2539 31.2092 76.0432Z" fill="#FCE6CB"/>
<path d="M21.509 71.8073C20.7288 71.3436 20.7709 71.1328 21.6566 71.1328C22.3103 71.1328 22.3946 71.196 22.3946 71.6597C22.3946 72.2709 22.2681 72.292 21.509 71.8073Z" fill="#FCE6CB"/>
<path d="M28.5098 55.3254C28.5098 54.9882 28.6363 54.9249 29.2478 54.946C29.8172 54.9671 29.9859 55.0725 29.9859 55.3676C29.9859 55.6626 29.8172 55.7469 29.2478 55.7469C28.6574 55.7469 28.5098 55.6626 28.5098 55.3254Z" fill="#FCE6CB"/>
<path d="M92.8895 51.1733L89.874 51.089V50.3724V49.6348H93.8806C97.7396 49.6348 97.8872 49.6558 97.8872 50.0563C97.8872 50.4567 98.0348 50.4778 102.632 50.4778C107.229 50.4778 107.376 50.4989 107.376 50.8994C107.376 51.3209 107.25 51.3209 101.641 51.2787C98.4776 51.2576 94.5343 51.1944 92.8895 51.1733Z" fill="#FCE6CB"/>
<path d="M89.5153 50.3721C89.5153 49.9084 89.5574 49.7398 89.5996 50.0138C89.6418 50.2667 89.6418 50.6461 89.5996 50.8569C89.5363 51.0465 89.4942 50.8358 89.5153 50.3721Z" fill="#FCE6CB"/>
<path d="M37.3243 77.0969C36.5652 76.9072 36.9026 76.4014 37.7882 76.4014C38.4841 76.4014 38.6317 76.4646 38.6317 76.8229C38.6317 77.2444 38.21 77.3287 37.3243 77.0969Z" fill="#FBDDB8"/>
<path d="M35.6375 76.8869C34.9416 76.7183 35.2157 76.1914 35.9959 76.1914C36.5864 76.1914 36.734 76.2757 36.734 76.6129C36.734 77.0345 36.4388 77.0977 35.6375 76.8869Z" fill="#FBDDB8"/>
<path d="M20.349 71.0699C19.4634 70.4797 19.4845 70.29 20.3912 70.29C21.066 70.29 21.1293 70.3322 21.1293 70.9223C21.1293 71.2806 21.1082 71.5546 21.0871 71.5336C21.0449 71.5336 20.7075 71.3228 20.349 71.0699Z" fill="#FBDDB8"/>
<path d="M106.49 51.1731C106.28 51.1309 106.111 50.9412 106.111 50.7726C106.111 50.5197 106.912 50.4775 111.066 50.4775C115.874 50.4775 116.022 50.4986 116.022 50.8991C116.022 51.2995 115.895 51.3206 111.446 51.2995C108.915 51.2785 106.68 51.2363 106.49 51.1731Z" fill="#FBDDB8"/>
<path d="M97.2544 50.3724V49.6348H100.839C104.276 49.6348 104.424 49.6558 104.424 50.0563C104.424 50.2881 104.276 50.4778 104.108 50.4778C103.939 50.4778 103.791 50.6254 103.791 50.794C103.791 51.068 103.285 51.1101 100.523 51.1101H97.2544V50.3724Z" fill="#FBDDB8"/>
<path d="M34.1614 76.676C33.4655 76.5074 33.7396 75.9805 34.5199 75.9805C35.1103 75.9805 35.2579 76.0648 35.2579 76.402C35.2579 76.8235 34.9627 76.8868 34.1614 76.676Z" fill="#FAD5A8"/>
<path d="M28.3205 75.0743C26.2328 74.2734 25.79 73.7465 27.3715 73.9362C27.9409 73.9994 28.4259 74.147 28.4681 74.2734C28.5103 74.3999 28.7 74.5053 28.8687 74.5053C29.7122 74.5053 30.8299 75.0111 30.8299 75.3905C30.8299 75.9174 30.387 75.8542 28.3205 75.0743Z" fill="#FAD5A8"/>
<path d="M20.5602 71.1332C19.5059 70.4377 18.5359 69.7211 18.3882 69.5525C18.1563 69.2785 18.2406 69.2363 18.8943 69.2363C19.4215 69.2363 19.6535 69.3206 19.6535 69.5525C19.6535 69.7211 19.8433 69.8686 20.0752 69.8686C20.3494 69.8686 20.497 70.0162 20.497 70.2902C20.497 70.6274 20.6446 70.7117 21.1296 70.7117C21.5513 70.7117 21.7622 70.8171 21.7622 71.0278C21.7622 71.2175 21.952 71.344 22.2894 71.344C22.7111 71.344 22.8166 71.4494 22.8166 71.8709C22.8166 72.166 22.7322 72.3978 22.6479 72.3978C22.5635 72.3978 21.6146 71.8287 20.5602 71.1332Z" fill="#FAD5A8"/>
<path d="M28.2993 55.3252C28.2993 54.9669 28.4258 54.9037 29.0374 54.9669C29.5856 54.988 29.7754 55.1144 29.7754 55.3884C29.7754 55.6624 29.6067 55.7467 29.0374 55.7467C28.4469 55.7467 28.2993 55.6624 28.2993 55.3252Z" fill="#FAD5A8"/>
<path d="M115.136 51.1731C114.926 51.1309 114.757 50.9412 114.757 50.7726C114.757 50.5197 115.6 50.4775 120.029 50.4775C125.153 50.4775 125.3 50.4986 125.3 50.8991C125.3 51.2995 125.174 51.3206 120.408 51.2995C117.709 51.2784 115.326 51.2363 115.136 51.1731Z" fill="#FAD5A8"/>
<path d="M103.159 50.4989C103.159 49.698 103.412 49.6348 107.439 49.6348C110.94 49.6348 110.898 49.6137 110.624 50.6465C110.497 51.1101 110.455 51.1101 106.828 51.1101H103.159V50.4989Z" fill="#FAD5A8"/>
<path d="M24.7774 73.535C23.8707 73.0924 23.8918 72.8184 24.8196 72.8184C25.4733 72.8184 25.5577 72.8816 25.5577 73.3453C25.5577 73.6403 25.5366 73.8722 25.5155 73.8722C25.4733 73.8722 25.1359 73.7036 24.7774 73.535Z" fill="#F9CB94"/>
<path d="M21.298 71.5963C20.5178 71.1326 20.56 70.9219 21.4457 70.9219C22.0994 70.9219 22.1837 70.9851 22.1837 71.4488C22.1837 72.06 22.0572 72.0811 21.298 71.5963Z" fill="#F9CB94"/>
<path d="M16.4905 67.9712L15.7524 67.3599L16.5538 67.3389C17.2918 67.3389 17.334 67.381 17.334 67.9712C17.334 68.3295 17.3129 68.6035 17.2707 68.6035C17.2496 68.6035 16.8912 68.3295 16.4905 67.9712Z" fill="#F9CB94"/>
<path d="M10.9654 61.859L10.375 61.1213L10.9233 61.0581C11.6191 60.9738 11.6824 61.037 11.5981 61.8801L11.5348 62.5967L10.9654 61.859Z" fill="#F9CB94"/>
<path d="M124.415 51.1731C124.204 51.1309 124.035 50.9412 124.035 50.7726C124.035 50.5197 125.005 50.4775 130.256 50.4775C136.329 50.4775 136.477 50.4775 136.477 50.8991C136.477 51.3206 136.35 51.3206 130.635 51.2995C127.409 51.2784 124.605 51.2363 124.415 51.1731Z" fill="#F9CB94"/>
<path d="M109.527 50.4779C109.527 50.0774 109.57 49.9088 109.633 50.1196C109.675 50.3093 109.675 50.6465 109.633 50.8573C109.57 51.047 109.527 50.8783 109.527 50.4779Z" fill="#F9CB94"/>
<path d="M109.949 50.4355L110.012 49.7399L114.188 49.6767C118.278 49.6346 118.342 49.6346 118.342 50.0772C118.342 51.0256 118.004 51.1099 113.808 51.1099H109.886L109.949 50.4355Z" fill="#F9CB94"/>
<path d="M37.7251 80.8071C29.4167 80.1959 21.024 76.8025 14.6135 71.4491C7.7601 65.7163 3.47939 58.9297 1.20197 50.1619C0.253046 46.5157 0 44.4924 0 40.4668C0 36.4412 0.253046 34.4178 1.20197 30.7716C3.47939 22.0038 7.7601 15.2172 14.6135 9.4844C29.733 -3.16147 52.5915 -3.16147 67.7111 9.4844C74.4168 15.0907 78.7819 21.9195 81.0171 30.329C81.8817 33.5537 82.0504 34.5654 82.2824 37.7268C82.4932 40.8251 82.2613 45.1668 81.7341 47.696C81.5443 48.5812 81.3545 49.6982 81.3123 50.1409C81.2702 50.6045 81.1647 51.0261 81.0593 51.0893C80.975 51.1525 80.5743 52.2063 80.1736 53.4288C78.3812 58.8665 75.3658 63.8405 71.317 68.0558C63.9787 75.7066 54.7003 80.0694 44.1145 80.8281C42.4275 80.9335 40.8671 81.0178 40.6351 80.9968C40.4031 80.9968 39.0957 80.8914 37.7251 80.8071ZM45.7804 79.6479C53.4561 78.7627 61.0264 75.5801 66.9098 70.7958C68.9342 69.1518 72.4979 65.3791 73.8686 63.4401C77.4956 58.3185 80.026 51.9956 80.9117 45.8202C81.3124 43.017 81.3124 37.9165 80.9117 35.1133C80.026 28.9379 77.4956 22.615 73.8686 17.4934C72.4979 15.5544 68.9342 11.7817 66.9098 10.1378C59.8877 4.42605 50.1665 0.94844 41.1623 0.94844C32.158 0.94844 22.4368 4.42605 15.4148 10.1378C13.3904 11.7817 9.82665 15.5544 8.45598 17.4934C4.82897 22.615 2.29851 28.9379 1.41284 35.1133C1.01219 37.9165 1.01219 43.017 1.41284 45.8202C2.29851 51.9956 4.82897 58.3185 8.45598 63.4401C9.82665 65.3791 13.3904 69.1518 15.4148 70.7958C22.3946 76.4864 31.7574 79.8586 40.846 79.964C42.0058 79.964 44.2199 79.8376 45.7804 79.6479Z" fill="#C4C5C6"/>
<path d="M19.4422 70.2905L18.7041 69.6793L19.5054 69.6582C20.2435 69.6582 20.2856 69.7004 20.2856 70.2905C20.2856 70.6488 20.2646 70.9228 20.2224 70.9228C20.2013 70.9228 19.8428 70.6488 19.4422 70.2905Z" fill="#F8C07C"/>
<path d="M16.912 68.3517C15.4359 67.0871 15.3938 67.0239 15.942 66.9606C16.8277 66.8552 17.1229 67.0449 17.1229 67.7615C17.1229 68.3517 17.1862 68.3938 17.861 68.3938C18.5358 68.3938 18.599 68.436 18.599 69.0261C18.599 69.3844 18.5779 69.6584 18.5358 69.6584C18.4936 69.6584 17.7766 69.0683 16.912 68.3517Z" fill="#F8C07C"/>
<path d="M13.4957 65.0211L12.9053 64.2834L13.4535 64.2202C14.1494 64.1359 14.2127 64.1991 14.1283 65.0422L14.0651 65.7588L13.4957 65.0211Z" fill="#F8C07C"/>
<path d="M11.5978 62.7027L11.0073 61.9651L11.5556 61.9018C12.2515 61.8175 12.3147 61.8808 12.2304 62.7238L12.1671 63.4404L11.5978 62.7027Z" fill="#F8C07C"/>
<path d="M10.1008 60.6161C9.63686 59.8152 9.63686 59.752 10.2695 59.752C10.7334 59.752 10.7967 59.8363 10.7967 60.4896C10.7967 61.3959 10.5858 61.417 10.1008 60.6161Z" fill="#F8C07C"/>
<path d="M135.591 51.174C135.38 51.1319 135.211 50.9422 135.211 50.7736C135.211 50.5207 136.308 50.4785 142.276 50.4785C149.192 50.4785 149.34 50.4785 149.34 50.9C149.34 51.3216 149.213 51.3216 142.655 51.3005C138.965 51.2794 135.781 51.2373 135.591 51.174Z" fill="#F8C07C"/>
<path d="M117.287 50.6685C117.287 49.699 117.582 49.6357 122.643 49.6357H127.409V50.3734V51.1111H122.348C117.371 51.1111 117.287 51.1111 117.287 50.6685Z" fill="#F8C07C"/>
<path d="M4.80803 47.3806C4.66042 46.664 4.25977 44.1137 4.25977 43.903C4.25977 43.7976 4.42846 43.7344 4.63934 43.7344C4.95564 43.7344 5.06108 44.0294 5.27195 45.4837C5.41956 46.4532 5.525 47.4017 5.525 47.5914C5.525 48.1815 4.93456 47.9918 4.80803 47.3806Z" fill="#F8C07C"/>
<path d="M4.19629 41.1627C4.02759 40.5093 4.23846 39.7295 4.59695 39.7295C4.80782 39.7295 4.89217 40.0035 4.89217 40.6779C4.89217 41.7107 4.40716 42.0268 4.19629 41.1627Z" fill="#F8C07C"/>
<path d="M18.1352 69.3207C17.4604 68.7938 16.9121 68.3091 16.9121 68.2669C16.9121 68.2248 17.2495 68.1826 17.6502 68.1826C18.2406 68.1826 18.3882 68.2669 18.3882 68.6041C18.3882 68.9203 18.5358 69.0257 18.9154 69.0257C19.3582 69.0257 19.4426 69.1311 19.4426 69.658C19.4426 70.0163 19.4215 70.2903 19.4004 70.2903C19.3582 70.2903 18.7889 69.8477 18.1352 69.3207Z" fill="#F7B362"/>
<path d="M13.5382 65.0005C11.6404 62.8085 11.7036 62.9139 12.4628 62.9139C13.0743 62.9139 13.1165 62.956 13.1165 63.6516C13.1165 64.326 13.1797 64.3892 13.728 64.3892C14.5082 64.3892 14.8456 64.8108 14.7613 65.6749L14.698 66.3493L13.5382 65.0005Z" fill="#F7B362"/>
<path d="M10.9024 61.7337C10.0167 60.5534 9.99564 60.3848 10.6915 60.3848C11.0711 60.3848 11.2187 60.4901 11.2187 60.8063C11.2187 61.0381 11.3663 61.2278 11.535 61.2278C11.7459 61.2278 11.8513 61.4597 11.8513 61.9655C11.8513 62.3659 11.8091 62.7032 11.7459 62.7032C11.7037 62.7032 11.3241 62.2606 10.9024 61.7337Z" fill="#F7B362"/>
<path d="M9.46845 59.5624C9.00454 58.7615 9.00454 58.6982 9.63715 58.6982C10.1011 58.6982 10.1643 58.7825 10.1643 59.4359C10.1643 60.3422 9.95346 60.3633 9.46845 59.5624Z" fill="#F7B362"/>
<path d="M6.15772 52.6073C6.15772 52.5019 6.09446 52.2701 6.03119 52.0804C5.94685 51.8275 6.03119 51.7432 6.3475 51.7432C6.6849 51.7432 6.79034 51.8696 6.79034 52.2701C6.79034 52.6073 6.66381 52.797 6.47403 52.797C6.30533 52.797 6.15772 52.7127 6.15772 52.6073Z" fill="#F7B362"/>
<path d="M148.032 51.174C147.822 51.1108 147.653 50.9422 147.653 50.7736C147.653 50.5207 148.876 50.4785 155.771 50.4785C163.785 50.4785 163.89 50.4785 163.89 50.9C163.89 51.3216 163.785 51.3216 156.151 51.3005C151.87 51.2794 148.222 51.2162 148.032 51.174Z" fill="#F7B362"/>
<path d="M126.418 50.3731C126.418 49.9094 126.46 49.7408 126.502 50.0148C126.545 50.2677 126.545 50.6471 126.502 50.8578C126.439 51.0475 126.397 50.8368 126.418 50.3731Z" fill="#F7B362"/>
<path d="M126.776 50.3734V49.6358H132.133C137.889 49.6358 137.742 49.6147 137.742 50.7107C137.742 51.09 137.531 51.1111 132.259 51.1111H126.776V50.3734Z" fill="#F7B362"/>
<path d="M5.01891 48.4342C4.8713 47.7176 4.25977 43.9028 4.25977 43.692C4.25977 43.5867 4.42846 43.5234 4.63934 43.5234C4.93456 43.5234 5.06108 43.9028 5.37739 45.9051C5.56717 47.1907 5.73587 48.4342 5.73587 48.645C5.73587 49.2352 5.14543 49.0665 5.01891 48.4342Z" fill="#F7B362"/>
<path d="M4.25977 37.3689C4.25977 36.7366 4.5339 36.1465 4.80803 36.1465C4.99782 36.1465 5.10325 36.3994 5.10325 36.8842C5.10325 37.4743 5.01891 37.6218 4.68151 37.6218C4.44955 37.6218 4.25977 37.4954 4.25977 37.3689Z" fill="#F7B362"/>
<path d="M15.8577 67.3393L15.1196 66.7281L15.9209 66.707C16.659 66.707 16.7012 66.7492 16.7012 67.3393C16.7012 67.6976 16.6801 67.9716 16.6379 67.9716C16.6168 67.9716 16.2583 67.6976 15.8577 67.3393Z" fill="#F5A443"/>
<path d="M14.3395 65.8639L13.749 65.1262L14.2973 65.063C14.9932 64.9787 15.0564 65.0419 14.9721 65.885L14.9088 66.6016L14.3395 65.8639Z" fill="#F5A443"/>
<path d="M9.57372 59.6674C9.21523 59.0351 8.89893 58.4661 8.89893 58.4028C8.89893 58.3396 9.13089 58.2764 9.42611 58.2764C9.84785 58.2764 9.95329 58.3817 9.95329 58.8033C9.95329 59.1405 10.0798 59.3302 10.2696 59.3302C10.4805 59.3302 10.5859 59.562 10.5859 60.0679C10.5859 60.4683 10.5226 60.8055 10.4172 60.8055C10.3329 60.8055 9.95329 60.2997 9.57372 59.6674Z" fill="#F5A443"/>
<path d="M7.08561 54.7994C6.938 54.399 6.64278 53.7245 6.47409 53.303C6.05234 52.2703 6.07343 51.9541 6.57952 51.9541C6.89583 51.9541 7.00127 52.1016 7.00127 52.481C7.00127 52.7761 7.1067 53.0079 7.21214 53.0079C7.33866 53.0079 7.42301 53.2398 7.42301 53.5348C7.42301 53.8299 7.52845 54.0617 7.63388 54.0617C7.76041 54.0617 7.84476 54.399 7.84476 54.7994C7.84476 55.1999 7.73932 55.5371 7.6128 55.5371C7.50736 55.5371 7.25431 55.1999 7.08561 54.7994Z" fill="#F5A443"/>
<path d="M163.005 51.174C162.794 51.1319 162.625 50.9422 162.625 50.7736C162.625 50.5207 163.574 50.4785 168.635 50.4785C174.497 50.4785 174.645 50.4785 174.645 50.9C174.645 51.3216 174.518 51.3216 169.014 51.3005C165.894 51.2794 163.194 51.2373 163.005 51.174Z" fill="#F5A443"/>
<path d="M136.477 50.6675C136.477 49.6558 136.624 49.6348 143.731 49.6348C150.247 49.6348 150.394 49.6348 150.394 50.0563C150.394 50.3724 150.247 50.4778 149.867 50.4778C149.53 50.4778 149.34 50.6043 149.34 50.794C149.34 51.068 148.475 51.1101 142.908 51.1101C136.54 51.1101 136.477 51.1101 136.477 50.6675Z" fill="#F5A443"/>
<path d="M5.20869 49.1717C5.10325 48.8978 4.25977 43.7762 4.25977 43.4811C4.25977 43.3757 4.42846 43.3125 4.63934 43.3125C4.93456 43.3125 5.06108 43.7129 5.39847 45.7995C5.60935 47.1484 5.84131 48.5184 5.90457 48.8556C5.96783 49.2771 5.90457 49.4247 5.65152 49.4247C5.46174 49.4247 5.25087 49.2982 5.20869 49.1717Z" fill="#F5A443"/>
<path d="M4.25977 37.5799C4.25977 36.9476 4.5339 36.3574 4.80803 36.3574C4.99782 36.3574 5.10325 36.6103 5.10325 37.0951C5.10325 37.6852 5.01891 37.8328 4.68151 37.8328C4.44955 37.8328 4.25977 37.7063 4.25977 37.5799Z" fill="#F5A443"/>
<path d="M4.55498 35.3665C4.97673 32.9427 5.14543 32.3525 5.44065 32.3525C5.79913 32.3525 5.82022 32.753 5.48282 34.6709C5.27195 35.8934 5.16651 36.1463 4.82912 36.1463C4.47064 36.1463 4.44955 36.0409 4.55498 35.3665Z" fill="#F5A443"/>
<path d="M35.9116 76.9077C32.3479 76.423 28.1094 75.1584 25.3891 73.7884C23.0484 72.6081 24.7565 72.5027 27.4557 73.6619C31.3779 75.327 35.1947 76.17 39.8339 76.3386C43.5874 76.4862 46.877 76.0857 50.2931 75.1162C51.474 74.779 52.5916 74.505 52.8025 74.505C52.9923 74.505 53.1821 74.3996 53.2242 74.2732C53.2664 74.1467 53.7514 73.9992 54.3208 73.9359C56.8091 73.6409 54.1943 75.0108 50.1244 76.1068C46.0335 77.2028 40.4665 77.5189 35.9116 76.9077Z" fill="#FF5852"/>
<path d="M56.1343 73.3673C56.1343 72.8826 56.2186 72.8193 56.8723 72.8193C57.99 72.8193 57.8423 73.0933 56.303 73.831C56.1975 73.8732 56.1343 73.6624 56.1343 73.3673Z" fill="#FF5852"/>
<path d="M22.7743 72.461C21.6145 71.8287 21.509 71.5547 22.3947 71.5547C23.3647 71.5547 24.0817 71.9762 24.0817 72.5453C24.0817 73.1565 23.9973 73.1565 22.7743 72.461Z" fill="#FF5852"/>
<path d="M59.2974 71.6597C59.2974 71.196 59.3817 71.1328 60.0354 71.1328C60.9422 71.1328 60.9633 71.3436 60.1619 71.8283C59.3606 72.292 59.2974 72.292 59.2974 71.6597Z" fill="#FF5852"/>
<path d="M35.6797 62.9134C35.6797 62.5761 35.8273 62.4918 36.4177 62.4918C36.8184 62.4918 37.1558 62.4075 37.1558 62.2811C37.1558 62.1757 37.2612 62.0703 37.3667 62.0703C37.4932 62.0703 37.5775 62.3654 37.5775 62.7026C37.5775 63.3138 37.5354 63.3349 36.6286 63.3349C35.8273 63.3349 35.6797 63.2717 35.6797 62.9134Z" fill="#FF5852"/>
<path d="M34.4144 61.712C34.4144 61.2694 34.3511 59.8362 34.2668 58.5506C34.1614 56.4851 34.1825 56.1689 34.4566 56.1689C34.8994 56.1689 34.9838 56.6537 35.1736 59.8152C35.3212 62.4497 35.3001 62.4919 34.8572 62.4919C34.4777 62.4919 34.4144 62.3654 34.4144 61.712Z" fill="#FF5852"/>
<path d="M36.4388 54.3776C36.3755 53.0919 36.249 51.4269 36.1646 50.6471C36.0592 49.3192 36.0803 49.2139 36.4598 49.2139C36.8394 49.2139 36.9027 49.4036 37.0081 50.9632C37.219 53.5345 37.1768 54.6937 36.8605 55.7476L36.5864 56.6749L36.4388 54.3776Z" fill="#FF5852"/>
<path d="M28.0885 55.7687C27.4137 55.6633 27.3505 55.579 27.2872 54.8624C27.245 54.2512 27.2872 54.0615 27.5402 54.0615C27.73 54.0615 27.8776 54.188 27.8776 54.3566C27.8776 54.9678 29.3537 55.305 29.8388 54.8203C30.3238 54.3355 30.4503 54.3987 30.3659 55.1786C30.3027 55.7898 30.2394 55.853 29.5646 55.8741C29.164 55.8952 28.4892 55.853 28.0885 55.7687Z" fill="#FF5852"/>
<path d="M33.9294 54.0189C33.4866 47.6116 33.4866 47.5273 33.8451 47.5273C34.2668 47.5273 34.3301 47.9489 34.6253 51.9745C34.8995 56.0422 34.8995 55.9579 34.4355 55.9579C34.0981 55.9579 34.0349 55.7261 33.9294 54.0189Z" fill="#FF5852"/>
<path d="M190.882 50.9C190.882 50.4785 191.029 50.4785 229.788 50.4785C268.546 50.4785 268.694 50.4785 268.694 50.9C268.694 51.3216 268.546 51.3216 229.788 51.3216C191.029 51.3216 190.882 51.3216 190.882 50.9Z" fill="#FF5852"/>
<path d="M27.0342 50.2677C27.0342 49.3193 27.5192 49.0664 27.7511 49.9094C27.9831 50.7736 27.8988 51.1108 27.4559 51.1108C27.0974 51.1108 27.0342 50.9633 27.0342 50.2677Z" fill="#FF5852"/>
<path d="M37.7886 50.3306C37.7886 49.1081 37.9994 48.792 38.7586 48.792C39.5388 48.792 39.7708 49.2978 39.0749 49.4875C38.8429 49.5507 38.611 49.8458 38.5266 50.2463C38.3579 51.0683 37.7886 51.1315 37.7886 50.3306Z" fill="#FF5852"/>
<path d="M36.0171 47.6963C35.9539 47.4224 35.8906 46.8533 35.8906 46.4318C35.8906 45.7784 35.975 45.6309 36.3124 45.6309C36.6919 45.6309 36.7341 45.7784 36.7341 46.8954C36.7341 47.8228 36.6498 48.16 36.4389 48.16C36.2913 48.16 36.1015 47.9493 36.0171 47.6963Z" fill="#FF5852"/>
<path d="M21.7622 47.3167C21.7622 46.9162 21.9098 46.8952 23.6601 46.8952C24.7777 46.8952 25.5579 46.8109 25.5579 46.6844C25.5579 46.579 25.6633 46.4736 25.7688 46.4736C25.8953 46.4736 25.9797 46.7687 25.9797 47.1059V47.7382H23.8709C21.9098 47.7382 21.7622 47.7171 21.7622 47.3167Z" fill="#FF5852"/>
<path d="M30.1973 45.9046C30.1973 45.2091 31.8632 40.0875 32.1162 39.9821C32.2216 39.94 32.306 39.687 32.306 39.4341C32.306 39.1812 32.4536 38.5278 32.6434 37.9799L32.9808 36.9893H34.1195C35.1106 36.9893 35.2582 37.0314 35.2582 37.4108C35.2582 37.748 35.1106 37.8323 34.4569 37.8323H33.6556L32.2006 42.0898C30.7877 46.1154 30.1973 47.2746 30.1973 45.9046Z" fill="#FF5852"/>
<path d="M33.3604 45.5252C33.3604 44.4925 33.8454 44.1763 34.0773 45.0615C34.3304 45.9889 34.2249 46.4737 33.7821 46.4737C33.4236 46.4737 33.3604 46.3261 33.3604 45.5252Z" fill="#FF5852"/>
<path d="M26.8232 45.3146C26.8232 44.4716 27.3293 44.2819 27.5402 45.0617C27.7511 45.8415 27.6878 46.0523 27.245 46.0523C26.9076 46.0523 26.8232 45.9048 26.8232 45.3146Z" fill="#FF5852"/>
<path d="M23.0273 44.7877C23.0273 44.5137 23.175 44.3662 23.4491 44.3662C23.7232 44.3662 23.8708 44.5137 23.8708 44.7877C23.8708 45.0617 23.7232 45.2093 23.4491 45.2093C23.175 45.2093 23.0273 45.0617 23.0273 44.7877Z" fill="#FF5852"/>
<path d="M35.8062 44.535C35.743 44.261 35.6797 43.6498 35.6797 43.1651C35.6797 42.4063 35.7429 42.2588 36.1014 42.2588C36.481 42.2588 36.5232 42.4063 36.5232 43.6288C36.5232 44.6615 36.4599 44.9987 36.228 44.9987C36.0803 44.9987 35.8906 44.788 35.8062 44.535Z" fill="#FF5852"/>
<path d="M35.5953 41.3729C35.532 41.0989 35.4688 40.4877 35.4688 40.003C35.4688 39.2442 35.532 39.0967 35.8905 39.0967C36.2701 39.0967 36.3122 39.2442 36.3122 40.4666C36.3122 41.4994 36.249 41.8366 36.017 41.8366C35.8694 41.8366 35.6796 41.6258 35.5953 41.3729Z" fill="#FF5852"/>
<path d="M10.3117 60.827C9.8478 60.0261 9.8478 59.9629 10.4804 59.9629C10.9443 59.9629 11.0076 60.0472 11.0076 60.7006C11.0076 61.6069 10.7967 61.6279 10.3117 60.827Z" fill="#F3921D"/>
<path d="M7.5496 55.7893C7.50743 55.705 7.25438 55.1359 7.02242 54.5247L6.57959 53.4287H7.10677C7.52851 53.4287 7.63395 53.5341 7.63395 53.9556C7.63395 54.2507 7.73939 54.4825 7.84482 54.4825C7.97135 54.4825 8.0557 54.8198 8.0557 55.2202C8.0557 55.8947 7.80265 56.1897 7.5496 55.7893Z" fill="#F3921D"/>
<path d="M6.22107 52.4799C5.98911 51.7843 6.0102 51.7422 6.4952 51.7422C6.93804 51.7422 7.0013 51.8476 7.0013 52.4799C7.0013 52.9435 6.89586 53.2175 6.72716 53.2175C6.55846 53.2175 6.34759 52.8803 6.22107 52.4799Z" fill="#F3921D"/>
<path d="M173.759 51.174C173.548 51.1319 173.379 50.9422 173.379 50.7736C173.379 50.5418 173.717 50.4785 174.855 50.4785C176.184 50.4785 176.332 50.5207 176.332 50.9C176.332 51.2794 176.205 51.3216 175.235 51.3005C174.624 51.2794 173.949 51.2373 173.759 51.174Z" fill="#F3921D"/>
<path d="M148.708 50.4995C148.708 50.0569 148.834 49.8672 149.171 49.7829C149.424 49.7196 152.735 49.6564 156.552 49.6353L163.469 49.6143V50.373V51.1107H156.088H148.708V50.4995Z" fill="#F3921D"/>
<path d="M5.22978 49.0661C4.99782 48.3285 4.25977 43.3966 4.25977 42.6378C4.25977 41.9844 4.34411 41.8369 4.68151 41.8369C5.03999 41.8369 5.10325 41.9844 5.10325 42.954C5.10325 43.5652 5.29304 45.1038 5.525 46.3683C5.75696 47.6329 5.94674 48.8343 5.94674 49.0451C5.94674 49.5298 5.37739 49.5509 5.22978 49.0661Z" fill="#F3921D"/>
<path d="M4.25977 38.4221C4.25977 37.2207 4.44955 36.5674 4.80803 36.5674C5.03999 36.5674 5.10325 36.9046 5.10325 37.9374C5.10325 39.1598 5.06108 39.3073 4.68151 39.3073C4.32303 39.3073 4.25977 39.1598 4.25977 38.4221Z" fill="#F3921D"/>
<path d="M4.4707 36.1461C4.4707 36.0407 4.66049 34.9658 4.89245 33.7855C5.48289 30.7716 6.15768 28.5586 6.49508 28.5586C6.91682 28.5586 6.85356 29.3595 6.28421 31.3407C6.03116 32.3102 5.67268 33.8277 5.52506 34.734C5.29311 36.0829 5.18767 36.3569 4.87136 36.3569C4.6394 36.3569 4.4707 36.2726 4.4707 36.1461Z" fill="#F3921D"/>
<path d="M12.4411 63.7146C10.016 60.7428 6.81076 54.8625 6.26249 52.3755C6.11488 51.7432 6.13597 51.7432 7.06381 51.7432H7.99165L8.01273 53.1764C8.01273 54.3145 8.13926 54.8625 8.561 55.7055C8.85622 56.2957 9.10927 56.928 9.10927 57.1177C9.10927 57.2863 9.19362 57.4338 9.32014 57.4338C9.42558 57.4338 9.57319 57.6656 9.65754 57.9607C9.7208 58.2558 9.86841 58.4876 9.97385 58.4876C10.0793 58.4876 10.1636 58.7195 10.1636 59.0145C10.1636 59.3518 10.2902 59.5414 10.4799 59.5414C10.6697 59.5414 10.7962 59.7311 10.7962 60.0684C10.7962 60.4056 10.9228 60.5953 11.1126 60.5953C11.2813 60.5953 11.4289 60.785 11.4289 61.0168C11.4289 61.2486 11.5765 61.4383 11.7452 61.4383C11.9139 61.4383 12.0615 61.5648 12.0615 61.7334C12.0615 61.902 12.2091 62.0706 12.3778 62.1549C12.5465 62.2182 12.6941 62.4711 12.6941 62.7029C12.6941 62.9348 12.8417 63.1244 13.0104 63.1244C13.2213 63.1244 13.3267 63.3563 13.3267 63.8621C13.3267 64.2626 13.2845 64.5998 13.2424 64.5998C13.2002 64.5998 12.8417 64.1993 12.4411 63.7146Z" fill="#F28106"/>
<path d="M175.024 51.153C174.813 51.1108 174.644 50.9422 174.644 50.7736C174.644 50.5418 175.087 50.4785 176.964 50.4785C179.157 50.4785 179.283 50.4996 179.283 50.9C179.283 51.3216 179.178 51.3427 177.343 51.3005C176.268 51.2584 175.213 51.2162 175.024 51.153Z" fill="#F28106"/>
<path d="M162.835 50.3734V49.6357H166.188C169.752 49.6357 169.794 49.6568 169.794 50.7106C169.794 51.09 169.604 51.1111 166.315 51.1111H162.835V50.3734Z" fill="#F28106"/>
<path d="M5.22945 48.8555C4.47031 45.1039 4.38596 44.2609 4.40704 40.4671C4.40704 36.9895 4.47031 36.1043 4.95531 33.7227C5.84098 29.3598 7.27491 25.3975 7.97079 25.3975C8.2871 25.3975 8.30818 25.5239 8.13948 26.4934C8.03405 27.1047 7.9497 32.5213 7.9497 38.5281V49.4246H6.64229C5.39814 49.4246 5.33488 49.4035 5.22945 48.8555Z" fill="#F28106"/>
<path d="M20.075 70.7114L19.3369 70.1002L20.1382 70.0791C20.8763 70.0791 20.9185 70.1213 20.9185 70.7114C20.9185 71.0697 20.8974 71.3437 20.8552 71.3437C20.8341 71.3437 20.4756 71.0697 20.075 70.7114Z" fill="#F4750A"/>
<path d="M17.9242 69.1098C17.2494 68.5829 16.7012 68.0981 16.7012 68.056C16.7012 68.0138 17.0386 67.9717 17.4392 67.9717C18.0297 67.9717 18.1773 68.056 18.1773 68.3932C18.1773 68.7094 18.3249 68.8147 18.7045 68.8147C19.1473 68.8147 19.2316 68.9201 19.2316 69.447C19.2316 69.8053 19.2106 70.0793 19.1895 70.0793C19.1473 70.0793 18.5779 69.6367 17.9242 69.1098Z" fill="#F4750A"/>
<path d="M14.8243 66.2859C12.7999 64.2204 10.5858 61.3119 9.36273 59.1199C8.28728 57.2441 7.35944 55.1365 7.35944 54.6517C7.35944 54.3356 7.29618 54.1248 7.21183 54.167C7.14857 54.2091 7.14857 53.7244 7.21183 53.0921C7.29618 52.3965 7.254 51.9328 7.12748 51.8696C7.00096 51.8275 8.05532 51.7642 9.48925 51.7642L12.0619 51.7432V56.4643C12.0619 61.5016 12.1462 62.4921 12.6312 62.4921C12.7789 62.4921 12.9897 62.6608 13.053 62.8715C13.1373 63.0612 13.3693 63.3563 13.5802 63.5038C13.8121 63.6724 13.9597 64.0518 13.9597 64.5155C13.9597 65.1688 14.023 65.2321 14.5502 65.2321C15.4148 65.2321 16.5535 66.4545 16.448 67.2554C16.3848 67.8666 16.3637 67.8456 14.8243 66.2859Z" fill="#F4750A"/>
<path d="M178.398 51.174C178.187 51.1319 178.019 50.9422 178.019 50.7736C178.019 50.5418 178.609 50.4785 181.393 50.4785C184.619 50.4785 184.766 50.4996 184.766 50.9C184.766 51.3005 184.64 51.3216 181.772 51.3005C180.106 51.2794 178.588 51.2373 178.398 51.174Z" fill="#F4750A"/>
<path d="M168.993 50.3724L168.93 49.6348H171.903H174.855V50.3724V51.1101H171.945H169.035L168.993 50.3724Z" fill="#F4750A"/>
<path d="M15.0353 48.6444C15.0564 48.0754 15.1197 47.3588 15.204 47.0005L15.3516 46.3682L15.4782 47.0005C15.5625 47.3588 15.689 48.0754 15.7523 48.6444C15.8788 49.5507 15.8366 49.635 15.4571 49.635C15.0775 49.635 15.0142 49.5086 15.0353 48.6444Z" fill="#F4750A"/>
<path d="M7.31738 49.1714C7.1276 48.6656 7.10651 26.9147 7.2963 27.0201C7.38064 27.0833 7.40173 26.9358 7.31738 26.6829C7.23304 26.4089 7.27521 26.2403 7.42282 26.2403C7.54934 26.2403 7.59152 26.1349 7.52826 26.0295C7.33847 25.7133 9.78459 21.1187 11.0287 19.4326C11.6192 18.6317 12.1042 18.0204 12.1253 18.0626C12.1464 18.0837 12.1464 25.1654 12.1042 33.7856L12.0409 49.4243H9.72133C8.05544 49.4243 7.38065 49.34 7.31738 49.1714Z" fill="#F4750A"/>
<path d="M16.6167 41.5839C16.4059 40.783 16.4691 40.5723 16.9119 40.5723C17.2493 40.5723 17.3337 40.7198 17.3337 41.3099C17.3337 42.153 16.8276 42.3427 16.6167 41.5839Z" fill="#F4750A"/>
<path d="M20.7713 71.1958C19.9489 70.6268 18.536 69.573 17.6293 68.8142L15.9634 67.4442L16.6593 67.381C17.4606 67.2967 17.9667 67.6339 17.9667 68.203C17.9667 68.4981 18.1143 68.6034 18.4938 68.6034C18.8734 68.6034 19.021 68.7088 19.021 69.025C19.021 69.3411 19.1686 69.4465 19.5482 69.4465C19.8434 69.4465 20.0754 69.5519 20.0754 69.6573C20.0754 69.7837 20.223 69.868 20.3917 69.868C20.5604 69.868 20.708 70.0156 20.708 70.1842C20.708 70.3528 20.8978 70.5003 21.1298 70.5003C21.3617 70.5003 21.5515 70.6479 21.5515 70.8165C21.5515 71.0062 21.7413 71.1326 22.0787 71.1326C22.5004 71.1326 22.6059 71.238 22.6059 71.6595C22.6059 71.9546 22.5215 72.1864 22.4372 72.1864C22.3528 72.1864 21.5937 71.7438 20.7713 71.1958Z" fill="#F6690E"/>
<path d="M14.466 65.8214C13.8756 65.2102 12.9478 64.1353 12.3995 63.4398C11.8723 62.7443 11.324 62.0698 11.2186 61.9223C11.0921 61.7537 11.0921 61.6272 11.2186 61.5429C11.3451 61.4586 11.4084 59.6461 11.3873 56.7375L11.3451 52.0585L11.2186 56.4846L11.0921 60.9106L11.0499 56.4424C11.0077 52.3958 10.9656 51.9742 10.6492 51.8899C10.4384 51.8267 11.1764 51.7845 12.2941 51.7635L14.2973 51.7424L14.7823 49.2132C15.0565 47.8011 15.3095 46.7051 15.3728 46.7473C15.436 46.8105 16.2795 52.733 16.2795 53.1124C16.2795 53.1545 16.1108 53.2388 15.9211 53.281C15.5837 53.3653 15.5837 53.3864 15.9 53.4074C16.2585 53.4285 16.3639 53.7657 16.5958 55.7048C16.7224 56.7164 16.7013 56.8007 16.3217 56.8007C15.9843 56.8007 15.8578 56.6321 15.7945 56.0209C15.7313 55.5783 15.7102 57.8546 15.7313 61.0793C15.7524 64.2829 15.7102 66.9174 15.6469 66.9174C15.5837 66.9174 15.0565 66.4116 14.466 65.8214Z" fill="#F6690E"/>
<path d="M17.9245 51.0053C17.8612 50.394 17.9034 50.2676 18.2197 50.2676C18.6203 50.2676 18.6836 50.4994 18.4727 51.2792C18.2829 51.9748 18.0299 51.8483 17.9245 51.0053Z" fill="#F6690E"/>
<path d="M183.881 51.174C183.67 51.1319 183.501 50.9422 183.501 50.7736C183.501 50.5207 184.155 50.4785 187.297 50.4785C190.945 50.4785 191.093 50.4996 191.093 50.9C191.093 51.3005 190.966 51.3216 187.677 51.3005C185.779 51.2794 184.071 51.2373 183.881 51.174Z" fill="#F6690E"/>
<path d="M174.223 50.6254C174.223 50.3514 174.117 50.0352 173.97 49.8877C173.78 49.698 174.518 49.6348 177.344 49.6348H180.971V50.3724V51.1101H177.597H174.223V50.6254Z" fill="#F6690E"/>
<path d="M17.6714 49.0662C17.2708 46.9375 17.2708 46.6846 17.7347 46.6846C18.0088 46.6846 18.1775 46.811 18.1775 47.0639C18.1775 47.2536 18.2408 47.9281 18.3041 48.5393C18.4306 49.4456 18.3884 49.6353 18.1143 49.6353C17.9245 49.6353 17.7347 49.3824 17.6714 49.0662Z" fill="#F6690E"/>
<path d="M11.1344 49.2345C11.0712 49.1291 11.0079 42.3847 11.0079 34.2492L10.9868 19.4535L12.1044 18.0625C13.2642 16.545 15.4151 14.2266 15.626 14.2266C15.6893 14.2266 15.7314 19.8118 15.6893 26.6617C15.6471 35.4084 15.6893 39.0968 15.8369 39.0968C15.9634 39.0968 16.0688 39.2864 16.0688 39.5183C16.0688 39.8555 15.9212 39.9398 15.2675 39.9398H14.4873L13.454 44.682L12.4207 49.4242H11.8303C11.514 49.4242 11.1977 49.3399 11.1344 49.2345ZM11.3664 27.02C11.3453 22.9522 11.3242 26.2823 11.3242 34.4599C11.3242 42.6376 11.3453 45.9677 11.3664 41.8999C11.4086 37.8111 11.4086 31.1088 11.3664 27.02Z" fill="#F6690E"/>
<path d="M21.1294 47.3166C21.1294 46.874 21.6144 46.7686 22.5633 47.0216C23.4279 47.2534 23.1116 47.7382 22.0783 47.7382C21.277 47.7382 21.1294 47.6749 21.1294 47.3166Z" fill="#F6690E"/>
<path d="M17.0174 44.3234C16.8276 43.1641 16.4902 40.6982 16.4902 40.3188C16.4902 40.087 16.6378 39.9395 16.8909 39.9395C17.2072 39.9395 17.2915 40.1713 17.4181 41.3726C17.4813 42.1525 17.6079 43.2906 17.6711 43.9018C17.7976 44.8292 17.7555 44.9978 17.4813 44.9978C17.2705 44.9978 17.1018 44.7449 17.0174 44.3234Z" fill="#F6690E"/>
<path d="M23.6179 72.861C22.8376 72.3973 22.8798 72.1865 23.7655 72.1865C24.4192 72.1865 24.5035 72.2498 24.5035 72.7134C24.5035 73.3247 24.377 73.3457 23.6179 72.861Z" fill="#F85B12"/>
<path d="M20.6234 71.0275C19.6955 70.4163 18.0718 69.1306 16.9753 68.2032L15.0142 66.4961L15.0352 57.0117C15.0563 48.5389 15.1829 46.0941 15.5203 48.2228C15.7522 49.5295 16.2583 53.3444 16.6379 56.3372L16.9964 59.3301H17.9664H18.9364L19.4214 56.6534C20.2016 52.3327 20.286 51.9533 20.6234 51.9533C20.8553 51.9533 20.9186 52.2905 20.9186 53.3233C20.9186 54.082 20.8553 54.6932 20.771 54.6932C20.5601 54.6932 20.539 55.3255 20.3703 62.9974C20.3071 66.3274 20.3071 69.2781 20.3703 69.5311C20.4336 69.7629 20.7499 70.1001 21.0662 70.2477C22.0995 70.7113 22.4369 71.0696 22.3525 71.6387C22.2893 72.1656 22.2893 72.1656 20.6234 71.0275Z" fill="#F85B12"/>
<path d="M18.1139 51.9536C18.0084 51.6374 17.3125 46.6423 16.9119 43.2069C16.5112 39.8136 16.5956 40.0032 15.6256 39.8557C15.1616 39.7925 14.8243 39.6449 14.8875 39.5396C14.9508 39.4552 15.014 33.8068 15.014 27.0202L15.0351 14.6483L16.4058 13.4469C17.1649 12.7725 18.4513 11.7187 19.2947 11.0864L20.813 9.94824L20.8763 10.6227C20.9185 11.0231 20.813 11.4025 20.6232 11.6133C20.328 11.9083 20.2858 13.6998 20.2858 27.8421C20.2858 41.3521 20.328 43.8181 20.5811 44.071C20.7919 44.2607 21.3613 44.3661 22.3946 44.3661C23.7231 44.3661 23.8918 44.4082 23.8285 44.7454C23.7652 45.0616 23.47 45.1037 21.6565 45.167L19.5478 45.2302L18.8941 48.75C18.5356 50.689 18.1771 52.1222 18.1139 51.9536Z" fill="#F85B12"/>
<path d="M190.207 51.174C189.996 51.1319 189.827 50.9422 189.827 50.7736C189.827 50.5628 190.122 50.4785 190.987 50.4785C191.83 50.4785 192.147 50.5628 192.147 50.7736C192.147 51.2162 191.135 51.427 190.207 51.174Z" fill="#F85B12"/>
<path d="M180.338 50.3724V49.6348H184.155C188.203 49.6348 188.562 49.7191 188.562 50.6675C188.562 51.1101 188.478 51.1101 184.45 51.1101H180.338V50.3724Z" fill="#F85B12"/>
<path d="M24.2926 73.1563C23.3015 72.6504 21.8465 71.7863 21.0663 71.2383L19.6323 70.2267L19.7167 63.3557C19.7588 59.5831 19.8643 56.253 19.9486 55.9579C20.0541 55.5153 20.0541 55.4942 19.8854 55.8525C19.7378 56.1476 19.7167 55.979 19.801 55.2202C19.8643 54.6512 19.9908 54.1243 20.0541 54.061C20.1173 53.9978 20.2017 53.5552 20.2017 53.0704C20.2228 52.5646 20.4547 51.026 20.7078 49.635L21.1928 47.1058H23.2172C24.3559 47.1058 25.347 47.0215 25.4735 46.895C25.6 46.7686 25.6422 51.5108 25.6 59.7517C25.5367 72.7348 25.5367 72.7769 25.9585 72.9244C26.2537 73.0088 26.4013 73.2406 26.4013 73.5778C26.4013 73.8518 26.3381 74.0837 26.2537 74.0837C26.1483 74.0837 25.2837 73.6621 24.2926 73.1563Z" fill="#FA4D17"/>
<path d="M187.466 51.0057C187.424 50.9425 187.402 50.6263 187.466 50.268L187.55 49.6357H191.536H195.521V50.3734V51.1111H191.557C189.364 51.1111 187.529 51.0689 187.466 51.0057Z" fill="#FA4D17"/>
<path d="M25.5576 45.4831C25.5576 44.7665 25.8107 44.1553 26.1059 44.1553C26.3168 44.1553 26.4011 44.4293 26.4011 44.9983C26.4011 45.6939 26.3378 45.8414 25.9794 45.8414C25.7263 45.8414 25.5576 45.6939 25.5576 45.4831Z" fill="#FA4D17"/>
<path d="M21.4456 44.9985C20.3912 44.9353 19.6954 44.8509 19.864 44.8299C20.1171 44.7877 20.1171 44.7456 19.9062 44.6191C19.5056 44.3662 19.6321 10.7282 20.0327 10.8125C20.2014 10.8336 20.2647 10.7703 20.2014 10.665C20.0538 10.4331 21.4245 9.54791 23.7652 8.34655L25.4522 7.48242L25.5154 14.6484C25.5576 21.0767 25.5998 21.8144 25.895 21.8144C26.1691 21.8144 26.2113 21.9619 26.1059 22.4888C26.0426 22.8682 25.8739 23.2265 25.7474 23.3108C25.5787 23.3951 25.5998 23.4794 25.7896 23.5427C26.0426 23.627 26.0426 23.8167 25.8317 24.6176C25.6841 25.1656 25.5576 26.114 25.5576 26.7252C25.5576 27.8423 23.9128 44.4716 23.7652 44.9563C23.7019 45.0828 23.5965 45.1882 23.5121 45.1671C23.4278 45.146 22.5 45.0617 21.4456 44.9985Z" fill="#FA4D17"/>
<path d="M25.7686 43.5866C25.7686 42.87 26.0216 42.2588 26.3168 42.2588C26.5277 42.2588 26.612 42.5328 26.612 43.1018C26.612 43.7974 26.5488 43.9449 26.1903 43.9449C25.9373 43.9449 25.7686 43.7974 25.7686 43.5866Z" fill="#FA4D17"/>
<path d="M25.9795 41.4792C25.9795 40.7626 26.2325 40.1514 26.5278 40.1514C26.7386 40.1514 26.823 40.4254 26.823 40.9944C26.823 41.6899 26.7597 41.8375 26.4012 41.8375C26.1482 41.8375 25.9795 41.6899 25.9795 41.4792Z" fill="#FA4D17"/>
<path d="M26.1904 39.4763C26.1904 38.844 26.4646 38.2539 26.7387 38.2539C26.9285 38.2539 27.0339 38.5068 27.0339 38.9916C27.0339 39.5817 26.9496 39.7293 26.6122 39.7293C26.3802 39.7293 26.1904 39.6028 26.1904 39.4763Z" fill="#FA4D17"/>
<path d="M30.5131 75.6225C28.4677 74.9902 26.4644 74.2104 25.5787 73.7256L24.925 73.3462L24.9672 60.3421C25.0305 48.9186 24.9883 47.3168 24.7142 47.2325C24.5455 47.1904 24.6087 47.1482 24.8828 47.1271C25.1359 47.1271 25.41 46.9796 25.4522 46.8531C25.5576 46.537 26.8229 34.123 26.8229 33.3853C26.8229 33.1324 26.865 32.9638 26.9283 33.027C26.9916 33.0692 27.2235 37.6638 27.4555 43.228C27.6874 48.7711 27.8983 53.703 27.9405 54.1667C27.9827 54.9676 28.0248 55.0097 28.784 55.1362C29.2479 55.1994 29.6275 55.1573 29.7329 55.0308C29.8383 54.9043 30.4288 53.3025 31.0614 51.49C32.1158 48.3496 32.5164 47.6962 32.8116 48.4971C33.0436 49.1294 32.9593 50.0568 32.643 50.0568C32.1369 50.0568 32.0525 52.4173 32.1369 64.6627C32.179 71.0067 32.2001 76.1916 32.2001 76.1705C32.2001 76.1705 31.441 75.9176 30.5131 75.6225Z" fill="#FB411B"/>
<path d="M24.6084 60.174C24.6084 53.1555 24.6295 50.2891 24.6506 53.7878C24.6927 57.3076 24.6927 63.0404 24.6506 66.5391C24.6295 70.0588 24.6084 67.1924 24.6084 60.174Z" fill="#FB411B"/>
<path d="M194.888 50.3727V49.635H200.476C206.402 49.635 206.212 49.5928 205.938 50.6467L205.811 51.1103H200.35H194.888V50.3727Z" fill="#FB411B"/>
<path d="M29.5641 47.8439C29.543 46.9165 29.2689 39.9402 28.9736 32.3527L28.4043 18.5476L27.4553 18.4844L26.5064 18.4211L26.1058 22.1728C25.8949 24.2382 25.5364 27.5472 25.3045 29.5073C25.0514 31.4885 24.8616 33.3011 24.8405 33.554C24.8194 33.7859 24.7562 33.9545 24.6718 33.8912C24.5664 33.8491 24.5242 28.0531 24.5453 21.0135L24.6086 8.22015L24.714 19.8122C24.7773 26.1983 24.8616 30.9827 24.8827 30.4558C25.0514 27.8212 24.8827 8.22015 24.6929 8.11476C24.2923 7.84077 30.8715 5.16406 31.9048 5.16406C32.1578 5.16406 32.2 8.22014 32.1367 23.6692L32.0945 42.1743L30.8504 45.8416L29.6062 49.53L29.5641 47.8439Z" fill="#FB411B"/>
<path d="M24.3345 38.0433C24.3345 37.6429 24.3766 37.4743 24.4399 37.685C24.4821 37.8747 24.4821 38.2119 24.4399 38.4227C24.3766 38.6124 24.3345 38.4438 24.3345 38.0433Z" fill="#FB411B"/>
<path d="M36.9446 76.9292C36.7759 76.887 35.9113 76.7605 35.0467 76.613C34.1822 76.4866 33.0224 76.2758 32.453 76.1704L31.4619 75.9386L31.5252 62.829L31.5884 49.7406L32.7482 46.3683L33.9291 42.9961L34.0767 45.6306C34.1611 47.0849 34.3087 49.6352 34.4352 51.3213C34.5617 53.0074 34.7726 56.1478 34.9202 58.3187C35.0678 60.4895 35.2154 62.3232 35.2787 62.3653C35.3209 62.4286 35.7426 62.4918 36.1855 62.534L37.0289 62.5972L38.6948 57.0752L40.3818 51.5321H42.7858C45.021 51.5321 45.1686 51.5531 45.1686 51.9536C45.1686 52.1854 45.021 52.3751 44.8523 52.3751C44.5782 52.3751 44.536 53.8294 44.536 64.2833C44.536 76.0439 44.536 76.1915 44.9577 76.1915C45.5271 76.1915 45.4849 76.7395 44.9156 76.9081C44.4306 77.0345 37.5561 77.0556 36.9446 76.9292Z" fill="#FE2B22"/>
<path d="M36.6705 55.1149C36.5229 54.2929 36.2487 50.5413 35.7637 42.996C35.595 40.2139 35.4263 37.9376 35.4052 37.8955C35.3631 37.8744 34.9624 37.7901 34.4774 37.7058L33.6339 37.5793L32.7061 40.3614C31.8626 42.9327 31.7782 43.0803 31.6306 42.4269C31.5463 42.0475 31.483 33.5537 31.483 23.5424L31.4619 5.35345L32.0313 5.14269C33.5706 4.55255 37.5561 4.08887 41.0355 4.08887C42.9755 4.08887 44.5993 4.10994 44.6203 4.15209C44.6203 4.19425 44.6203 14.3952 44.5782 26.8303L44.536 49.4243H41.6049H38.6737L38.4418 50.4359C38.2942 50.9839 37.8724 52.4171 37.4929 53.6396C36.8392 55.684 36.7759 55.7894 36.6705 55.1149Z" fill="#FE2B22"/>
<path d="M205.01 50.8994C205.221 50.7729 205.242 50.6886 205.073 50.6886C204.925 50.6886 204.799 50.4567 204.799 50.1617V49.6558L214.815 49.6348H224.832V50.3724V51.1101H214.773C208.194 51.1101 204.799 51.0258 205.01 50.8994Z" fill="#FE2B22"/>
<path d="M43.9038 64.3045V51.7851L44.3888 51.6587C44.6419 51.5955 46.0125 51.5322 47.4465 51.5322C49.8715 51.5322 50.0191 51.5533 50.0191 51.9538C50.0191 52.1856 49.8715 52.3753 49.7028 52.3753C49.4287 52.3753 49.3865 53.7874 49.3865 63.7355V75.1168L49.8504 75.2643C50.1245 75.3486 50.3565 75.3064 50.3987 75.1589C50.4408 75.0324 50.7993 74.9271 51.2 74.9271C51.6006 74.9271 51.917 74.8428 51.917 74.7163C51.917 74.6109 52.2544 74.5055 52.655 74.5055C53.1189 74.5055 53.3931 74.6109 53.3931 74.7795C53.3931 75.3275 47.1302 76.8239 44.916 76.8239H43.9038V64.3045Z" fill="#ED231F"/>
<path d="M54.2363 74.189C54.2363 73.7253 54.3207 73.6621 54.9955 73.6621C55.9233 73.6621 55.8811 74.0415 54.9111 74.4419C54.2574 74.7159 54.2363 74.6949 54.2363 74.189Z" fill="#ED231F"/>
<path d="M223.841 50.3731C223.841 49.9094 223.884 49.7408 223.926 50.0148C223.968 50.2677 223.968 50.6471 223.926 50.8578C223.862 51.0475 223.82 50.8368 223.841 50.3731Z" fill="#ED231F"/>
<path d="M224.2 50.3724V49.6348H228.628H233.056V50.3724V51.1101H228.628H224.2V50.3724Z" fill="#ED231F"/>
<path d="M43.9038 26.8727C43.9882 6.95545 43.9671 4.32089 43.693 4.23658C42.8916 4.02582 44.3888 4.13121 46.2234 4.42628C48.9648 4.86888 49.8083 5.1218 49.8083 5.4801C49.8083 5.64871 49.7239 5.79624 49.5974 5.79624C49.4498 5.79624 49.3865 13.2151 49.3865 27.6104V49.4245H46.603H43.7984L43.9038 26.8727Z" fill="#ED231F"/>
<path d="M48.9015 76.0431C48.8172 75.9799 48.7539 70.479 48.7539 63.8399V51.7842L49.2389 51.6577C49.492 51.5945 50.6307 51.5312 51.7694 51.5312C53.6672 51.5312 53.8148 51.5523 53.8148 51.9528C53.8148 52.1846 53.7305 52.3743 53.604 52.3743C53.4564 52.3743 53.3931 56.1681 53.3931 63.3551C53.3931 73.3243 53.4142 74.2938 53.7305 73.9987C54.1312 73.5983 55.5018 73.535 55.5018 73.9355C55.5018 74.2516 54.2998 74.7364 51.3898 75.5795C49.0702 76.2539 49.0913 76.2539 48.9015 76.0431Z" fill="#E01F1D"/>
<path d="M59.9302 71.2381C59.9302 70.7955 60.0356 70.7112 60.5628 70.7112C61.0478 70.7112 61.1954 70.6269 61.1954 70.2897C61.1954 69.9525 61.343 69.8682 61.9545 69.8682C62.6083 69.8682 62.6926 69.9103 62.4606 70.1632C62.1865 70.5005 60.2887 71.765 60.0778 71.765C59.9934 71.765 59.9302 71.5332 59.9302 71.2381Z" fill="#E01F1D"/>
<path d="M267.808 51.1731C267.597 51.1309 267.429 50.9412 267.429 50.7726C267.429 50.5618 267.724 50.4775 268.589 50.4775C269.601 50.4775 269.748 50.5197 269.748 50.8991C269.748 51.2574 269.622 51.3206 268.968 51.2995C268.525 51.2784 267.998 51.2363 267.808 51.1731Z" fill="#E01F1D"/>
<path d="M232.424 50.3724V49.6348H236.114H239.804V50.3724V51.1101H236.114H232.424V50.3724Z" fill="#E01F1D"/>
<path d="M48.5009 49.2764C48.6906 49.1921 48.7539 44.5764 48.7539 27.1883C48.7539 9.77915 48.8172 5.18449 49.028 5.10018C49.3022 4.9948 51.7905 5.64817 52.9081 6.11185C53.5196 6.36477 53.625 6.51231 53.5196 6.89168C53.4564 7.16568 53.3931 16.8398 53.3931 28.4107V49.4239L50.8204 49.4029C49.3865 49.4029 48.3532 49.3396 48.5009 49.2764Z" fill="#E01F1D"/>
<path d="M52.7179 63.5036C52.7601 54.5672 52.8233 51.8273 53.0342 51.7008C53.1607 51.6165 54.2362 51.5322 55.396 51.5322H57.5047L57.4414 62.0704C57.3993 69.2786 57.4414 72.6087 57.6101 72.6087C57.7156 72.6087 57.821 72.714 57.821 72.8194C57.821 73.1145 54.5736 74.6109 53.0764 75.0114C52.6546 75.1378 52.6546 75.0535 52.7179 63.5036Z" fill="#D41B1B"/>
<path d="M58.0322 72.3343C58.0322 71.7653 58.7492 71.3438 59.7192 71.3438C60.626 71.3438 60.4994 71.6177 59.3185 72.25C58.0744 72.9456 58.0322 72.9456 58.0322 72.3343Z" fill="#D41B1B"/>
<path d="M268.441 51.1731C268.23 51.1098 268.061 50.9412 268.061 50.7726C268.061 50.5197 268.862 50.4775 273.017 50.4775C277.867 50.4775 277.972 50.4775 277.972 50.8991C277.972 51.3206 277.867 51.3417 273.396 51.2995C270.866 51.2784 268.63 51.2152 268.441 51.1731Z" fill="#D41B1B"/>
<path d="M239.171 50.3724V49.6348H242.756H246.341V50.3724V51.1101H242.756H239.171V50.3724Z" fill="#D41B1B"/>
<path d="M52.6337 49.2344C52.6969 49.1291 52.7602 39.3707 52.7602 27.5468V6.04883L53.9833 6.51251C54.637 6.78651 55.6702 7.2291 56.2396 7.50309L57.2939 8.00893L57.3572 28.7271L57.3994 49.4241H54.9533C53.5826 49.4241 52.5704 49.3398 52.6337 49.2344Z" fill="#D41B1B"/>
<path d="M56.535 73.3886C56.6826 73.1779 56.788 69.8689 56.8091 62.3657L56.8724 51.6378L59.1287 51.5745C61.3007 51.5113 61.4061 51.5324 61.4061 51.9539C61.4061 52.1857 61.3218 52.3754 61.1953 52.3754C61.0476 52.3754 60.9844 55.4947 60.9844 61.3329C60.9844 67.1711 61.0476 70.2904 61.1953 70.2904C61.3218 70.2904 61.4061 70.1429 61.4061 69.9743C61.4061 69.7635 61.6381 69.6581 62.1442 69.6581C62.5448 69.6581 62.8822 69.7213 62.8822 69.8267C62.8611 70.1429 58.8124 72.6088 57.1043 73.3254C56.4928 73.5783 56.3452 73.5994 56.535 73.3886Z" fill="#C81719"/>
<path d="M275.821 51.153C275.61 51.1108 275.441 50.9422 275.441 50.7736C275.441 50.5417 276.011 50.4785 278.604 50.4785C281.662 50.4785 281.768 50.4996 281.768 50.9211C281.768 51.3426 281.683 51.3426 278.984 51.2794C277.445 51.2583 276.011 51.1951 275.821 51.153Z" fill="#C81719"/>
<path d="M245.708 50.3734V49.6357H249.504H253.3V50.3734V51.1111H249.504H245.708V50.3734Z" fill="#C81719"/>
<path d="M56.5139 49.277C56.7037 49.1927 56.7669 44.8299 56.7669 28.4535V7.73535L58.7069 8.76809C59.7824 9.33715 60.7313 9.88514 60.8157 9.96945C60.9 10.0538 61.0055 18.9691 61.0476 29.7813L61.0898 49.4245L58.6648 49.4035C57.3363 49.4035 56.3663 49.3402 56.5139 49.277Z" fill="#C81719"/>
<path d="M209.544 45.6301C205.136 44.6817 201.278 41.204 199.928 37.0098C199.295 35.0708 199.148 31.6353 199.612 29.8228C201.235 23.3523 207.688 18.9473 213.761 20.1908C215.996 20.6545 217.726 21.5397 219.391 23.0783C220.172 23.7738 220.846 24.3429 220.91 24.3429C220.973 24.3429 221.036 23.4998 221.036 22.446V20.5491H222.829H224.621V32.7735V44.9978H222.829H221.036V43.2063C221.036 42.2157 220.952 41.4148 220.868 41.4148C220.762 41.4148 220.277 41.8153 219.771 42.3C218.464 43.5225 216.608 44.6817 215.069 45.2086C213.614 45.7144 210.872 45.9252 209.544 45.6301ZM214.562 42.2579C217.03 41.4991 219.518 39.1807 220.425 36.7991C222.323 31.8039 220.34 26.4295 215.807 24.1954C214.246 23.4155 214.141 23.3945 211.863 23.3945C209.67 23.3945 209.459 23.4366 208.131 24.09C206.613 24.8277 204.483 26.8931 203.766 28.3053C202.142 31.4878 202.353 35.4502 204.293 38.3798C206.655 41.9417 210.682 43.4592 214.562 42.2579Z" fill="#C81719"/>
<path d="M248.028 45.4199C246.13 45.1669 245.181 44.5347 244.549 43.0382C244.275 42.3849 244.232 40.8884 244.232 33.3009V24.3434H242.545H240.858V22.6573V20.9923L242.503 20.929L244.127 20.8658L244.19 17.6622L244.253 14.4375H246.236H248.239V17.599V20.7604H251.402H254.565V22.6573V24.5542H251.402H248.239V32.8583C248.239 40.1297 248.281 41.2257 248.576 41.4997C249.04 41.9633 249.483 42.0476 252.246 42.1109L254.671 42.153V43.8391V45.5252L251.929 45.5463C250.432 45.5674 248.661 45.5042 248.028 45.4199Z" fill="#C81719"/>
<path d="M142.17 29.8231V14.2266H144.173H146.176V20.971V27.7155H154.506H162.835V20.971V14.2266H164.839H166.842V29.8231V45.4197H164.839H162.835V38.2537V31.0877H154.506H146.176V38.2537V45.4197H144.173H142.17V29.8231Z" fill="#C81719"/>
<path d="M181.434 45.1245C176.88 44.2604 173.421 41.0146 172.43 36.6729C171.987 34.8181 172.008 30.9822 172.43 29.2961C173.316 25.9028 175.298 23.3315 178.208 21.8561C180.275 20.8023 181.434 20.5283 183.923 20.5283C186.348 20.5283 187.55 20.7812 189.511 21.7718C193.222 23.6265 195.521 27.5468 195.521 32.0782V33.8275H185.905H176.268L176.416 34.9868C176.943 39.5603 180.57 42.5953 184.977 42.1738C187.571 41.942 189.469 40.6352 190.65 38.2747L191.135 37.3684L192.737 37.5159C194.741 37.6845 195.31 37.811 195.31 38.085C195.31 38.2115 194.972 38.9491 194.551 39.75C193.222 42.2581 190.46 44.3658 187.655 44.9981C185.947 45.3774 183.079 45.4407 181.434 45.1245ZM191.177 30.6872C191.388 30.371 190.86 28.3266 190.333 27.2517C187.782 22.2144 179.916 22.4041 177.386 27.5678C177.048 28.2844 176.69 29.3172 176.627 29.8863L176.479 30.8768H183.775C187.972 30.8768 191.114 30.7925 191.177 30.6872Z" fill="#C81719"/>
<path d="M232.212 28.5586V11.9082H234.11H236.008V28.5586V45.209H234.11H232.212V28.5586Z" fill="#C81719"/>
<path d="M259.837 28.5586V11.9082H261.735H263.633V18.1258C263.633 23.3738 263.675 24.3433 263.928 24.3433C264.097 24.3433 264.307 24.1536 264.371 23.9218C264.687 22.9101 266.754 21.4137 268.694 20.7814C270.866 20.0859 274.809 20.1491 276.749 20.9078C278.879 21.7298 279.996 22.889 280.819 25.081C281.198 26.0505 281.24 26.9568 281.304 35.6824L281.367 45.209H279.406H277.445V36.1883C277.445 27.3572 277.445 27.1675 276.981 26.3456C275.863 24.2801 274.324 23.437 271.646 23.4581C269.6 23.4581 268.209 23.8585 266.838 24.807C265.868 25.4814 264.434 27.4837 264.012 28.7483C263.865 29.2541 263.738 32.1837 263.696 37.3685L263.59 45.209H261.714H259.837V28.5586Z" fill="#C81719"/>
<path d="M60.4781 71.1965C60.4148 71.1333 60.3516 66.7283 60.3516 61.4171C60.3516 52.839 60.3937 51.7641 60.689 51.6587C60.8787 51.5955 62.0596 51.5322 63.3249 51.5322C65.4758 51.5322 65.6234 51.5533 65.6234 51.9538C65.6234 52.2277 65.4758 52.3753 65.2016 52.3753C64.7799 52.3753 64.7799 52.5228 64.7799 59.8363V67.3185L65.3492 67.3817C65.8553 67.4449 65.7921 67.5292 64.3371 68.7095C61.8909 70.6907 60.7311 71.4495 60.4781 71.1965Z" fill="#BC1317"/>
<path d="M252.161 50.541C252.203 49.5715 252.245 49.5083 252.456 49.8455C252.583 50.0563 252.667 50.0774 252.667 49.9088C252.667 49.698 253.531 49.6348 256.252 49.6348H259.837V50.3724V51.1101H255.978H252.119L252.161 50.541Z" fill="#BC1317"/>
<path d="M60.1406 49.2978C60.4148 49.2135 60.457 46.8951 60.3937 29.7599C60.3726 19.0742 60.3937 10.201 60.457 10.0534C60.5835 9.73729 61.7011 10.4539 63.6833 12.0979L64.8853 13.1095L64.822 31.2563L64.7798 49.4242L62.2915 49.4031C60.942 49.3821 59.9719 49.3399 60.1406 49.2978Z" fill="#BC1317"/>
<path d="M64.1053 60.3834L64.1474 51.7842L64.8011 51.6577C65.1807 51.5945 67.3949 51.5312 69.7566 51.5312C73.9108 51.5312 74.0584 51.5523 74.0584 51.9528C74.0584 52.1846 73.9741 52.3743 73.8476 52.3743C73.721 52.3743 73.6367 53.2595 73.6367 54.6084V56.8636L72.6667 58.7183C71.064 61.7322 68.0064 65.5471 65.2861 67.9076L64.042 68.9825L64.1053 60.3834Z" fill="#AA0D13"/>
<path d="M258.466 50.4778C258.509 49.698 258.741 49.4451 258.994 49.8455C259.141 50.0563 259.205 50.0774 259.205 49.9088C259.205 49.698 260.87 49.6348 266.796 49.6348C274.134 49.6348 274.387 49.6558 274.387 50.0352C274.387 51.1523 274.746 51.1101 266.29 51.1101H258.424L258.466 50.4778Z" fill="#AA0D13"/>
<path d="M63.8944 49.2764C64.0842 49.1921 64.1475 45.3352 64.1475 30.961C64.1475 17.1349 64.2108 12.751 64.4005 12.751C64.8012 12.751 68.8078 16.9452 70.2839 18.9264C71.043 19.938 72.1185 21.6242 72.6456 22.6358L73.6367 24.4906V36.9678V49.424L68.6391 49.4029C65.8766 49.4029 63.7468 49.3397 63.8944 49.2764Z" fill="#AA0D13"/>
<path d="M73.0039 54.6084C73.0039 52.2267 73.0461 51.7631 73.3413 51.6577C73.8685 51.4469 75.7452 51.5101 75.7452 51.742C75.7452 52.3532 73.4467 57.4326 73.1726 57.4326C73.0883 57.4326 73.0039 56.168 73.0039 54.6084Z" fill="#91040E"/>
<path d="M273.586 50.3724L273.628 49.6348H277.698H281.768V50.3724V51.1101H277.656H273.522L273.586 50.3724Z" fill="#91040E"/>
<path d="M72.7718 49.1499C72.9405 48.918 73.0038 45.5879 72.9616 36.0614C72.9194 29.0429 72.9194 23.2891 72.9616 23.2891C73.1514 23.2891 75.1757 27.8626 75.724 29.5066C77.5375 34.9865 77.9803 42.0049 76.8416 47.527L76.4832 49.3185L74.501 49.3817C72.814 49.4238 72.5609 49.4028 72.7718 49.1499Z" fill="#91040E"/>
<path d="M95.0822 45.2718C94.9978 45.2086 94.9346 38.0847 94.9346 29.4645V13.8047H96.8324H98.7303V27.7151V41.6256H104.213H109.696V43.5225V45.4193H102.463C98.4772 45.4193 95.1454 45.3561 95.0822 45.2718Z" fill="#7A1215"/>
<path d="M122.538 44.9982C117.751 44.2395 114.293 41.2045 113.154 36.7573C112.732 35.1134 112.669 31.3196 113.048 29.507C113.491 27.4626 114.609 25.3339 116.085 23.8375C118.362 21.5191 121.062 20.4863 124.878 20.4863C128.611 20.4863 130.952 21.3505 133.271 23.5846C135.443 25.6501 136.308 27.568 136.708 31.0245C137.046 34.1649 138.248 33.8277 126.839 33.8277H117.034L117.182 34.734C117.814 38.8439 120.366 41.4574 124.246 41.9421C125.574 42.1108 127.472 41.8157 128.632 41.2677C129.665 40.7829 131.268 39.1811 131.837 38.043L132.28 37.1578L133.988 37.3053C134.916 37.3896 135.907 37.5161 136.181 37.6004L136.687 37.7269L136.055 39.0547C134.22 42.9327 130.93 44.9139 125.954 45.1036C124.731 45.1458 123.191 45.1036 122.538 44.9982ZM132.196 29.6124C131.9 27.1886 130.171 24.9967 127.873 24.1115C126.207 23.4792 123.761 23.5003 122.053 24.1536C120.724 24.6384 119.079 25.9873 118.341 27.1886C117.877 27.9263 117.245 30.2026 117.414 30.4766C117.477 30.5819 120.851 30.6662 124.921 30.6662H132.322L132.196 29.6124Z" fill="#7A1215"/>
<path d="M138.375 79.9844C138.375 79.8791 138.459 79.7737 138.585 79.7737C138.691 79.7737 138.923 79.5418 139.113 79.2889C139.408 78.8252 139.387 78.6777 138.796 77.2445C138.438 76.4014 138.206 75.6638 138.269 75.6005C138.459 75.4109 138.607 75.6849 139.113 77.0759C139.661 78.5512 139.661 78.5512 140.294 76.4436C140.526 75.6638 140.905 75.2212 140.905 75.7481C140.905 76.1485 139.429 79.4154 139.092 79.7948C138.691 80.2374 138.375 80.3217 138.375 79.9844Z" fill="#020002"/>
<path d="M133.693 78.8045C133.588 78.7202 133.524 77.7296 133.524 76.5915C133.524 74.6946 133.567 74.526 133.967 74.3995C134.452 74.2309 135.38 74.4206 135.781 74.7578C136.139 75.0318 136.139 75.6641 135.781 75.9381C135.591 76.1067 135.528 76.0013 135.528 75.4955C135.528 74.8632 135.464 74.821 134.747 74.7578C133.967 74.6946 133.946 74.6946 133.946 75.4323C133.946 76.1278 134.009 76.191 134.537 76.191C135.781 76.2121 136.603 77.6242 135.823 78.404C135.486 78.7412 133.904 79.0363 133.693 78.8045ZM135.507 78.1722C136.181 77.5188 135.633 76.6125 134.558 76.6125C133.967 76.6125 133.946 76.6547 133.946 77.561C133.946 78.4673 133.967 78.5094 134.558 78.5094C134.895 78.5094 135.338 78.3619 135.507 78.1722Z" fill="#020002"/>
<path d="M162.203 71.1747C162.203 70.8164 162.878 70.6689 165.155 70.5846C167.707 70.5003 167.58 70.6267 164.839 70.8797C163.806 70.985 162.772 71.1326 162.583 71.238C162.351 71.3223 162.203 71.3012 162.203 71.1747Z" fill="#F6690E"/>
<path d="M158.197 71.8492C158.197 71.7016 158.534 71.5119 158.935 71.4276C159.441 71.3433 159.673 71.1747 159.673 70.9218C159.673 70.2684 161.634 70.0155 161.866 70.6267C161.95 70.8375 162.161 70.9218 162.414 70.8586C162.984 70.711 163.173 71.0693 162.604 71.2379C162.372 71.3222 162.224 71.5119 162.288 71.6595C162.456 72.1231 160.622 72.4182 160.2 71.9967C160.074 71.8702 159.61 71.8702 159.104 71.9545C158.408 72.081 158.197 72.0599 158.197 71.8492Z" fill="#F85B12"/>
<path d="M164.375 70.7748C164.565 70.7326 164.902 70.7326 165.113 70.7748C165.303 70.838 165.134 70.8802 164.733 70.8802C164.333 70.8802 164.164 70.838 164.375 70.7748Z" fill="#F85B12"/>
<path d="M156.932 72.3973C156.932 72.1233 157.079 71.9758 157.332 71.9758C157.564 71.9758 157.796 71.8915 157.859 71.7861C157.944 71.6807 158.366 71.5332 158.808 71.4489C159.462 71.3435 159.673 71.196 159.715 70.8587C159.757 70.5004 159.947 70.374 160.58 70.3318C161.086 70.2897 161.486 70.374 161.697 70.5847C161.993 70.9009 161.971 70.922 161.529 70.943C161.255 70.943 160.516 71.1117 159.884 71.3224C158.914 71.6596 158.808 71.7229 159.251 71.8072C159.778 71.9126 159.778 71.9126 159.209 71.9547C158.893 71.9547 158.302 72.1655 157.881 72.3973C157.459 72.6292 157.079 72.8188 157.037 72.8188C156.974 72.8188 156.932 72.6292 156.932 72.3973Z" fill="#FA4D17"/>
<path d="M160.2 71.9761C159.841 71.5756 159.841 71.5545 160.221 71.5545C160.432 71.5545 160.98 71.4913 161.423 71.4281C162.098 71.3016 162.203 71.3438 162.203 71.7021C162.203 72.0182 162.013 72.1658 161.549 72.2712C160.622 72.4398 160.622 72.4398 160.2 71.9761Z" fill="#FA4D17"/>
<path d="M155.308 73.1141C155.16 72.7348 155.561 72.3975 156.215 72.3975C156.447 72.3975 156.742 72.2922 156.868 72.1657C156.974 72.0603 157.332 72.0182 157.649 72.1025C158.218 72.2289 158.218 72.25 157.311 72.6926C156.805 72.9245 156.383 73.1984 156.341 73.3038C156.194 73.5778 155.434 73.4514 155.308 73.1141Z" fill="#FB411B"/>
<path d="M160.326 72.1022C160.137 71.8703 160.179 71.786 160.558 71.6806C161.36 71.4699 161.571 71.5331 161.571 71.9757C161.571 72.4815 160.706 72.5658 160.326 72.1022Z" fill="#FB411B"/>
<path d="M152.988 75.158C152.398 74.6733 152.313 73.5141 152.841 73.3033C153.03 73.2401 153.262 73.3033 153.347 73.4509C153.515 73.7249 154.064 73.5352 155.244 72.7764C155.687 72.4813 155.835 72.4603 156.151 72.7132C156.531 72.9872 156.531 73.0083 156.067 73.3876C155.814 73.5984 155.139 74.1675 154.612 74.6733C154.064 75.158 153.579 75.5585 153.536 75.5585C153.494 75.5374 153.241 75.3688 152.988 75.158Z" fill="#FE2B22"/>
<path d="M151.596 77.0338C151.407 76.802 151.09 76.6123 150.922 76.6123C150.458 76.6123 150.542 76.0854 151.153 74.9683C151.723 73.9567 152.63 73.0293 153.051 73.0293C153.368 73.0293 153.579 73.8302 153.325 73.9988C153.22 74.062 153.347 74.2939 153.6 74.5046C154.064 74.8629 154.106 74.8629 154.506 74.5468C154.738 74.3571 154.506 74.6733 154.021 75.2423C152.883 76.5491 152.84 76.6334 152.651 77.097C152.461 77.5818 152.039 77.5607 151.596 77.0338Z" fill="#ED231F"/>
<path d="M150.647 78.2146C150.268 77.9406 149.909 77.6666 149.846 77.6245C149.804 77.5612 150.078 76.929 150.5 76.1913C150.9 75.4747 151.238 74.8213 151.238 74.7581C151.259 74.2944 152.123 73.6621 152.714 73.6621H153.368L152.25 74.7581C151.153 75.833 151.153 75.8541 151.66 76.0227C152.503 76.2967 152.756 76.8868 152.377 77.6456C152.208 78.0039 152.102 78.3832 152.187 78.5097C152.44 78.9101 151.343 78.6994 150.647 78.2146Z" fill="#E01F1D"/>
<path d="M160.938 71.8916C160.938 71.6387 161.971 71.1961 162.077 71.3858C162.098 71.428 162.245 71.6176 162.393 71.8284C162.646 72.1656 162.604 72.1867 161.803 72.1867C161.212 72.1867 160.938 72.1024 160.938 71.8916Z" fill="#E01F1D"/>
<path d="M159.61 70.7116C159.525 70.3322 159.61 70.29 160.327 70.29C160.769 70.29 161.149 70.3954 161.149 70.5008C161.149 70.6273 161.36 70.7116 161.613 70.7116C162.351 70.7116 161.95 70.8591 160.812 71.0066C159.842 71.1331 159.715 71.0909 159.61 70.7116Z" fill="#E01F1D"/>
<path d="M149.446 78.5309C149.382 78.4045 149.509 78.004 149.72 77.6246C149.931 77.2453 150.479 76.2336 150.922 75.4116C151.66 73.9995 151.786 73.873 152.377 73.873H153.03L152.292 74.5686C151.386 75.3905 150.394 76.5708 150.394 76.8237C150.394 77.0134 151.892 78.004 152.081 77.9408C152.145 77.9197 152.208 78.0883 152.208 78.3202C152.208 78.6785 152.039 78.7206 150.879 78.7206C150.163 78.7206 149.53 78.6363 149.446 78.5309Z" fill="#D41B1B"/>
<path d="M160.411 72.1655C160.221 71.8704 160.326 71.7861 161.107 71.6386C161.697 71.5121 161.781 71.5543 161.781 71.9547C161.781 72.313 161.655 72.3973 161.17 72.3973C160.811 72.3973 160.474 72.292 160.411 72.1655Z" fill="#D41B1B"/>
<path d="M149.129 78.5308C149.129 78.4254 149.277 78.2358 149.446 78.0882C149.614 77.9407 149.762 77.7089 149.762 77.5402C149.762 77.3927 149.846 77.2241 149.931 77.1609C150.036 77.0976 150.099 77.2662 150.099 77.4981C150.078 77.8353 150.247 78.0039 150.774 78.1515C151.807 78.4676 151.576 78.7205 150.289 78.7205C149.657 78.7205 149.129 78.6362 149.129 78.5308Z" fill="#C81719"/>
<path d="M151.66 74.2939C151.66 73.8934 151.765 73.6616 151.955 73.6616C152.124 73.6616 152.292 73.5141 152.377 73.3454C152.44 73.1768 152.693 73.0293 152.925 73.0293C153.642 73.0293 153.41 73.767 152.503 74.3782L151.66 74.9262V74.2939Z" fill="#C81719"/>
<path d="M159.61 70.7326C159.525 70.3533 159.61 70.29 160.116 70.29C160.516 70.29 160.727 70.3954 160.727 70.6062C160.727 70.7748 160.643 70.9223 160.537 70.9223C160.432 70.9223 160.2 70.9856 160.031 71.0488C159.842 71.112 159.694 70.9856 159.61 70.7326Z" fill="#C81719"/>
<path d="M149.34 78.4254C149.34 78.2568 149.445 78.0461 149.551 77.9828C149.677 77.9196 149.762 77.9618 149.762 78.0671C149.762 78.2147 150.247 78.299 150.9 78.299C151.533 78.299 152.123 78.4044 152.187 78.5097C152.271 78.6362 151.765 78.7205 150.837 78.7205C149.677 78.7205 149.34 78.6573 149.34 78.4254Z" fill="#BC1317"/>
<path d="M150.647 75.8746C150.774 75.5795 150.964 75.3477 151.069 75.3477C151.175 75.3477 151.09 75.5795 150.9 75.8746C150.711 76.1696 150.521 76.4015 150.479 76.4015C150.437 76.4015 150.521 76.1696 150.647 75.8746Z" fill="#BC1317"/>
<path d="M161.149 70.5006C161.149 70.2688 161.233 70.0791 161.36 70.0791C161.465 70.0791 161.655 70.2688 161.782 70.5006C161.971 70.8589 161.95 70.9222 161.571 70.9222C161.297 70.9222 161.149 70.7746 161.149 70.5006Z" fill="#BC1317"/>
<path d="M149.129 78.5301C149.129 78.4247 149.256 78.2351 149.425 78.1086C149.635 77.9189 149.741 77.94 149.825 78.1929C149.91 78.3615 150.078 78.4458 150.247 78.3826C150.395 78.3405 150.753 78.3826 151.048 78.488C151.47 78.6566 151.344 78.6988 150.352 78.6988C149.678 78.7198 149.129 78.6355 149.129 78.5301Z" fill="#AA0D13"/>
<path d="M151.111 75.116C151.407 74.6102 151.744 73.9779 151.87 73.725C152.018 73.3667 152.25 73.2402 152.714 73.2402C153.051 73.2402 153.347 73.3035 153.347 73.4088C153.347 73.4931 152.714 74.1255 151.955 74.7999L150.542 76.0645L151.111 75.116Z" fill="#AA0D13"/>
<path d="M160.516 72.1027C160.516 71.8287 161.107 71.5547 161.739 71.5547C161.866 71.5547 161.992 71.7444 161.992 71.9762C161.992 72.3134 161.845 72.3977 161.254 72.3977C160.769 72.3977 160.516 72.2924 160.516 72.1027Z" fill="#AA0D13"/>
<path d="M159.609 70.669C159.525 70.4161 159.715 70.2896 160.432 70.1842C161.423 70.0367 161.781 70.1421 161.781 70.6057C161.781 70.7954 161.444 70.9008 160.748 70.964C159.905 71.0062 159.673 70.964 159.609 70.669Z" fill="#AA0D13"/>
<path d="M151.238 74.8847C151.259 74.4 151.786 73.873 152.271 73.873C152.819 73.873 152.714 74.126 151.87 74.7161C151.428 75.0322 151.238 75.0744 151.238 74.8847Z" fill="#91040E"/>
<path d="M160.347 72.1863C160.116 71.828 160.137 71.7648 160.495 71.7648C160.706 71.7648 161.191 71.7015 161.549 71.6383C162.098 71.5118 162.203 71.554 162.203 71.9334C162.203 72.2284 162.013 72.376 161.549 72.4814C160.643 72.65 160.643 72.65 160.347 72.1863Z" fill="#91040E"/>
<path d="M160.095 70.5217C160.095 70.1634 160.221 70.0791 160.812 70.0791C161.486 70.0791 161.972 70.3742 161.718 70.6271C161.676 70.6903 161.276 70.7957 160.854 70.8589C160.179 70.9643 160.095 70.9222 160.095 70.5217Z" fill="#91040E"/>
<path d="M151.491 74.3359C152.166 73.0291 152.377 72.8184 153.073 72.8184C153.811 72.8184 153.431 73.4506 152.039 74.5677L150.858 75.5372L151.491 74.3359Z" fill="#7A1215"/>
<path d="M160.453 72.313C160.263 71.8072 161.929 71.3857 162.372 71.8494C162.815 72.2709 162.625 72.4184 161.507 72.5449C160.79 72.6292 160.558 72.587 160.453 72.313Z" fill="#7A1215"/>
<path d="M159.589 70.5849C159.399 70.0791 159.399 70.0791 160.411 70.0791C161.086 70.0791 161.36 70.1634 161.36 70.3742C161.36 70.9222 159.799 71.1119 159.589 70.5849Z" fill="#7A1215"/>
<path d="M186.77 79.2895L185.926 79.0155L185.779 77.6666C185.694 76.9289 185.673 76.2756 185.715 76.2334C185.884 76.0437 186.243 76.4442 186.243 76.8446C186.243 77.0765 186.517 77.5612 186.854 77.8984C187.36 78.4043 187.655 78.5097 188.457 78.5097C189.258 78.5097 189.553 78.4043 190.059 77.8984C191.198 76.7603 190.734 75.854 188.562 75.0321C186.264 74.1468 185.462 72.8823 186.158 71.1751C186.707 69.7629 188.309 69.0253 190.017 69.4257C190.502 69.5311 190.945 69.6576 190.987 69.6997C191.198 69.9105 191.325 72.1867 191.135 72.1867C191.008 72.1867 190.84 71.976 190.776 71.7231C190.481 70.7957 189.806 70.2899 188.879 70.2899C187.634 70.2899 187.086 70.7535 187.086 71.7863C187.086 72.5029 187.192 72.6715 187.782 73.0298C188.14 73.2616 188.942 73.5989 189.553 73.7675C190.987 74.189 191.725 75.0531 191.725 76.2756C191.725 78.5307 189.216 80.0482 186.77 79.2895Z" fill="#020002"/>
<path d="M202.627 79.2894C199.949 78.4464 198.726 75.2849 200.034 72.4817C201.51 69.2992 205.875 69.0463 207.646 72.0602C209.27 74.8423 207.984 78.615 205.179 79.3105C203.998 79.6056 203.682 79.6056 202.627 79.2894ZM205.411 78.4042C206.254 77.6876 206.571 76.6338 206.571 74.6105C206.529 71.9338 205.601 70.5006 203.893 70.5006C202.164 70.5006 201.004 72.7557 201.278 75.5167C201.425 76.8867 202.121 78.3621 202.754 78.6782C203.597 79.0997 204.715 78.9733 205.411 78.4042Z" fill="#020002"/>
<path d="M160.495 79.0998C160.284 78.4042 160.369 78.2989 161.191 78.2989C162.625 78.2989 162.962 77.5401 162.224 76.0437C161.992 75.6011 161.634 74.8634 161.444 74.3997C161.233 73.936 161.001 73.5145 160.938 73.4513C160.854 73.388 160.685 73.0508 160.579 72.6925C160.348 72.0392 160.348 72.0181 161.107 71.8916C162.351 71.7019 162.372 71.723 162.836 72.7768C163.089 73.3248 163.511 74.21 163.785 74.758C164.08 75.3271 164.312 75.854 164.312 75.9804C164.312 76.3177 165.387 77.9406 165.872 78.341C166.125 78.5518 166.526 78.7204 166.8 78.7204C167.074 78.7204 167.222 78.8047 167.159 78.9312C167.053 79.0998 160.558 79.2684 160.495 79.0998Z" fill="#020002"/>
<path d="M168.529 78.8886C168.529 78.7832 168.719 78.72 168.972 78.72C169.225 78.72 169.457 78.5514 169.52 78.2985C169.584 78.0666 169.71 77.877 169.816 77.877C169.921 77.877 170.005 76.2962 170.005 74.3572C170.026 70.9217 170.026 70.7953 170.533 70.1841L171.06 69.5518V70.2473C171.06 71.0482 171.228 71.0693 172.388 70.437C173.97 69.5939 174.729 69.4042 175.404 69.6993C176.1 70.0154 176.753 70.6056 176.753 70.9428C176.753 71.2168 177.47 71.006 178.44 70.4159C179.748 69.615 180.633 69.4042 181.308 69.6993C182.257 70.1208 182.658 70.5424 182.658 71.1325C182.658 71.4276 182.742 71.7648 182.869 71.8912C182.974 71.9966 183.101 73.5563 183.122 75.3478C183.185 78.5514 183.185 78.6146 183.67 78.6779C184.745 78.8465 184.007 79.0362 182.341 79.0362C181.35 79.0362 180.549 78.9729 180.549 78.8886C180.549 78.7832 180.76 78.72 180.992 78.72C181.878 78.72 182.004 78.1931 182.025 74.8841C182.025 72.9451 181.941 71.7648 181.814 71.7648C181.709 71.7648 181.603 71.5962 181.603 71.3854C181.603 70.9428 180.57 70.2894 179.874 70.2894C179.621 70.3105 178.862 70.5634 178.229 70.9007L177.07 71.4697L177.006 74.6312C176.943 78.3617 177.006 78.72 177.702 78.72C177.997 78.72 178.229 78.7832 178.229 78.8886C178.229 78.9729 177.428 79.0362 176.437 79.0362C175.446 79.0362 174.645 78.9729 174.645 78.8886C174.645 78.7832 174.813 78.72 175.024 78.72C175.825 78.72 175.91 78.3196 175.91 74.863V71.5119L175.256 70.9007C174.434 70.1419 173.928 70.1419 172.325 70.8585L171.06 71.4486V74.8209C171.06 78.4039 171.144 78.72 172.051 78.72C172.325 78.72 172.536 78.7832 172.536 78.8886C172.536 78.9729 171.629 79.0362 170.533 79.0362C169.436 79.0362 168.529 78.9729 168.529 78.8886Z" fill="#020002"/>
<path d="M194.699 78.5311L194.045 77.9198V74.4211V70.9225L193.518 70.796C192.822 70.6274 192.864 70.522 193.834 69.7633C194.277 69.426 194.762 68.9202 194.91 68.6673C195.289 67.9507 195.416 68.0772 195.416 69.1731V70.1848L196.533 70.248C197.292 70.2902 197.63 70.3956 197.63 70.6063C197.63 70.8171 197.292 70.9225 196.428 70.9646L195.205 71.0278L195.141 73.6624C195.078 76.8028 195.331 77.7723 196.343 78.3414C196.723 78.5521 197.145 78.6575 197.271 78.5732C197.419 78.4889 197.841 78.2992 198.22 78.1728C198.895 77.9198 198.916 77.9198 198.558 78.3203C198.368 78.5311 198.03 78.7207 197.82 78.7207C197.609 78.7207 197.377 78.8261 197.313 78.9315C197.25 79.058 196.765 79.1423 196.259 79.1423C195.542 79.1423 195.205 79.0158 194.699 78.5311Z" fill="#020002"/>
<path d="M149.024 78.3412C149.509 78.0461 149.677 78.004 149.72 78.2147C149.762 78.3833 150.247 78.5098 151.09 78.573C152.081 78.6152 151.934 78.6573 150.394 78.6784L148.391 78.7206L149.024 78.3412Z" fill="#020002"/>
<path d="M209.439 78.5095C209.608 78.4041 209.924 78.2987 210.135 78.2987C210.493 78.2987 210.514 78.0458 210.451 74.2942C210.409 71.196 210.451 70.2897 210.662 70.2897C210.788 70.2897 210.915 70.2054 210.915 70.0789C210.915 69.9735 211.168 69.8682 211.463 69.8682C211.927 69.8682 211.99 69.9525 211.927 70.5005C211.885 70.9009 211.99 71.2171 212.18 71.3435C212.433 71.491 212.433 71.5964 212.222 71.8072C211.864 72.1655 211.864 77.7929 212.244 78.0247C212.37 78.1091 212.834 78.2987 213.235 78.4252C213.888 78.636 213.677 78.6781 211.548 78.6992C209.903 78.6992 209.228 78.657 209.439 78.5095Z" fill="#020002"/>
<path d="M151.259 74.8C151.301 74.6946 151.871 73.5143 152.545 72.1865C153.199 70.8587 154.085 69.004 154.506 68.0766C154.949 67.1493 155.561 65.8214 155.898 65.1259L156.51 63.8613L157.606 63.8824C158.935 63.9246 158.534 63.3344 161.339 69.4887C161.571 70.0367 161.782 70.5215 161.782 70.5847C161.782 70.669 161.318 70.7112 160.748 70.7112H159.694L158.618 68.4981C157.88 66.9596 157.438 66.2851 157.185 66.2851C156.931 66.2851 156.341 67.2968 155.097 69.826C153.494 73.0717 153.283 73.409 152.271 74.1677C151.681 74.6103 151.217 74.8843 151.259 74.8Z" fill="#020002"/>
<path d="M214.984 71.765C214.731 71.6597 214.415 71.3857 214.289 71.1538C214.014 70.6269 213.403 70.5848 212.939 71.0484C212.749 71.2171 212.602 71.2803 212.602 71.1749C212.602 71.0695 212.876 70.7323 213.234 70.4372C213.698 70.0157 214.078 69.8682 214.774 69.8682C215.596 69.8682 215.701 69.9314 216.018 70.6058C216.313 71.2803 216.313 71.3646 215.976 71.6597C215.575 72.018 215.617 72.018 214.984 71.765Z" fill="#020002"/>
<path d="M97.1068 60.363C96.2211 60.1101 95.7783 59.4357 95.7783 58.3397C95.7783 56.8643 97.149 55.7894 98.5197 56.1899C98.9625 56.3164 98.8992 56.3374 98.1823 56.3585C97.6551 56.3796 97.1068 56.5482 96.7483 56.8222C96.2844 57.1805 96.2001 57.4123 96.2001 58.2765C96.2001 59.1406 96.2844 59.3724 96.7483 59.7307C97.1068 60.0047 97.6129 60.1733 98.1612 60.1733C98.6251 60.1733 98.9625 60.2155 98.9203 60.2577C98.6673 60.4684 97.6973 60.5317 97.1068 60.363Z" fill="#020002"/>
<path d="M104.002 58.2764C104.002 56.8643 104.087 55.958 104.213 55.958C104.34 55.958 104.424 56.8011 104.424 58.0657V60.1733H105.373C105.9 60.1733 106.322 60.2787 106.322 60.3841C106.322 60.5105 105.795 60.5948 105.162 60.5948H104.002V58.2764Z" fill="#020002"/>
<path d="M111.383 58.2764C111.383 56.8643 111.467 55.958 111.594 55.958C111.72 55.958 111.805 56.8643 111.805 58.2764C111.805 59.6885 111.72 60.5948 111.594 60.5948C111.467 60.5948 111.383 59.6885 111.383 58.2764Z" fill="#020002"/>
<path d="M117.077 58.2764C117.077 56.9908 117.161 55.958 117.266 55.958C117.372 55.958 118.026 56.8221 118.7 57.897L119.923 59.8361L119.987 57.897C120.071 55.136 120.451 55.4522 120.451 58.2764C120.451 59.9836 120.387 60.5948 120.198 60.5948C120.05 60.5948 119.375 59.6885 118.7 58.5926C118.026 57.4966 117.435 56.5903 117.414 56.5903C117.372 56.5903 117.393 57.4966 117.456 58.5926C117.519 60.0047 117.477 60.5948 117.309 60.5948C117.161 60.5948 117.077 59.8571 117.077 58.2764Z" fill="#020002"/>
<path d="M125.511 58.2764C125.511 56.8643 125.596 55.958 125.722 55.958C125.849 55.958 125.933 56.8643 125.933 58.2764C125.933 59.6885 125.849 60.5948 125.722 60.5948C125.596 60.5948 125.511 59.6885 125.511 58.2764Z" fill="#020002"/>
<path d="M132.323 60.363C131.437 60.1101 130.994 59.4357 130.994 58.3397C130.994 56.8643 132.365 55.7894 133.735 56.1899C134.178 56.3164 134.115 56.3374 133.398 56.3585C132.871 56.3796 132.323 56.5482 131.964 56.8222C131.5 57.1805 131.416 57.4123 131.416 58.2765C131.416 59.1406 131.5 59.3724 131.964 59.7307C132.323 60.0047 132.829 60.1733 133.377 60.1733C133.841 60.1733 134.178 60.2155 134.136 60.2577C133.883 60.4684 132.913 60.5317 132.323 60.363Z" fill="#020002"/>
<path d="M144.954 58.6558C145.017 57.5809 145.101 56.5271 145.101 56.3374C145.123 56.1266 145.249 55.958 145.418 55.958C145.586 55.958 145.924 56.6746 146.303 57.8549C146.641 58.8876 146.957 59.7518 147.02 59.7518C147.084 59.7518 147.421 58.9298 147.758 57.9181C148.159 56.7589 148.539 56.0423 148.75 56.0002C149.024 55.958 149.087 56.2952 149.171 58.2132C149.235 59.4567 149.256 60.5316 149.214 60.5738C149.024 60.7845 148.918 60.3419 148.771 58.4661L148.602 56.4849L147.885 58.445C147.484 59.4988 147.105 60.3841 146.999 60.3841C146.915 60.3841 146.578 59.6042 146.282 58.6558C145.966 57.6863 145.629 56.8221 145.523 56.7168C145.418 56.5903 145.333 57.1594 145.333 58.0867C145.333 59.6675 145.186 60.5948 144.933 60.5948C144.87 60.5948 144.87 59.7096 144.954 58.6558Z" fill="#020002"/>
<path d="M154.78 58.3397C155.265 56.8855 155.666 56.0635 155.856 56.0635C156.046 56.0635 156.404 56.8222 156.868 58.1711C157.627 60.4263 157.648 60.5949 157.374 60.5949C157.29 60.5949 157.121 60.2788 157.016 59.9205C156.826 59.2882 156.742 59.2249 155.856 59.1617C154.928 59.0985 154.886 59.1196 154.696 59.7729C154.591 60.1523 154.38 60.4895 154.253 60.5317C154.085 60.5949 154.316 59.6886 154.78 58.3397ZM156.51 58.5716C156.51 58.2976 156.003 56.6958 155.877 56.5272C155.793 56.4429 155.603 56.8855 155.413 57.5388L155.097 58.698H155.793C156.193 58.698 156.51 58.6348 156.51 58.5716Z" fill="#020002"/>
<path d="M162.625 58.2764C162.625 56.9908 162.709 55.958 162.815 55.958C162.92 55.958 163.574 56.8221 164.249 57.897L165.472 59.8361L165.535 57.897C165.619 55.136 165.999 55.4522 165.999 58.2764C165.999 59.9836 165.936 60.5948 165.746 60.5948C165.598 60.5948 164.924 59.6885 164.249 58.5926C163.574 57.4966 162.983 56.5903 162.962 56.5903C162.92 56.5903 162.941 57.4966 163.005 58.5926C163.068 60.0047 163.026 60.5948 162.857 60.5948C162.709 60.5948 162.625 59.8571 162.625 58.2764Z" fill="#020002"/>
<path d="M171.439 58.3397C171.924 56.8855 172.325 56.0635 172.515 56.0635C172.704 56.0635 173.063 56.8222 173.527 58.1711C174.286 60.4263 174.307 60.5949 174.033 60.5949C173.948 60.5949 173.78 60.2788 173.674 59.9205C173.485 59.2882 173.4 59.2249 172.515 59.1617C171.587 59.0985 171.545 59.1196 171.355 59.7729C171.249 60.1523 171.038 60.4895 170.912 60.5317C170.743 60.5949 170.975 59.6886 171.439 58.3397ZM173.168 58.5716C173.168 58.2976 172.662 56.6958 172.536 56.5272C172.451 56.4429 172.261 56.8855 172.072 57.5388L171.755 58.698H172.451C172.852 58.698 173.168 58.6348 173.168 58.5716Z" fill="#020002"/>
<path d="M180.401 60.3628C179.516 60.1099 179.073 59.4354 179.073 58.3394C179.073 56.8219 180.38 55.8313 181.92 56.1896C182.468 56.3161 182.405 56.3372 181.54 56.3583C180.169 56.3793 179.494 57.0327 179.494 58.3394C179.494 59.5619 180.106 60.1731 181.35 60.1731C182.215 60.1731 182.236 60.152 182.236 59.4354C182.236 58.7821 182.173 58.6977 181.709 58.6977C181.413 58.6977 181.181 58.6134 181.181 58.487C181.181 58.3816 181.519 58.2762 181.92 58.2762H182.658V59.33C182.658 60.1942 182.594 60.3839 182.299 60.3839C182.088 60.3839 181.73 60.426 181.498 60.4682C181.266 60.5314 180.781 60.4682 180.401 60.3628Z" fill="#020002"/>
<path d="M187.719 58.2764V55.958H188.879C189.511 55.958 190.038 56.0634 190.038 56.1688C190.038 56.2952 189.617 56.3795 189.089 56.3795H188.14V57.2226V58.0657H188.984C189.448 58.0657 189.827 58.171 189.827 58.2764C189.827 58.4029 189.448 58.4872 188.984 58.4872H188.14V59.3302V60.1733H189.089C189.617 60.1733 190.038 60.2787 190.038 60.3841C190.038 60.5105 189.511 60.5948 188.879 60.5948H187.719V58.2764Z" fill="#020002"/>
<path d="M195.141 58.6558C195.205 57.5809 195.289 56.5271 195.289 56.3374C195.31 56.1266 195.437 55.958 195.605 55.958C195.774 55.958 196.111 56.6746 196.491 57.8549C196.828 58.8876 197.145 59.7518 197.208 59.7518C197.271 59.7518 197.609 58.9298 197.946 57.9181C198.347 56.7589 198.726 56.0423 198.937 56.0002C199.211 55.958 199.274 56.2952 199.359 58.2132C199.422 59.4567 199.443 60.5316 199.401 60.5738C199.211 60.7845 199.106 60.3419 198.958 58.4661L198.789 56.4849L198.073 58.445C197.672 59.4988 197.292 60.3841 197.187 60.3841C197.102 60.3841 196.765 59.6042 196.47 58.6558C196.154 57.6863 195.816 56.8221 195.711 56.7168C195.605 56.5903 195.521 57.1594 195.521 58.0867C195.521 59.6675 195.373 60.5948 195.12 60.5948C195.057 60.5948 195.057 59.7096 195.141 58.6558Z" fill="#020002"/>
<path d="M204.799 58.2764V55.958H205.959C206.592 55.958 207.119 56.0634 207.119 56.1688C207.119 56.2952 206.697 56.3795 206.17 56.3795H205.221V57.2226V58.0657H206.065C206.528 58.0657 206.908 58.171 206.908 58.2764C206.908 58.4029 206.528 58.4872 206.065 58.4872H205.221V59.3302V60.1733H206.17C206.697 60.1733 207.119 60.2787 207.119 60.3841C207.119 60.5105 206.592 60.5948 205.959 60.5948H204.799V58.2764Z" fill="#020002"/>
<path d="M212.18 58.2764C212.18 56.9908 212.264 55.958 212.369 55.958C212.475 55.958 213.129 56.8221 213.803 57.897L215.026 59.8361L215.09 57.897C215.174 55.136 215.554 55.4522 215.554 58.2764C215.554 59.9836 215.49 60.5948 215.301 60.5948C215.153 60.5948 214.478 59.6885 213.803 58.5926C213.129 57.4966 212.538 56.5903 212.517 56.5903C212.475 56.5903 212.496 57.4966 212.559 58.5926C212.623 60.0047 212.58 60.5948 212.412 60.5948C212.264 60.5948 212.18 59.8571 212.18 58.2764Z" fill="#020002"/>
<path d="M221.669 58.4872V56.3795H221.036C220.699 56.3795 220.404 56.2952 220.404 56.1688C220.404 56.0423 221.079 55.958 221.985 55.958C222.892 55.958 223.567 56.0423 223.567 56.1688C223.567 56.2952 223.229 56.3795 222.829 56.3795H222.091V58.4872C222.091 59.7518 222.006 60.5948 221.88 60.5948C221.753 60.5948 221.669 59.7518 221.669 58.4872Z" fill="#020002"/>
<path d="M233.963 60.4476C233.141 60.2789 233.436 60.0682 234.469 60.0682C235.439 60.0682 235.481 60.0471 235.545 59.4359C235.608 58.8668 235.502 58.7404 234.68 58.3399C234.174 58.087 233.689 57.7076 233.626 57.4547C233.394 56.5695 234.722 55.6843 235.545 56.148C235.84 56.3166 235.756 56.3587 235.144 56.3798C234.322 56.3798 233.773 56.8224 233.963 57.3072C234.026 57.4547 234.49 57.813 234.996 58.087C235.713 58.4874 235.924 58.7193 235.966 59.2462C236.009 59.6045 235.903 60.005 235.756 60.1314C235.397 60.4265 234.554 60.574 233.963 60.4476Z" fill="#020002"/>
<path d="M242.334 59.6253C242.334 58.9087 242.145 58.3186 241.575 57.3069C241.154 56.5692 240.922 55.958 241.048 55.958C241.175 55.958 241.554 56.506 241.892 57.1594L242.503 58.3818L243.094 57.1594C243.41 56.506 243.768 55.958 243.853 55.958C244.127 55.958 244.043 56.232 243.389 57.328C242.904 58.1289 242.756 58.6347 242.756 59.4988C242.756 60.089 242.672 60.5948 242.545 60.5948C242.44 60.5948 242.334 60.1522 242.334 59.6253Z" fill="#020002"/>
<path d="M249.146 60.4476C248.323 60.2789 248.619 60.0682 249.652 60.0682C250.622 60.0682 250.664 60.0471 250.727 59.4359C250.791 58.8668 250.685 58.7404 249.863 58.3399C249.357 58.087 248.872 57.7076 248.808 57.4547C248.576 56.5695 249.905 55.6843 250.727 56.148C251.022 56.3166 250.938 56.3587 250.327 56.3798C249.504 56.3798 248.956 56.8224 249.146 57.3072C249.209 57.4547 249.673 57.813 250.179 58.087C250.896 58.4874 251.107 58.7193 251.149 59.2462C251.191 59.6045 251.086 60.005 250.938 60.1314C250.58 60.4265 249.736 60.574 249.146 60.4476Z" fill="#020002"/>
<path d="M257.096 58.4872V56.3795H256.463C256.126 56.3795 255.831 56.2952 255.831 56.1688C255.831 56.0423 256.505 55.958 257.412 55.958C258.319 55.958 258.994 56.0423 258.994 56.1688C258.994 56.2952 258.656 56.3795 258.256 56.3795H257.518V58.4872C257.518 59.7518 257.433 60.5948 257.307 60.5948C257.18 60.5948 257.096 59.7518 257.096 58.4872Z" fill="#020002"/>
<path d="M263.844 58.2764V55.958H265.004C265.636 55.958 266.163 56.0634 266.163 56.1688C266.163 56.2952 265.742 56.3795 265.214 56.3795H264.265V57.2226V58.0657H265.109C265.573 58.0657 265.952 58.171 265.952 58.2764C265.952 58.4029 265.573 58.4872 265.109 58.4872H264.265V59.3302V60.1733H265.214C265.742 60.1733 266.163 60.2787 266.163 60.3841C266.163 60.5105 265.636 60.5948 265.004 60.5948H263.844V58.2764Z" fill="#020002"/>
<path d="M271.266 58.6558C271.33 57.5809 271.414 56.5271 271.414 56.3374C271.435 56.1266 271.562 55.958 271.73 55.958C271.899 55.958 272.236 56.6746 272.616 57.8549C272.953 58.8876 273.27 59.7518 273.333 59.7518C273.396 59.7518 273.734 58.9298 274.071 57.9181C274.472 56.7589 274.851 56.0423 275.062 56.0002C275.336 55.958 275.399 56.2952 275.484 58.2132C275.547 59.4567 275.568 60.5316 275.526 60.5738C275.336 60.7845 275.231 60.3419 275.083 58.4661L274.914 56.4849L274.198 58.445C273.797 59.4988 273.417 60.3841 273.312 60.3841C273.227 60.3841 272.89 59.6042 272.595 58.6558C272.279 57.6863 271.941 56.8221 271.836 56.7168C271.73 56.5903 271.646 57.1594 271.646 58.0867C271.646 59.6675 271.498 60.5948 271.245 60.5948C271.182 60.5948 271.182 59.7096 271.266 58.6558Z" fill="#020002"/>
<path d="M280.988 60.4476C280.165 60.2789 280.46 60.0682 281.494 60.0682C282.464 60.0682 282.506 60.0471 282.569 59.4359C282.632 58.8668 282.527 58.7404 281.704 58.3399C281.198 58.087 280.713 57.7076 280.65 57.4547C280.418 56.5695 281.747 55.6843 282.569 56.148C282.864 56.3166 282.78 56.3587 282.168 56.3798C281.346 56.3798 280.798 56.8224 280.988 57.3072C281.051 57.4547 281.515 57.813 282.021 58.087C282.738 58.4874 282.949 58.7193 282.991 59.2462C283.033 59.6045 282.928 60.005 282.78 60.1314C282.421 60.4265 281.578 60.574 280.988 60.4476Z" fill="#020002"/>
</svg>
